M48
; DRILL file {KiCad (5.1.9)-1} date 08/17/21 10:41:55
; FORMAT={-:-/ absolute / metric / decimal}
; #@! TF.CreationDate,2021-08-17T10:41:55+08:00
; #@! TF.GenerationSoftware,Kicad,Pcbnew,(5.1.9)-1
FMAT,2
METRIC
T1C0.400
T2C0.600
T3C1.540
%
G90
G05
T1
X140.335Y-106.045
X174.625Y-106.045
T2
X140.335Y-47.625
X142.24Y-51.435
X142.24Y-53.925
X143.51Y-52.625
X145.542Y-53.34
X146.05Y-69.85
X146.05Y-76.2
X146.05Y-81.28
X146.05Y-86.36
X146.05Y-92.71
X147.955Y-71.755
X147.955Y-90.805
X148.59Y-76.2
X148.59Y-81.28
X148.59Y-86.36
X149.94Y-104.14
X151.765Y-104.14
X151.765Y-105.727
X151.765Y-107.315
X152.4Y-69.85
X152.4Y-72.39
X152.4Y-90.17
X152.4Y-92.71
X153.67Y-47.625
X153.67Y-50.165
X153.67Y-52.705
X153.67Y-55.245
X155.575Y-47.625
X155.575Y-50.165
X155.575Y-52.705
X155.575Y-55.245
X157.48Y-69.85
X157.48Y-72.39
X157.48Y-90.17
X157.48Y-92.71
X159.385Y-47.625
X159.385Y-50.165
X159.385Y-52.705
X159.385Y-55.245
X161.29Y-47.625
X161.29Y-50.165
X161.29Y-52.705
X161.29Y-55.245
X162.56Y-69.85
X162.56Y-72.39
X162.56Y-90.17
X162.56Y-92.71
X164.465Y-47.625
X164.465Y-49.53
X164.465Y-51.435
X166.37Y-76.2
X166.37Y-81.28
X166.37Y-86.36
X167.005Y-47.625
X167.005Y-49.53
X167.005Y-51.435
X167.005Y-71.755
X167.005Y-90.805
X168.91Y-69.85
X168.91Y-76.2
X168.91Y-81.28
X168.91Y-86.36
X168.91Y-92.71
X169.545Y-47.625
X169.545Y-49.53
X169.545Y-51.435
X175.26Y-47.625
X175.26Y-50.165
X175.26Y-52.705
X175.26Y-55.245
X177.8Y-47.625
X177.8Y-50.165
X177.8Y-52.705
X177.8Y-55.245
T3
X134.62Y-66.04
X134.62Y-78.74
X134.62Y-81.28
X134.62Y-83.82
X134.62Y-96.52
X137.16Y-60.96
X137.16Y-63.5
X137.16Y-66.04
X137.16Y-68.58
X137.16Y-71.12
X137.16Y-73.66
X137.16Y-76.2
X137.16Y-78.74
X137.16Y-81.28
X137.16Y-83.82
X137.16Y-86.36
X137.16Y-88.9
X137.16Y-91.44
X137.16Y-93.98
X137.16Y-96.52
X137.16Y-99.06
X137.16Y-101.6
X139.7Y-60.96
X139.7Y-63.5
X139.7Y-66.04
X139.7Y-68.58
X139.7Y-71.12
X139.7Y-73.66
X139.7Y-76.2
X139.7Y-78.74
X139.7Y-81.28
X139.7Y-83.82
X139.7Y-86.36
X139.7Y-88.9
X139.7Y-91.44
X139.7Y-93.98
X139.7Y-96.52
X139.7Y-99.06
X139.7Y-101.6
X142.24Y-58.42
X142.24Y-60.96
X142.24Y-63.5
X142.24Y-66.04
X142.24Y-68.58
X142.24Y-71.12
X142.24Y-73.66
X142.24Y-76.2
X142.24Y-78.74
X142.24Y-81.28
X142.24Y-83.82
X142.24Y-86.36
X142.24Y-88.9
X142.24Y-91.44
X142.24Y-93.98
X142.24Y-96.52
X142.24Y-99.06
X142.24Y-101.6
X142.24Y-104.14
X144.78Y-60.96
X144.78Y-63.5
X144.78Y-66.04
X144.78Y-96.52
X144.78Y-99.06
X144.78Y-101.6
X147.32Y-60.96
X147.32Y-63.5
X147.32Y-66.04
X147.32Y-96.52
X147.32Y-99.06
X147.32Y-101.6
X149.86Y-60.96
X149.86Y-63.5
X149.86Y-66.04
X149.86Y-96.52
X149.86Y-99.06
X149.86Y-101.6
X152.4Y-60.96
X152.4Y-63.5
X152.4Y-66.04
X152.4Y-96.52
X152.4Y-99.06
X152.4Y-101.6
X154.94Y-58.42
X154.94Y-60.96
X154.94Y-63.5
X154.94Y-66.04
X154.94Y-96.52
X154.94Y-99.06
X154.94Y-101.6
X154.94Y-104.14
X157.48Y-58.42
X157.48Y-60.96
X157.48Y-63.5
X157.48Y-66.04
X157.48Y-96.52
X157.48Y-99.06
X157.48Y-101.6
X157.48Y-104.14
X160.02Y-58.42
X160.02Y-60.96
X160.02Y-63.5
X160.02Y-66.04
X160.02Y-96.52
X160.02Y-99.06
X160.02Y-101.6
X160.02Y-104.14
X162.56Y-60.96
X162.56Y-63.5
X162.56Y-66.04
X162.56Y-96.52
X162.56Y-99.06
X162.56Y-101.6
X165.1Y-60.96
X165.1Y-63.5
X165.1Y-66.04
X165.1Y-96.52
X165.1Y-99.06
X165.1Y-101.6
X167.64Y-60.96
X167.64Y-63.5
X167.64Y-66.04
X167.64Y-96.52
X167.64Y-99.06
X167.64Y-101.6
X170.18Y-60.96
X170.18Y-63.5
X170.18Y-66.04
X170.18Y-96.52
X170.18Y-99.06
X170.18Y-101.6
X172.72Y-58.42
X172.72Y-60.96
X172.72Y-63.5
X172.72Y-66.04
X172.72Y-68.58
X172.72Y-71.12
X172.72Y-73.66
X172.72Y-76.2
X172.72Y-78.74
X172.72Y-81.28
X172.72Y-83.82
X172.72Y-86.36
X172.72Y-88.9
X172.72Y-91.44
X172.72Y-93.98
X172.72Y-96.52
X172.72Y-99.06
X172.72Y-101.6
X172.72Y-104.14
X175.26Y-60.96
X175.26Y-63.5
X175.26Y-66.04
X175.26Y-68.58
X175.26Y-71.12
X175.26Y-73.66
X175.26Y-76.2
X175.26Y-78.74
X175.26Y-81.28
X175.26Y-83.82
X175.26Y-86.36
X175.26Y-88.9
X175.26Y-91.44
X175.26Y-93.98
X175.26Y-96.52
X175.26Y-99.06
X175.26Y-101.6
X177.8Y-60.96
X177.8Y-63.5
X177.8Y-66.04
X177.8Y-68.58
X177.8Y-71.12
X177.8Y-73.66
X177.8Y-76.2
X177.8Y-78.74
X177.8Y-81.28
X177.8Y-83.82
X177.8Y-86.36
X177.8Y-88.9
X177.8Y-91.44
X177.8Y-93.98
X177.8Y-96.52
X177.8Y-99.06
X177.8Y-101.6
X180.34Y-66.04
X180.34Y-78.74
X180.34Y-81.28
X180.34Y-83.82
X180.34Y-96.52
T0
M30
