%TF.GenerationSoftware,KiCad,Pcbnew,(5.1.9)-1*%
%TF.CreationDate,2021-07-31T20:38:11+08:00*%
%TF.ProjectId,Interposer486_3v,496e7465-7270-46f7-9365-723438365f33,rev?*%
%TF.SameCoordinates,Original*%
%TF.FileFunction,Profile,NP*%
%FSLAX46Y46*%
G04 Gerber Fmt 4.6, Leading zero omitted, Abs format (unit mm)*
G04 Created by KiCad (PCBNEW (5.1.9)-1) date 2021-07-31 20:38:11*
%MOMM*%
%LPD*%
G01*
G04 APERTURE LIST*
%TA.AperFunction,Profile*%
%ADD10C,0.050000*%
%TD*%
G04 APERTURE END LIST*
D10*
X137795000Y-114300000D02*
X137160000Y-114300000D01*
X137795000Y-110490000D02*
X137795000Y-114300000D01*
X137160000Y-110490000D02*
X137795000Y-110490000D01*
X139065000Y-110490000D02*
X139700000Y-110490000D01*
X139065000Y-114300000D02*
X139065000Y-110490000D01*
X139700000Y-114300000D02*
X139065000Y-114300000D01*
X150495000Y-114300000D02*
X149860000Y-114300000D01*
X150495000Y-110490000D02*
X150495000Y-114300000D01*
X149860000Y-110490000D02*
X150495000Y-110490000D01*
X151765000Y-110490000D02*
X152400000Y-110490000D01*
X151765000Y-114300000D02*
X151765000Y-110490000D01*
X152400000Y-114300000D02*
X151765000Y-114300000D01*
X163195000Y-114300000D02*
X162560000Y-114300000D01*
X163195000Y-110490000D02*
X163195000Y-114300000D01*
X162560000Y-110490000D02*
X163195000Y-110490000D01*
X164465000Y-110490000D02*
X165100000Y-110490000D01*
X164465000Y-114300000D02*
X164465000Y-110490000D01*
X165100000Y-114300000D02*
X164465000Y-114300000D01*
X175895000Y-114300000D02*
X175260000Y-114300000D01*
X175895000Y-110490000D02*
X175895000Y-114300000D01*
X175260000Y-110490000D02*
X175895000Y-110490000D01*
X177165000Y-114300000D02*
X177800000Y-114300000D01*
X177165000Y-110490000D02*
X177165000Y-114300000D01*
X177800000Y-110490000D02*
X177165000Y-110490000D01*
X181610000Y-46990000D02*
X181610000Y-110490000D01*
X179070000Y-44450000D02*
X133350000Y-44450000D01*
X181610000Y-46990000D02*
X179070000Y-44450000D01*
X133350000Y-125730000D02*
X133350000Y-114300000D01*
X181610000Y-125730000D02*
X133350000Y-125730000D01*
X181610000Y-114300000D02*
X181610000Y-125730000D01*
X137160000Y-114300000D02*
X133350000Y-114300000D01*
X149860000Y-114300000D02*
X139700000Y-114300000D01*
X162560000Y-114300000D02*
X152400000Y-114300000D01*
X175260000Y-114300000D02*
X165100000Y-114300000D01*
X177800000Y-114300000D02*
X181610000Y-114300000D01*
X177800000Y-110490000D02*
X181610000Y-110490000D01*
X165100000Y-110490000D02*
X175260000Y-110490000D01*
X152400000Y-110490000D02*
X162560000Y-110490000D01*
X139700000Y-110490000D02*
X149860000Y-110490000D01*
X137160000Y-110490000D02*
X133350000Y-110490000D01*
X133350000Y-44450000D02*
X133350000Y-58420000D01*
X133350000Y-58420000D02*
X133350000Y-110490000D01*
M02*
