%TF.GenerationSoftware,KiCad,Pcbnew,(5.1.9)-1*%
%TF.CreationDate,2021-08-17T10:41:51+08:00*%
%TF.ProjectId,Interposer486_3v,496e7465-7270-46f7-9365-723438365f33,rev?*%
%TF.SameCoordinates,Original*%
%TF.FileFunction,Soldermask,Bot*%
%TF.FilePolarity,Negative*%
%FSLAX46Y46*%
G04 Gerber Fmt 4.6, Leading zero omitted, Abs format (unit mm)*
G04 Created by KiCad (PCBNEW (5.1.9)-1) date 2021-08-17 10:41:51*
%MOMM*%
%LPD*%
G01*
G04 APERTURE LIST*
%ADD10C,1.940000*%
G04 APERTURE END LIST*
%TO.C,C11*%
G36*
G01*
X158130001Y-94760000D02*
X156829999Y-94760000D01*
G75*
G02*
X156580000Y-94510001I0J249999D01*
G01*
X156580000Y-93859999D01*
G75*
G02*
X156829999Y-93610000I249999J0D01*
G01*
X158130001Y-93610000D01*
G75*
G02*
X158380000Y-93859999I0J-249999D01*
G01*
X158380000Y-94510001D01*
G75*
G02*
X158130001Y-94760000I-249999J0D01*
G01*
G37*
G36*
G01*
X158130001Y-91810000D02*
X156829999Y-91810000D01*
G75*
G02*
X156580000Y-91560001I0J249999D01*
G01*
X156580000Y-90909999D01*
G75*
G02*
X156829999Y-90660000I249999J0D01*
G01*
X158130001Y-90660000D01*
G75*
G02*
X158380000Y-90909999I0J-249999D01*
G01*
X158380000Y-91560001D01*
G75*
G02*
X158130001Y-91810000I-249999J0D01*
G01*
G37*
%TD*%
%TO.C,C10*%
G36*
G01*
X163210001Y-94760000D02*
X161909999Y-94760000D01*
G75*
G02*
X161660000Y-94510001I0J249999D01*
G01*
X161660000Y-93859999D01*
G75*
G02*
X161909999Y-93610000I249999J0D01*
G01*
X163210001Y-93610000D01*
G75*
G02*
X163460000Y-93859999I0J-249999D01*
G01*
X163460000Y-94510001D01*
G75*
G02*
X163210001Y-94760000I-249999J0D01*
G01*
G37*
G36*
G01*
X163210001Y-91810000D02*
X161909999Y-91810000D01*
G75*
G02*
X161660000Y-91560001I0J249999D01*
G01*
X161660000Y-90909999D01*
G75*
G02*
X161909999Y-90660000I249999J0D01*
G01*
X163210001Y-90660000D01*
G75*
G02*
X163460000Y-90909999I0J-249999D01*
G01*
X163460000Y-91560001D01*
G75*
G02*
X163210001Y-91810000I-249999J0D01*
G01*
G37*
%TD*%
%TO.C,C12*%
G36*
G01*
X153050001Y-91810000D02*
X151749999Y-91810000D01*
G75*
G02*
X151500000Y-91560001I0J249999D01*
G01*
X151500000Y-90909999D01*
G75*
G02*
X151749999Y-90660000I249999J0D01*
G01*
X153050001Y-90660000D01*
G75*
G02*
X153300000Y-90909999I0J-249999D01*
G01*
X153300000Y-91560001D01*
G75*
G02*
X153050001Y-91810000I-249999J0D01*
G01*
G37*
G36*
G01*
X153050001Y-94760000D02*
X151749999Y-94760000D01*
G75*
G02*
X151500000Y-94510001I0J249999D01*
G01*
X151500000Y-93859999D01*
G75*
G02*
X151749999Y-93610000I249999J0D01*
G01*
X153050001Y-93610000D01*
G75*
G02*
X153300000Y-93859999I0J-249999D01*
G01*
X153300000Y-94510001D01*
G75*
G02*
X153050001Y-94760000I-249999J0D01*
G01*
G37*
%TD*%
%TO.C,C2*%
G36*
G01*
X151749999Y-70750000D02*
X153050001Y-70750000D01*
G75*
G02*
X153300000Y-70999999I0J-249999D01*
G01*
X153300000Y-71650001D01*
G75*
G02*
X153050001Y-71900000I-249999J0D01*
G01*
X151749999Y-71900000D01*
G75*
G02*
X151500000Y-71650001I0J249999D01*
G01*
X151500000Y-70999999D01*
G75*
G02*
X151749999Y-70750000I249999J0D01*
G01*
G37*
G36*
G01*
X151749999Y-67800000D02*
X153050001Y-67800000D01*
G75*
G02*
X153300000Y-68049999I0J-249999D01*
G01*
X153300000Y-68700001D01*
G75*
G02*
X153050001Y-68950000I-249999J0D01*
G01*
X151749999Y-68950000D01*
G75*
G02*
X151500000Y-68700001I0J249999D01*
G01*
X151500000Y-68049999D01*
G75*
G02*
X151749999Y-67800000I249999J0D01*
G01*
G37*
%TD*%
%TO.C,C3*%
G36*
G01*
X156829999Y-67800000D02*
X158130001Y-67800000D01*
G75*
G02*
X158380000Y-68049999I0J-249999D01*
G01*
X158380000Y-68700001D01*
G75*
G02*
X158130001Y-68950000I-249999J0D01*
G01*
X156829999Y-68950000D01*
G75*
G02*
X156580000Y-68700001I0J249999D01*
G01*
X156580000Y-68049999D01*
G75*
G02*
X156829999Y-67800000I249999J0D01*
G01*
G37*
G36*
G01*
X156829999Y-70750000D02*
X158130001Y-70750000D01*
G75*
G02*
X158380000Y-70999999I0J-249999D01*
G01*
X158380000Y-71650001D01*
G75*
G02*
X158130001Y-71900000I-249999J0D01*
G01*
X156829999Y-71900000D01*
G75*
G02*
X156580000Y-71650001I0J249999D01*
G01*
X156580000Y-70999999D01*
G75*
G02*
X156829999Y-70750000I249999J0D01*
G01*
G37*
%TD*%
%TO.C,C4*%
G36*
G01*
X161909999Y-70750000D02*
X163210001Y-70750000D01*
G75*
G02*
X163460000Y-70999999I0J-249999D01*
G01*
X163460000Y-71650001D01*
G75*
G02*
X163210001Y-71900000I-249999J0D01*
G01*
X161909999Y-71900000D01*
G75*
G02*
X161660000Y-71650001I0J249999D01*
G01*
X161660000Y-70999999D01*
G75*
G02*
X161909999Y-70750000I249999J0D01*
G01*
G37*
G36*
G01*
X161909999Y-67800000D02*
X163210001Y-67800000D01*
G75*
G02*
X163460000Y-68049999I0J-249999D01*
G01*
X163460000Y-68700001D01*
G75*
G02*
X163210001Y-68950000I-249999J0D01*
G01*
X161909999Y-68950000D01*
G75*
G02*
X161660000Y-68700001I0J249999D01*
G01*
X161660000Y-68049999D01*
G75*
G02*
X161909999Y-67800000I249999J0D01*
G01*
G37*
%TD*%
%TO.C,C7*%
G36*
G01*
X170960000Y-80629999D02*
X170960000Y-81930001D01*
G75*
G02*
X170710001Y-82180000I-249999J0D01*
G01*
X170059999Y-82180000D01*
G75*
G02*
X169810000Y-81930001I0J249999D01*
G01*
X169810000Y-80629999D01*
G75*
G02*
X170059999Y-80380000I249999J0D01*
G01*
X170710001Y-80380000D01*
G75*
G02*
X170960000Y-80629999I0J-249999D01*
G01*
G37*
G36*
G01*
X168010000Y-80629999D02*
X168010000Y-81930001D01*
G75*
G02*
X167760001Y-82180000I-249999J0D01*
G01*
X167109999Y-82180000D01*
G75*
G02*
X166860000Y-81930001I0J249999D01*
G01*
X166860000Y-80629999D01*
G75*
G02*
X167109999Y-80380000I249999J0D01*
G01*
X167760001Y-80380000D01*
G75*
G02*
X168010000Y-80629999I0J-249999D01*
G01*
G37*
%TD*%
%TO.C,C6*%
G36*
G01*
X170960000Y-75549999D02*
X170960000Y-76850001D01*
G75*
G02*
X170710001Y-77100000I-249999J0D01*
G01*
X170059999Y-77100000D01*
G75*
G02*
X169810000Y-76850001I0J249999D01*
G01*
X169810000Y-75549999D01*
G75*
G02*
X170059999Y-75300000I249999J0D01*
G01*
X170710001Y-75300000D01*
G75*
G02*
X170960000Y-75549999I0J-249999D01*
G01*
G37*
G36*
G01*
X168010000Y-75549999D02*
X168010000Y-76850001D01*
G75*
G02*
X167760001Y-77100000I-249999J0D01*
G01*
X167109999Y-77100000D01*
G75*
G02*
X166860000Y-76850001I0J249999D01*
G01*
X166860000Y-75549999D01*
G75*
G02*
X167109999Y-75300000I249999J0D01*
G01*
X167760001Y-75300000D01*
G75*
G02*
X168010000Y-75549999I0J-249999D01*
G01*
G37*
%TD*%
%TO.C,C8*%
G36*
G01*
X168010000Y-85709999D02*
X168010000Y-87010001D01*
G75*
G02*
X167760001Y-87260000I-249999J0D01*
G01*
X167109999Y-87260000D01*
G75*
G02*
X166860000Y-87010001I0J249999D01*
G01*
X166860000Y-85709999D01*
G75*
G02*
X167109999Y-85460000I249999J0D01*
G01*
X167760001Y-85460000D01*
G75*
G02*
X168010000Y-85709999I0J-249999D01*
G01*
G37*
G36*
G01*
X170960000Y-85709999D02*
X170960000Y-87010001D01*
G75*
G02*
X170710001Y-87260000I-249999J0D01*
G01*
X170059999Y-87260000D01*
G75*
G02*
X169810000Y-87010001I0J249999D01*
G01*
X169810000Y-85709999D01*
G75*
G02*
X170059999Y-85460000I249999J0D01*
G01*
X170710001Y-85460000D01*
G75*
G02*
X170960000Y-85709999I0J-249999D01*
G01*
G37*
%TD*%
%TO.C,C14*%
G36*
G01*
X146950000Y-87010001D02*
X146950000Y-85709999D01*
G75*
G02*
X147199999Y-85460000I249999J0D01*
G01*
X147850001Y-85460000D01*
G75*
G02*
X148100000Y-85709999I0J-249999D01*
G01*
X148100000Y-87010001D01*
G75*
G02*
X147850001Y-87260000I-249999J0D01*
G01*
X147199999Y-87260000D01*
G75*
G02*
X146950000Y-87010001I0J249999D01*
G01*
G37*
G36*
G01*
X144000000Y-87010001D02*
X144000000Y-85709999D01*
G75*
G02*
X144249999Y-85460000I249999J0D01*
G01*
X144900001Y-85460000D01*
G75*
G02*
X145150000Y-85709999I0J-249999D01*
G01*
X145150000Y-87010001D01*
G75*
G02*
X144900001Y-87260000I-249999J0D01*
G01*
X144249999Y-87260000D01*
G75*
G02*
X144000000Y-87010001I0J249999D01*
G01*
G37*
%TD*%
%TO.C,C16*%
G36*
G01*
X144000000Y-76850001D02*
X144000000Y-75549999D01*
G75*
G02*
X144249999Y-75300000I249999J0D01*
G01*
X144900001Y-75300000D01*
G75*
G02*
X145150000Y-75549999I0J-249999D01*
G01*
X145150000Y-76850001D01*
G75*
G02*
X144900001Y-77100000I-249999J0D01*
G01*
X144249999Y-77100000D01*
G75*
G02*
X144000000Y-76850001I0J249999D01*
G01*
G37*
G36*
G01*
X146950000Y-76850001D02*
X146950000Y-75549999D01*
G75*
G02*
X147199999Y-75300000I249999J0D01*
G01*
X147850001Y-75300000D01*
G75*
G02*
X148100000Y-75549999I0J-249999D01*
G01*
X148100000Y-76850001D01*
G75*
G02*
X147850001Y-77100000I-249999J0D01*
G01*
X147199999Y-77100000D01*
G75*
G02*
X146950000Y-76850001I0J249999D01*
G01*
G37*
%TD*%
%TO.C,C15*%
G36*
G01*
X146950000Y-81930001D02*
X146950000Y-80629999D01*
G75*
G02*
X147199999Y-80380000I249999J0D01*
G01*
X147850001Y-80380000D01*
G75*
G02*
X148100000Y-80629999I0J-249999D01*
G01*
X148100000Y-81930001D01*
G75*
G02*
X147850001Y-82180000I-249999J0D01*
G01*
X147199999Y-82180000D01*
G75*
G02*
X146950000Y-81930001I0J249999D01*
G01*
G37*
G36*
G01*
X144000000Y-81930001D02*
X144000000Y-80629999D01*
G75*
G02*
X144249999Y-80380000I249999J0D01*
G01*
X144900001Y-80380000D01*
G75*
G02*
X145150000Y-80629999I0J-249999D01*
G01*
X145150000Y-81930001D01*
G75*
G02*
X144900001Y-82180000I-249999J0D01*
G01*
X144249999Y-82180000D01*
G75*
G02*
X144000000Y-81930001I0J249999D01*
G01*
G37*
%TD*%
%TO.C,C5*%
G36*
G01*
X169899949Y-67940810D02*
X170819190Y-68860051D01*
G75*
G02*
X170819190Y-69213603I-176776J-176776D01*
G01*
X170359569Y-69673224D01*
G75*
G02*
X170006017Y-69673224I-176776J176776D01*
G01*
X169086776Y-68753983D01*
G75*
G02*
X169086776Y-68400431I176776J176776D01*
G01*
X169546397Y-67940810D01*
G75*
G02*
X169899949Y-67940810I176776J-176776D01*
G01*
G37*
G36*
G01*
X167813983Y-70026776D02*
X168733224Y-70946017D01*
G75*
G02*
X168733224Y-71299569I-176776J-176776D01*
G01*
X168273603Y-71759190D01*
G75*
G02*
X167920051Y-71759190I-176776J176776D01*
G01*
X167000810Y-70839949D01*
G75*
G02*
X167000810Y-70486397I176776J176776D01*
G01*
X167460431Y-70026776D01*
G75*
G02*
X167813983Y-70026776I176776J-176776D01*
G01*
G37*
%TD*%
%TO.C,C9*%
G36*
G01*
X168733224Y-91613983D02*
X167813983Y-92533224D01*
G75*
G02*
X167460431Y-92533224I-176776J176776D01*
G01*
X167000810Y-92073603D01*
G75*
G02*
X167000810Y-91720051I176776J176776D01*
G01*
X167920051Y-90800810D01*
G75*
G02*
X168273603Y-90800810I176776J-176776D01*
G01*
X168733224Y-91260431D01*
G75*
G02*
X168733224Y-91613983I-176776J-176776D01*
G01*
G37*
G36*
G01*
X170819190Y-93699949D02*
X169899949Y-94619190D01*
G75*
G02*
X169546397Y-94619190I-176776J176776D01*
G01*
X169086776Y-94159569D01*
G75*
G02*
X169086776Y-93806017I176776J176776D01*
G01*
X170006017Y-92886776D01*
G75*
G02*
X170359569Y-92886776I176776J-176776D01*
G01*
X170819190Y-93346397D01*
G75*
G02*
X170819190Y-93699949I-176776J-176776D01*
G01*
G37*
%TD*%
%TO.C,C13*%
G36*
G01*
X145060051Y-94619190D02*
X144140810Y-93699949D01*
G75*
G02*
X144140810Y-93346397I176776J176776D01*
G01*
X144600431Y-92886776D01*
G75*
G02*
X144953983Y-92886776I176776J-176776D01*
G01*
X145873224Y-93806017D01*
G75*
G02*
X145873224Y-94159569I-176776J-176776D01*
G01*
X145413603Y-94619190D01*
G75*
G02*
X145060051Y-94619190I-176776J176776D01*
G01*
G37*
G36*
G01*
X147146017Y-92533224D02*
X146226776Y-91613983D01*
G75*
G02*
X146226776Y-91260431I176776J176776D01*
G01*
X146686397Y-90800810D01*
G75*
G02*
X147039949Y-90800810I176776J-176776D01*
G01*
X147959190Y-91720051D01*
G75*
G02*
X147959190Y-92073603I-176776J-176776D01*
G01*
X147499569Y-92533224D01*
G75*
G02*
X147146017Y-92533224I-176776J176776D01*
G01*
G37*
%TD*%
%TO.C,C1*%
G36*
G01*
X146226776Y-70946017D02*
X147146017Y-70026776D01*
G75*
G02*
X147499569Y-70026776I176776J-176776D01*
G01*
X147959190Y-70486397D01*
G75*
G02*
X147959190Y-70839949I-176776J-176776D01*
G01*
X147039949Y-71759190D01*
G75*
G02*
X146686397Y-71759190I-176776J176776D01*
G01*
X146226776Y-71299569D01*
G75*
G02*
X146226776Y-70946017I176776J176776D01*
G01*
G37*
G36*
G01*
X144140810Y-68860051D02*
X145060051Y-67940810D01*
G75*
G02*
X145413603Y-67940810I176776J-176776D01*
G01*
X145873224Y-68400431D01*
G75*
G02*
X145873224Y-68753983I-176776J-176776D01*
G01*
X144953983Y-69673224D01*
G75*
G02*
X144600431Y-69673224I-176776J176776D01*
G01*
X144140810Y-69213603D01*
G75*
G02*
X144140810Y-68860051I176776J176776D01*
G01*
G37*
%TD*%
D10*
%TO.C,HSS15*%
X134620000Y-96520000D03*
%TD*%
%TO.C,HSS10*%
X134620000Y-83820000D03*
%TD*%
%TO.C,HSS9*%
X134620000Y-81280000D03*
%TD*%
%TO.C,HSS8*%
X134620000Y-78740000D03*
%TD*%
%TO.C,HSS3*%
X134620000Y-66040000D03*
%TD*%
%TO.C,HQ18*%
X142240000Y-104140000D03*
%TD*%
%TO.C,HQ0*%
X142240000Y-58420000D03*
%TD*%
%TO.C,HK18*%
X154940000Y-104140000D03*
%TD*%
%TO.C,HK0*%
X154940000Y-58420000D03*
%TD*%
%TO.C,HJ18*%
X157480000Y-104140000D03*
%TD*%
%TO.C,HJ0*%
X157480000Y-58420000D03*
%TD*%
%TO.C,HH18*%
X160020000Y-104140000D03*
%TD*%
%TO.C,HH0*%
X160020000Y-58420000D03*
%TD*%
%TO.C,HC18*%
X172720000Y-104140000D03*
%TD*%
%TO.C,HC0*%
X172720000Y-58420000D03*
%TD*%
%TO.C,HAA15*%
X180340000Y-96520000D03*
%TD*%
%TO.C,HAA10*%
X180340000Y-83820000D03*
%TD*%
%TO.C,HAA9*%
X180340000Y-81280000D03*
%TD*%
%TO.C,HAA8*%
X180340000Y-78740000D03*
%TD*%
%TO.C,HAA3*%
X180340000Y-66040000D03*
%TD*%
%TO.C,HR17*%
X139700000Y-101600000D03*
%TD*%
%TO.C,HR14*%
X139700000Y-93980000D03*
%TD*%
%TO.C,HR11*%
X139700000Y-86360000D03*
%TD*%
%TO.C,HR10*%
X139700000Y-83820000D03*
%TD*%
%TO.C,HR9*%
X139700000Y-81280000D03*
%TD*%
%TO.C,HR8*%
X139700000Y-78740000D03*
%TD*%
%TO.C,HR6*%
X139700000Y-73660000D03*
%TD*%
%TO.C,HR3*%
X139700000Y-66040000D03*
%TD*%
%TO.C,HP16*%
X144780000Y-99060000D03*
%TD*%
%TO.C,HM16*%
X149860000Y-99060000D03*
%TD*%
%TO.C,HM2*%
X149860000Y-63500000D03*
%TD*%
%TO.C,HL16*%
X152400000Y-99060000D03*
%TD*%
%TO.C,HK16*%
X154940000Y-99060000D03*
%TD*%
%TO.C,HK2*%
X154940000Y-63500000D03*
%TD*%
%TO.C,HH16*%
X160020000Y-99060000D03*
%TD*%
%TO.C,HG16*%
X162560000Y-99060000D03*
%TD*%
%TO.C,HG2*%
X162560000Y-63500000D03*
%TD*%
%TO.C,HE16*%
X167640000Y-99060000D03*
%TD*%
%TO.C,HE2*%
X167640000Y-63500000D03*
%TD*%
%TO.C,HC5*%
X172720000Y-71120000D03*
%TD*%
%TO.C,HC4*%
X172720000Y-68580000D03*
%TD*%
%TO.C,HB13*%
X175260000Y-91440000D03*
%TD*%
%TO.C,HB11*%
X175260000Y-86360000D03*
%TD*%
%TO.C,HB9*%
X175260000Y-81280000D03*
%TD*%
%TO.C,HB7*%
X175260000Y-76200000D03*
%TD*%
%TO.C,HS17*%
X137160000Y-101600000D03*
%TD*%
%TO.C,HS16*%
X137160000Y-99060000D03*
%TD*%
%TO.C,HS15*%
X137160000Y-96520000D03*
%TD*%
%TO.C,HS14*%
X137160000Y-93980000D03*
%TD*%
%TO.C,HS13*%
X137160000Y-91440000D03*
%TD*%
%TO.C,HS12*%
X137160000Y-88900000D03*
%TD*%
%TO.C,HS11*%
X137160000Y-86360000D03*
%TD*%
%TO.C,HS10*%
X137160000Y-83820000D03*
%TD*%
%TO.C,HS9*%
X137160000Y-81280000D03*
%TD*%
%TO.C,HS8*%
X137160000Y-78740000D03*
%TD*%
%TO.C,HS7*%
X137160000Y-76200000D03*
%TD*%
%TO.C,HS6*%
X137160000Y-73660000D03*
%TD*%
%TO.C,HS5*%
X137160000Y-71120000D03*
%TD*%
%TO.C,HS4*%
X137160000Y-68580000D03*
%TD*%
%TO.C,HS3*%
X137160000Y-66040000D03*
%TD*%
%TO.C,HS2*%
X137160000Y-63500000D03*
%TD*%
%TO.C,HS1*%
X137160000Y-60960000D03*
%TD*%
%TO.C,HR16*%
X139700000Y-99060000D03*
%TD*%
%TO.C,HR15*%
X139700000Y-96520000D03*
%TD*%
%TO.C,HR13*%
X139700000Y-91440000D03*
%TD*%
%TO.C,HR12*%
X139700000Y-88900000D03*
%TD*%
%TO.C,HR7*%
X139700000Y-76200000D03*
%TD*%
%TO.C,HR5*%
X139700000Y-71120000D03*
%TD*%
%TO.C,HR4*%
X139700000Y-68580000D03*
%TD*%
%TO.C,HR2*%
X139700000Y-63500000D03*
%TD*%
%TO.C,HR1*%
X139700000Y-60960000D03*
%TD*%
%TO.C,HQ17*%
X142240000Y-101600000D03*
%TD*%
%TO.C,HQ16*%
X142240000Y-99060000D03*
%TD*%
%TO.C,HQ15*%
X142240000Y-96520000D03*
%TD*%
%TO.C,HQ14*%
X142240000Y-93980000D03*
%TD*%
%TO.C,HQ13*%
X142240000Y-91440000D03*
%TD*%
%TO.C,HQ12*%
X142240000Y-88900000D03*
%TD*%
%TO.C,HQ11*%
X142240000Y-86360000D03*
%TD*%
%TO.C,HQ10*%
X142240000Y-83820000D03*
%TD*%
%TO.C,HQ9*%
X142240000Y-81280000D03*
%TD*%
%TO.C,HQ8*%
X142240000Y-78740000D03*
%TD*%
%TO.C,HQ7*%
X142240000Y-76200000D03*
%TD*%
%TO.C,HQ6*%
X142240000Y-73660000D03*
%TD*%
%TO.C,HQ5*%
X142240000Y-71120000D03*
%TD*%
%TO.C,HQ4*%
X142240000Y-68580000D03*
%TD*%
%TO.C,HQ3*%
X142240000Y-66040000D03*
%TD*%
%TO.C,HQ2*%
X142240000Y-63500000D03*
%TD*%
%TO.C,HQ1*%
X142240000Y-60960000D03*
%TD*%
%TO.C,HP17*%
X144780000Y-101600000D03*
%TD*%
%TO.C,HP15*%
X144780000Y-96520000D03*
%TD*%
%TO.C,HP3*%
X144780000Y-66040000D03*
%TD*%
%TO.C,HP2*%
X144780000Y-63500000D03*
%TD*%
%TO.C,HP1*%
X144780000Y-60960000D03*
%TD*%
%TO.C,HN17*%
X147320000Y-101600000D03*
%TD*%
%TO.C,HN16*%
X147320000Y-99060000D03*
%TD*%
%TO.C,HN15*%
X147320000Y-96520000D03*
%TD*%
%TO.C,HN3*%
X147320000Y-66040000D03*
%TD*%
%TO.C,HN2*%
X147320000Y-63500000D03*
%TD*%
%TO.C,HN1*%
X147320000Y-60960000D03*
%TD*%
%TO.C,HM17*%
X149860000Y-101600000D03*
%TD*%
%TO.C,HM15*%
X149860000Y-96520000D03*
%TD*%
%TO.C,HM3*%
X149860000Y-66040000D03*
%TD*%
%TO.C,HM1*%
X149860000Y-60960000D03*
%TD*%
%TO.C,HL17*%
X152400000Y-101600000D03*
%TD*%
%TO.C,HL15*%
X152400000Y-96520000D03*
%TD*%
%TO.C,HL3*%
X152400000Y-66040000D03*
%TD*%
%TO.C,HL2*%
X152400000Y-63500000D03*
%TD*%
%TO.C,HL1*%
X152400000Y-60960000D03*
%TD*%
%TO.C,HK17*%
X154940000Y-101600000D03*
%TD*%
%TO.C,HK15*%
X154940000Y-96520000D03*
%TD*%
%TO.C,HK3*%
X154940000Y-66040000D03*
%TD*%
%TO.C,HK1*%
X154940000Y-60960000D03*
%TD*%
%TO.C,HJ17*%
X157480000Y-101600000D03*
%TD*%
%TO.C,HJ16*%
X157480000Y-99060000D03*
%TD*%
%TO.C,HJ15*%
X157480000Y-96520000D03*
%TD*%
%TO.C,HJ3*%
X157480000Y-66040000D03*
%TD*%
%TO.C,HJ2*%
X157480000Y-63500000D03*
%TD*%
%TO.C,HJ1*%
X157480000Y-60960000D03*
%TD*%
%TO.C,HH17*%
X160020000Y-101600000D03*
%TD*%
%TO.C,HH15*%
X160020000Y-96520000D03*
%TD*%
%TO.C,HH3*%
X160020000Y-66040000D03*
%TD*%
%TO.C,HH2*%
X160020000Y-63500000D03*
%TD*%
%TO.C,HH1*%
X160020000Y-60960000D03*
%TD*%
%TO.C,HG17*%
X162560000Y-101600000D03*
%TD*%
%TO.C,HG15*%
X162560000Y-96520000D03*
%TD*%
%TO.C,HG3*%
X162560000Y-66040000D03*
%TD*%
%TO.C,HG1*%
X162560000Y-60960000D03*
%TD*%
%TO.C,HF17*%
X165100000Y-101600000D03*
%TD*%
%TO.C,HF16*%
X165100000Y-99060000D03*
%TD*%
%TO.C,HF15*%
X165100000Y-96520000D03*
%TD*%
%TO.C,HF3*%
X165100000Y-66040000D03*
%TD*%
%TO.C,HF2*%
X165100000Y-63500000D03*
%TD*%
%TO.C,HF1*%
X165100000Y-60960000D03*
%TD*%
%TO.C,HE17*%
X167640000Y-101600000D03*
%TD*%
%TO.C,HE15*%
X167640000Y-96520000D03*
%TD*%
%TO.C,HE3*%
X167640000Y-66040000D03*
%TD*%
%TO.C,HE1*%
X167640000Y-60960000D03*
%TD*%
%TO.C,HD17*%
X170180000Y-101600000D03*
%TD*%
%TO.C,HD16*%
X170180000Y-99060000D03*
%TD*%
%TO.C,HD15*%
X170180000Y-96520000D03*
%TD*%
%TO.C,HD3*%
X170180000Y-66040000D03*
%TD*%
%TO.C,HD2*%
X170180000Y-63500000D03*
%TD*%
%TO.C,HD1*%
X170180000Y-60960000D03*
%TD*%
%TO.C,HC17*%
X172720000Y-101600000D03*
%TD*%
%TO.C,HC16*%
X172720000Y-99060000D03*
%TD*%
%TO.C,HC15*%
X172720000Y-96520000D03*
%TD*%
%TO.C,HC14*%
X172720000Y-93980000D03*
%TD*%
%TO.C,HC13*%
X172720000Y-91440000D03*
%TD*%
%TO.C,HC12*%
X172720000Y-88900000D03*
%TD*%
%TO.C,HC11*%
X172720000Y-86360000D03*
%TD*%
%TO.C,HC10*%
X172720000Y-83820000D03*
%TD*%
%TO.C,HC9*%
X172720000Y-81280000D03*
%TD*%
%TO.C,HC8*%
X172720000Y-78740000D03*
%TD*%
%TO.C,HC7*%
X172720000Y-76200000D03*
%TD*%
%TO.C,HC6*%
X172720000Y-73660000D03*
%TD*%
%TO.C,HC3*%
X172720000Y-66040000D03*
%TD*%
%TO.C,HC2*%
X172720000Y-63500000D03*
%TD*%
%TO.C,HC1*%
X172720000Y-60960000D03*
%TD*%
%TO.C,HB17*%
X175260000Y-101600000D03*
%TD*%
%TO.C,HB16*%
X175260000Y-99060000D03*
%TD*%
%TO.C,HB15*%
X175260000Y-96520000D03*
%TD*%
%TO.C,HB14*%
X175260000Y-93980000D03*
%TD*%
%TO.C,HB12*%
X175260000Y-88900000D03*
%TD*%
%TO.C,HB10*%
X175260000Y-83820000D03*
%TD*%
%TO.C,HB8*%
X175260000Y-78740000D03*
%TD*%
%TO.C,HB6*%
X175260000Y-73660000D03*
%TD*%
%TO.C,HB5*%
X175260000Y-71120000D03*
%TD*%
%TO.C,HB4*%
X175260000Y-68580000D03*
%TD*%
%TO.C,HB3*%
X175260000Y-66040000D03*
%TD*%
%TO.C,HB2*%
X175260000Y-63500000D03*
%TD*%
%TO.C,HB1*%
X175260000Y-60960000D03*
%TD*%
%TO.C,HA17*%
X177800000Y-101600000D03*
%TD*%
%TO.C,HA16*%
X177800000Y-99060000D03*
%TD*%
%TO.C,HA15*%
X177800000Y-96520000D03*
%TD*%
%TO.C,HA14*%
X177800000Y-93980000D03*
%TD*%
%TO.C,HA13*%
X177800000Y-91440000D03*
%TD*%
%TO.C,HA12*%
X177800000Y-88900000D03*
%TD*%
%TO.C,HA11*%
X177800000Y-86360000D03*
%TD*%
%TO.C,HA10*%
X177800000Y-83820000D03*
%TD*%
%TO.C,HA9*%
X177800000Y-81280000D03*
%TD*%
%TO.C,HA8*%
X177800000Y-78740000D03*
%TD*%
%TO.C,HA7*%
X177800000Y-76200000D03*
%TD*%
%TO.C,HA6*%
X177800000Y-73660000D03*
%TD*%
%TO.C,HA5*%
X177800000Y-71120000D03*
%TD*%
%TO.C,HA4*%
X177800000Y-68580000D03*
%TD*%
%TO.C,HA3*%
X177800000Y-66040000D03*
%TD*%
%TO.C,HA2*%
X177800000Y-63500000D03*
%TD*%
%TO.C,HA1*%
X177800000Y-60960000D03*
%TD*%
M02*
