%TF.GenerationSoftware,KiCad,Pcbnew,(5.1.9)-1*%
%TF.CreationDate,2021-08-17T10:41:51+08:00*%
%TF.ProjectId,Interposer486_3v,496e7465-7270-46f7-9365-723438365f33,rev?*%
%TF.SameCoordinates,Original*%
%TF.FileFunction,Legend,Bot*%
%TF.FilePolarity,Positive*%
%FSLAX46Y46*%
G04 Gerber Fmt 4.6, Leading zero omitted, Abs format (unit mm)*
G04 Created by KiCad (PCBNEW (5.1.9)-1) date 2021-08-17 10:41:51*
%MOMM*%
%LPD*%
G01*
G04 APERTURE LIST*
%ADD10C,0.150000*%
%ADD11C,0.450000*%
%ADD12C,0.120000*%
%ADD13C,0.300000*%
G04 APERTURE END LIST*
D10*
X173170476Y-106117380D02*
X173170476Y-105117380D01*
X172741904Y-106117380D02*
X172741904Y-105593571D01*
X172789523Y-105498333D01*
X172884761Y-105450714D01*
X173027619Y-105450714D01*
X173122857Y-105498333D01*
X173170476Y-105545952D01*
X172408571Y-105450714D02*
X172027619Y-105450714D01*
X172265714Y-105117380D02*
X172265714Y-105974523D01*
X172218095Y-106069761D01*
X172122857Y-106117380D01*
X172027619Y-106117380D01*
X171837142Y-105450714D02*
X171456190Y-105450714D01*
X171694285Y-105117380D02*
X171694285Y-105974523D01*
X171646666Y-106069761D01*
X171551428Y-106117380D01*
X171456190Y-106117380D01*
X171122857Y-105450714D02*
X171122857Y-106450714D01*
X171122857Y-105498333D02*
X171027619Y-105450714D01*
X170837142Y-105450714D01*
X170741904Y-105498333D01*
X170694285Y-105545952D01*
X170646666Y-105641190D01*
X170646666Y-105926904D01*
X170694285Y-106022142D01*
X170741904Y-106069761D01*
X170837142Y-106117380D01*
X171027619Y-106117380D01*
X171122857Y-106069761D01*
X170265714Y-106069761D02*
X170170476Y-106117380D01*
X169980000Y-106117380D01*
X169884761Y-106069761D01*
X169837142Y-105974523D01*
X169837142Y-105926904D01*
X169884761Y-105831666D01*
X169980000Y-105784047D01*
X170122857Y-105784047D01*
X170218095Y-105736428D01*
X170265714Y-105641190D01*
X170265714Y-105593571D01*
X170218095Y-105498333D01*
X170122857Y-105450714D01*
X169980000Y-105450714D01*
X169884761Y-105498333D01*
X169408571Y-106022142D02*
X169360952Y-106069761D01*
X169408571Y-106117380D01*
X169456190Y-106069761D01*
X169408571Y-106022142D01*
X169408571Y-106117380D01*
X169408571Y-105498333D02*
X169360952Y-105545952D01*
X169408571Y-105593571D01*
X169456190Y-105545952D01*
X169408571Y-105498333D01*
X169408571Y-105593571D01*
X168218095Y-105069761D02*
X169075238Y-106355476D01*
X167170476Y-105069761D02*
X168027619Y-106355476D01*
X166408571Y-105450714D02*
X166408571Y-106260238D01*
X166456190Y-106355476D01*
X166503809Y-106403095D01*
X166599047Y-106450714D01*
X166741904Y-106450714D01*
X166837142Y-106403095D01*
X166408571Y-106069761D02*
X166503809Y-106117380D01*
X166694285Y-106117380D01*
X166789523Y-106069761D01*
X166837142Y-106022142D01*
X166884761Y-105926904D01*
X166884761Y-105641190D01*
X166837142Y-105545952D01*
X166789523Y-105498333D01*
X166694285Y-105450714D01*
X166503809Y-105450714D01*
X166408571Y-105498333D01*
X165932380Y-106117380D02*
X165932380Y-105450714D01*
X165932380Y-105117380D02*
X165980000Y-105165000D01*
X165932380Y-105212619D01*
X165884761Y-105165000D01*
X165932380Y-105117380D01*
X165932380Y-105212619D01*
X165599047Y-105450714D02*
X165218095Y-105450714D01*
X165456190Y-105117380D02*
X165456190Y-105974523D01*
X165408571Y-106069761D01*
X165313333Y-106117380D01*
X165218095Y-106117380D01*
X164884761Y-106117380D02*
X164884761Y-105117380D01*
X164456190Y-106117380D02*
X164456190Y-105593571D01*
X164503809Y-105498333D01*
X164599047Y-105450714D01*
X164741904Y-105450714D01*
X164837142Y-105498333D01*
X164884761Y-105545952D01*
X163551428Y-105450714D02*
X163551428Y-106117380D01*
X163980000Y-105450714D02*
X163980000Y-105974523D01*
X163932380Y-106069761D01*
X163837142Y-106117380D01*
X163694285Y-106117380D01*
X163599047Y-106069761D01*
X163551428Y-106022142D01*
X163075238Y-106117380D02*
X163075238Y-105117380D01*
X163075238Y-105498333D02*
X162980000Y-105450714D01*
X162789523Y-105450714D01*
X162694285Y-105498333D01*
X162646666Y-105545952D01*
X162599047Y-105641190D01*
X162599047Y-105926904D01*
X162646666Y-106022142D01*
X162694285Y-106069761D01*
X162789523Y-106117380D01*
X162980000Y-106117380D01*
X163075238Y-106069761D01*
X162170476Y-106022142D02*
X162122857Y-106069761D01*
X162170476Y-106117380D01*
X162218095Y-106069761D01*
X162170476Y-106022142D01*
X162170476Y-106117380D01*
X161265714Y-106069761D02*
X161360952Y-106117380D01*
X161551428Y-106117380D01*
X161646666Y-106069761D01*
X161694285Y-106022142D01*
X161741904Y-105926904D01*
X161741904Y-105641190D01*
X161694285Y-105545952D01*
X161646666Y-105498333D01*
X161551428Y-105450714D01*
X161360952Y-105450714D01*
X161265714Y-105498333D01*
X160694285Y-106117380D02*
X160789523Y-106069761D01*
X160837142Y-106022142D01*
X160884761Y-105926904D01*
X160884761Y-105641190D01*
X160837142Y-105545952D01*
X160789523Y-105498333D01*
X160694285Y-105450714D01*
X160551428Y-105450714D01*
X160456190Y-105498333D01*
X160408571Y-105545952D01*
X160360952Y-105641190D01*
X160360952Y-105926904D01*
X160408571Y-106022142D01*
X160456190Y-106069761D01*
X160551428Y-106117380D01*
X160694285Y-106117380D01*
X159932380Y-106117380D02*
X159932380Y-105450714D01*
X159932380Y-105545952D02*
X159884761Y-105498333D01*
X159789523Y-105450714D01*
X159646666Y-105450714D01*
X159551428Y-105498333D01*
X159503809Y-105593571D01*
X159503809Y-106117380D01*
X159503809Y-105593571D02*
X159456190Y-105498333D01*
X159360952Y-105450714D01*
X159218095Y-105450714D01*
X159122857Y-105498333D01*
X159075238Y-105593571D01*
X159075238Y-106117380D01*
X157884761Y-105069761D02*
X158741904Y-106355476D01*
X157265714Y-105117380D02*
X157265714Y-105831666D01*
X157313333Y-105974523D01*
X157408571Y-106069761D01*
X157551428Y-106117380D01*
X157646666Y-106117380D01*
X156360952Y-106117380D02*
X156360952Y-105593571D01*
X156408571Y-105498333D01*
X156503809Y-105450714D01*
X156694285Y-105450714D01*
X156789523Y-105498333D01*
X156360952Y-106069761D02*
X156456190Y-106117380D01*
X156694285Y-106117380D01*
X156789523Y-106069761D01*
X156837142Y-105974523D01*
X156837142Y-105879285D01*
X156789523Y-105784047D01*
X156694285Y-105736428D01*
X156456190Y-105736428D01*
X156360952Y-105688809D01*
X155980000Y-105450714D02*
X155741904Y-106117380D01*
X155503809Y-105450714D02*
X155741904Y-106117380D01*
X155837142Y-106355476D01*
X155884761Y-106403095D01*
X155980000Y-106450714D01*
X154741904Y-106069761D02*
X154837142Y-106117380D01*
X155027619Y-106117380D01*
X155122857Y-106069761D01*
X155170476Y-105974523D01*
X155170476Y-105593571D01*
X155122857Y-105498333D01*
X155027619Y-105450714D01*
X154837142Y-105450714D01*
X154741904Y-105498333D01*
X154694285Y-105593571D01*
X154694285Y-105688809D01*
X155170476Y-105784047D01*
X154313333Y-106069761D02*
X154218095Y-106117380D01*
X154027619Y-106117380D01*
X153932380Y-106069761D01*
X153884761Y-105974523D01*
X153884761Y-105926904D01*
X153932380Y-105831666D01*
X154027619Y-105784047D01*
X154170476Y-105784047D01*
X154265714Y-105736428D01*
X154313333Y-105641190D01*
X154313333Y-105593571D01*
X154265714Y-105498333D01*
X154170476Y-105450714D01*
X154027619Y-105450714D01*
X153932380Y-105498333D01*
X153313333Y-106117380D02*
X153408571Y-106069761D01*
X153456190Y-106022142D01*
X153503809Y-105926904D01*
X153503809Y-105641190D01*
X153456190Y-105545952D01*
X153408571Y-105498333D01*
X153313333Y-105450714D01*
X153170476Y-105450714D01*
X153075238Y-105498333D01*
X153027619Y-105545952D01*
X152980000Y-105641190D01*
X152980000Y-105926904D01*
X153027619Y-106022142D01*
X153075238Y-106069761D01*
X153170476Y-106117380D01*
X153313333Y-106117380D01*
X152551428Y-105450714D02*
X152551428Y-106117380D01*
X152551428Y-105545952D02*
X152503809Y-105498333D01*
X152408571Y-105450714D01*
X152265714Y-105450714D01*
X152170476Y-105498333D01*
X152122857Y-105593571D01*
X152122857Y-106117380D01*
X151170476Y-106117380D02*
X151646666Y-106117380D01*
X151646666Y-105117380D01*
X150884761Y-106069761D02*
X150741904Y-106117380D01*
X150503809Y-106117380D01*
X150408571Y-106069761D01*
X150360952Y-106022142D01*
X150313333Y-105926904D01*
X150313333Y-105831666D01*
X150360952Y-105736428D01*
X150408571Y-105688809D01*
X150503809Y-105641190D01*
X150694285Y-105593571D01*
X150789523Y-105545952D01*
X150837142Y-105498333D01*
X150884761Y-105403095D01*
X150884761Y-105307857D01*
X150837142Y-105212619D01*
X150789523Y-105165000D01*
X150694285Y-105117380D01*
X150456190Y-105117380D01*
X150313333Y-105165000D01*
X149170476Y-105069761D02*
X150027619Y-106355476D01*
X148837142Y-106117380D02*
X148837142Y-105117380D01*
X148360952Y-105450714D02*
X148360952Y-106117380D01*
X148360952Y-105545952D02*
X148313333Y-105498333D01*
X148218095Y-105450714D01*
X148075238Y-105450714D01*
X147980000Y-105498333D01*
X147932380Y-105593571D01*
X147932380Y-106117380D01*
X147599047Y-105450714D02*
X147218095Y-105450714D01*
X147456190Y-105117380D02*
X147456190Y-105974523D01*
X147408571Y-106069761D01*
X147313333Y-106117380D01*
X147218095Y-106117380D01*
X146503809Y-106069761D02*
X146599047Y-106117380D01*
X146789523Y-106117380D01*
X146884761Y-106069761D01*
X146932380Y-105974523D01*
X146932380Y-105593571D01*
X146884761Y-105498333D01*
X146789523Y-105450714D01*
X146599047Y-105450714D01*
X146503809Y-105498333D01*
X146456190Y-105593571D01*
X146456190Y-105688809D01*
X146932380Y-105784047D01*
X146027619Y-106117380D02*
X146027619Y-105450714D01*
X146027619Y-105641190D02*
X145980000Y-105545952D01*
X145932380Y-105498333D01*
X145837142Y-105450714D01*
X145741904Y-105450714D01*
X145408571Y-105450714D02*
X145408571Y-106450714D01*
X145408571Y-105498333D02*
X145313333Y-105450714D01*
X145122857Y-105450714D01*
X145027619Y-105498333D01*
X144980000Y-105545952D01*
X144932380Y-105641190D01*
X144932380Y-105926904D01*
X144980000Y-106022142D01*
X145027619Y-106069761D01*
X145122857Y-106117380D01*
X145313333Y-106117380D01*
X145408571Y-106069761D01*
X144360952Y-106117380D02*
X144456190Y-106069761D01*
X144503809Y-106022142D01*
X144551428Y-105926904D01*
X144551428Y-105641190D01*
X144503809Y-105545952D01*
X144456190Y-105498333D01*
X144360952Y-105450714D01*
X144218095Y-105450714D01*
X144122857Y-105498333D01*
X144075238Y-105545952D01*
X144027619Y-105641190D01*
X144027619Y-105926904D01*
X144075238Y-106022142D01*
X144122857Y-106069761D01*
X144218095Y-106117380D01*
X144360952Y-106117380D01*
X143646666Y-106069761D02*
X143551428Y-106117380D01*
X143360952Y-106117380D01*
X143265714Y-106069761D01*
X143218095Y-105974523D01*
X143218095Y-105926904D01*
X143265714Y-105831666D01*
X143360952Y-105784047D01*
X143503809Y-105784047D01*
X143599047Y-105736428D01*
X143646666Y-105641190D01*
X143646666Y-105593571D01*
X143599047Y-105498333D01*
X143503809Y-105450714D01*
X143360952Y-105450714D01*
X143265714Y-105498333D01*
X142408571Y-106069761D02*
X142503809Y-106117380D01*
X142694285Y-106117380D01*
X142789523Y-106069761D01*
X142837142Y-105974523D01*
X142837142Y-105593571D01*
X142789523Y-105498333D01*
X142694285Y-105450714D01*
X142503809Y-105450714D01*
X142408571Y-105498333D01*
X142360952Y-105593571D01*
X142360952Y-105688809D01*
X142837142Y-105784047D01*
X141932380Y-106117380D02*
X141932380Y-105450714D01*
X141932380Y-105641190D02*
X141884761Y-105545952D01*
X141837142Y-105498333D01*
X141741904Y-105450714D01*
X141646666Y-105450714D01*
X179837142Y-107767380D02*
X179837142Y-106767380D01*
X179456190Y-106767380D01*
X179360952Y-106815000D01*
X179313333Y-106862619D01*
X179265714Y-106957857D01*
X179265714Y-107100714D01*
X179313333Y-107195952D01*
X179360952Y-107243571D01*
X179456190Y-107291190D01*
X179837142Y-107291190D01*
X178694285Y-107767380D02*
X178789523Y-107719761D01*
X178837142Y-107624523D01*
X178837142Y-106767380D01*
X177884761Y-107767380D02*
X177884761Y-107243571D01*
X177932380Y-107148333D01*
X178027619Y-107100714D01*
X178218095Y-107100714D01*
X178313333Y-107148333D01*
X177884761Y-107719761D02*
X177980000Y-107767380D01*
X178218095Y-107767380D01*
X178313333Y-107719761D01*
X178360952Y-107624523D01*
X178360952Y-107529285D01*
X178313333Y-107434047D01*
X178218095Y-107386428D01*
X177980000Y-107386428D01*
X177884761Y-107338809D01*
X176980000Y-107719761D02*
X177075238Y-107767380D01*
X177265714Y-107767380D01*
X177360952Y-107719761D01*
X177408571Y-107672142D01*
X177456190Y-107576904D01*
X177456190Y-107291190D01*
X177408571Y-107195952D01*
X177360952Y-107148333D01*
X177265714Y-107100714D01*
X177075238Y-107100714D01*
X176980000Y-107148333D01*
X176170476Y-107719761D02*
X176265714Y-107767380D01*
X176456190Y-107767380D01*
X176551428Y-107719761D01*
X176599047Y-107624523D01*
X176599047Y-107243571D01*
X176551428Y-107148333D01*
X176456190Y-107100714D01*
X176265714Y-107100714D01*
X176170476Y-107148333D01*
X176122857Y-107243571D01*
X176122857Y-107338809D01*
X176599047Y-107434047D01*
X175265714Y-107767380D02*
X175265714Y-106767380D01*
X175265714Y-107719761D02*
X175360952Y-107767380D01*
X175551428Y-107767380D01*
X175646666Y-107719761D01*
X175694285Y-107672142D01*
X175741904Y-107576904D01*
X175741904Y-107291190D01*
X175694285Y-107195952D01*
X175646666Y-107148333D01*
X175551428Y-107100714D01*
X175360952Y-107100714D01*
X175265714Y-107148333D01*
X174027619Y-107767380D02*
X174027619Y-107100714D01*
X174027619Y-106767380D02*
X174075238Y-106815000D01*
X174027619Y-106862619D01*
X173980000Y-106815000D01*
X174027619Y-106767380D01*
X174027619Y-106862619D01*
X173551428Y-107100714D02*
X173551428Y-107767380D01*
X173551428Y-107195952D02*
X173503809Y-107148333D01*
X173408571Y-107100714D01*
X173265714Y-107100714D01*
X173170476Y-107148333D01*
X173122857Y-107243571D01*
X173122857Y-107767380D01*
X172789523Y-107100714D02*
X172408571Y-107100714D01*
X172646666Y-106767380D02*
X172646666Y-107624523D01*
X172599047Y-107719761D01*
X172503809Y-107767380D01*
X172408571Y-107767380D01*
X171932380Y-107767380D02*
X172027619Y-107719761D01*
X172075238Y-107672142D01*
X172122857Y-107576904D01*
X172122857Y-107291190D01*
X172075238Y-107195952D01*
X172027619Y-107148333D01*
X171932380Y-107100714D01*
X171789523Y-107100714D01*
X171694285Y-107148333D01*
X171646666Y-107195952D01*
X171599047Y-107291190D01*
X171599047Y-107576904D01*
X171646666Y-107672142D01*
X171694285Y-107719761D01*
X171789523Y-107767380D01*
X171932380Y-107767380D01*
X170551428Y-107100714D02*
X170170476Y-107100714D01*
X170408571Y-106767380D02*
X170408571Y-107624523D01*
X170360952Y-107719761D01*
X170265714Y-107767380D01*
X170170476Y-107767380D01*
X169837142Y-107767380D02*
X169837142Y-106767380D01*
X169408571Y-107767380D02*
X169408571Y-107243571D01*
X169456190Y-107148333D01*
X169551428Y-107100714D01*
X169694285Y-107100714D01*
X169789523Y-107148333D01*
X169837142Y-107195952D01*
X168551428Y-107719761D02*
X168646666Y-107767380D01*
X168837142Y-107767380D01*
X168932380Y-107719761D01*
X168980000Y-107624523D01*
X168980000Y-107243571D01*
X168932380Y-107148333D01*
X168837142Y-107100714D01*
X168646666Y-107100714D01*
X168551428Y-107148333D01*
X168503809Y-107243571D01*
X168503809Y-107338809D01*
X168980000Y-107434047D01*
X167313333Y-107767380D02*
X167313333Y-106767380D01*
X166932380Y-106767380D01*
X166837142Y-106815000D01*
X166789523Y-106862619D01*
X166741904Y-106957857D01*
X166741904Y-107100714D01*
X166789523Y-107195952D01*
X166837142Y-107243571D01*
X166932380Y-107291190D01*
X167313333Y-107291190D01*
X165884761Y-107100714D02*
X165884761Y-107767380D01*
X166313333Y-107100714D02*
X166313333Y-107624523D01*
X166265714Y-107719761D01*
X166170476Y-107767380D01*
X166027619Y-107767380D01*
X165932380Y-107719761D01*
X165884761Y-107672142D01*
X165408571Y-107767380D02*
X165408571Y-106767380D01*
X165408571Y-107148333D02*
X165313333Y-107100714D01*
X165122857Y-107100714D01*
X165027619Y-107148333D01*
X164980000Y-107195952D01*
X164932380Y-107291190D01*
X164932380Y-107576904D01*
X164980000Y-107672142D01*
X165027619Y-107719761D01*
X165122857Y-107767380D01*
X165313333Y-107767380D01*
X165408571Y-107719761D01*
X164360952Y-107767380D02*
X164456190Y-107719761D01*
X164503809Y-107624523D01*
X164503809Y-106767380D01*
X163980000Y-107767380D02*
X163980000Y-107100714D01*
X163980000Y-106767380D02*
X164027619Y-106815000D01*
X163980000Y-106862619D01*
X163932380Y-106815000D01*
X163980000Y-106767380D01*
X163980000Y-106862619D01*
X163075238Y-107719761D02*
X163170476Y-107767380D01*
X163360952Y-107767380D01*
X163456190Y-107719761D01*
X163503809Y-107672142D01*
X163551428Y-107576904D01*
X163551428Y-107291190D01*
X163503809Y-107195952D01*
X163456190Y-107148333D01*
X163360952Y-107100714D01*
X163170476Y-107100714D01*
X163075238Y-107148333D01*
X161884761Y-107767380D02*
X161884761Y-106767380D01*
X161646666Y-106767380D01*
X161503809Y-106815000D01*
X161408571Y-106910238D01*
X161360952Y-107005476D01*
X161313333Y-107195952D01*
X161313333Y-107338809D01*
X161360952Y-107529285D01*
X161408571Y-107624523D01*
X161503809Y-107719761D01*
X161646666Y-107767380D01*
X161884761Y-107767380D01*
X160741904Y-107767380D02*
X160837142Y-107719761D01*
X160884761Y-107672142D01*
X160932380Y-107576904D01*
X160932380Y-107291190D01*
X160884761Y-107195952D01*
X160837142Y-107148333D01*
X160741904Y-107100714D01*
X160599047Y-107100714D01*
X160503809Y-107148333D01*
X160456190Y-107195952D01*
X160408571Y-107291190D01*
X160408571Y-107576904D01*
X160456190Y-107672142D01*
X160503809Y-107719761D01*
X160599047Y-107767380D01*
X160741904Y-107767380D01*
X159980000Y-107767380D02*
X159980000Y-107100714D01*
X159980000Y-107195952D02*
X159932380Y-107148333D01*
X159837142Y-107100714D01*
X159694285Y-107100714D01*
X159599047Y-107148333D01*
X159551428Y-107243571D01*
X159551428Y-107767380D01*
X159551428Y-107243571D02*
X159503809Y-107148333D01*
X159408571Y-107100714D01*
X159265714Y-107100714D01*
X159170476Y-107148333D01*
X159122857Y-107243571D01*
X159122857Y-107767380D01*
X158218095Y-107767380D02*
X158218095Y-107243571D01*
X158265714Y-107148333D01*
X158360952Y-107100714D01*
X158551428Y-107100714D01*
X158646666Y-107148333D01*
X158218095Y-107719761D02*
X158313333Y-107767380D01*
X158551428Y-107767380D01*
X158646666Y-107719761D01*
X158694285Y-107624523D01*
X158694285Y-107529285D01*
X158646666Y-107434047D01*
X158551428Y-107386428D01*
X158313333Y-107386428D01*
X158218095Y-107338809D01*
X157741904Y-107767380D02*
X157741904Y-107100714D01*
X157741904Y-106767380D02*
X157789523Y-106815000D01*
X157741904Y-106862619D01*
X157694285Y-106815000D01*
X157741904Y-106767380D01*
X157741904Y-106862619D01*
X157265714Y-107100714D02*
X157265714Y-107767380D01*
X157265714Y-107195952D02*
X157218095Y-107148333D01*
X157122857Y-107100714D01*
X156980000Y-107100714D01*
X156884761Y-107148333D01*
X156837142Y-107243571D01*
X156837142Y-107767380D01*
X156360952Y-107672142D02*
X156313333Y-107719761D01*
X156360952Y-107767380D01*
X156408571Y-107719761D01*
X156360952Y-107672142D01*
X156360952Y-107767380D01*
X155122857Y-106767380D02*
X155122857Y-107576904D01*
X155075238Y-107672142D01*
X155027619Y-107719761D01*
X154932380Y-107767380D01*
X154741904Y-107767380D01*
X154646666Y-107719761D01*
X154599047Y-107672142D01*
X154551428Y-107576904D01*
X154551428Y-106767380D01*
X154122857Y-107719761D02*
X154027619Y-107767380D01*
X153837142Y-107767380D01*
X153741904Y-107719761D01*
X153694285Y-107624523D01*
X153694285Y-107576904D01*
X153741904Y-107481666D01*
X153837142Y-107434047D01*
X153980000Y-107434047D01*
X154075238Y-107386428D01*
X154122857Y-107291190D01*
X154122857Y-107243571D01*
X154075238Y-107148333D01*
X153980000Y-107100714D01*
X153837142Y-107100714D01*
X153741904Y-107148333D01*
X152884761Y-107719761D02*
X152980000Y-107767380D01*
X153170476Y-107767380D01*
X153265714Y-107719761D01*
X153313333Y-107624523D01*
X153313333Y-107243571D01*
X153265714Y-107148333D01*
X153170476Y-107100714D01*
X152980000Y-107100714D01*
X152884761Y-107148333D01*
X152837142Y-107243571D01*
X152837142Y-107338809D01*
X153313333Y-107434047D01*
X151789523Y-107100714D02*
X151408571Y-107100714D01*
X151646666Y-107767380D02*
X151646666Y-106910238D01*
X151599047Y-106815000D01*
X151503809Y-106767380D01*
X151408571Y-106767380D01*
X151075238Y-107767380D02*
X151075238Y-107100714D01*
X151075238Y-107291190D02*
X151027619Y-107195952D01*
X150980000Y-107148333D01*
X150884761Y-107100714D01*
X150789523Y-107100714D01*
X150075238Y-107719761D02*
X150170476Y-107767380D01*
X150360952Y-107767380D01*
X150456190Y-107719761D01*
X150503809Y-107624523D01*
X150503809Y-107243571D01*
X150456190Y-107148333D01*
X150360952Y-107100714D01*
X150170476Y-107100714D01*
X150075238Y-107148333D01*
X150027619Y-107243571D01*
X150027619Y-107338809D01*
X150503809Y-107434047D01*
X149218095Y-107719761D02*
X149313333Y-107767380D01*
X149503809Y-107767380D01*
X149599047Y-107719761D01*
X149646666Y-107624523D01*
X149646666Y-107243571D01*
X149599047Y-107148333D01*
X149503809Y-107100714D01*
X149313333Y-107100714D01*
X149218095Y-107148333D01*
X149170476Y-107243571D01*
X149170476Y-107338809D01*
X149646666Y-107434047D01*
X148599047Y-107767380D02*
X148694285Y-107719761D01*
X148741904Y-107624523D01*
X148741904Y-106767380D01*
X148313333Y-107100714D02*
X148075238Y-107767380D01*
X147837142Y-107100714D02*
X148075238Y-107767380D01*
X148170476Y-108005476D01*
X148218095Y-108053095D01*
X148313333Y-108100714D01*
X146265714Y-107767380D02*
X146265714Y-107243571D01*
X146313333Y-107148333D01*
X146408571Y-107100714D01*
X146599047Y-107100714D01*
X146694285Y-107148333D01*
X146265714Y-107719761D02*
X146360952Y-107767380D01*
X146599047Y-107767380D01*
X146694285Y-107719761D01*
X146741904Y-107624523D01*
X146741904Y-107529285D01*
X146694285Y-107434047D01*
X146599047Y-107386428D01*
X146360952Y-107386428D01*
X146265714Y-107338809D01*
X145789523Y-107100714D02*
X145789523Y-107767380D01*
X145789523Y-107195952D02*
X145741904Y-107148333D01*
X145646666Y-107100714D01*
X145503809Y-107100714D01*
X145408571Y-107148333D01*
X145360952Y-107243571D01*
X145360952Y-107767380D01*
X144456190Y-107767380D02*
X144456190Y-106767380D01*
X144456190Y-107719761D02*
X144551428Y-107767380D01*
X144741904Y-107767380D01*
X144837142Y-107719761D01*
X144884761Y-107672142D01*
X144932380Y-107576904D01*
X144932380Y-107291190D01*
X144884761Y-107195952D01*
X144837142Y-107148333D01*
X144741904Y-107100714D01*
X144551428Y-107100714D01*
X144456190Y-107148333D01*
X142789523Y-107767380D02*
X142789523Y-107243571D01*
X142837142Y-107148333D01*
X142932380Y-107100714D01*
X143122857Y-107100714D01*
X143218095Y-107148333D01*
X142789523Y-107719761D02*
X142884761Y-107767380D01*
X143122857Y-107767380D01*
X143218095Y-107719761D01*
X143265714Y-107624523D01*
X143265714Y-107529285D01*
X143218095Y-107434047D01*
X143122857Y-107386428D01*
X142884761Y-107386428D01*
X142789523Y-107338809D01*
X142456190Y-107100714D02*
X142075238Y-107100714D01*
X142313333Y-106767380D02*
X142313333Y-107624523D01*
X142265714Y-107719761D01*
X142170476Y-107767380D01*
X142075238Y-107767380D01*
X140837142Y-107767380D02*
X140932380Y-107719761D01*
X140980000Y-107672142D01*
X141027619Y-107576904D01*
X141027619Y-107291190D01*
X140980000Y-107195952D01*
X140932380Y-107148333D01*
X140837142Y-107100714D01*
X140694285Y-107100714D01*
X140599047Y-107148333D01*
X140551428Y-107195952D01*
X140503809Y-107291190D01*
X140503809Y-107576904D01*
X140551428Y-107672142D01*
X140599047Y-107719761D01*
X140694285Y-107767380D01*
X140837142Y-107767380D01*
X140170476Y-107100714D02*
X139980000Y-107767380D01*
X139789523Y-107291190D01*
X139599047Y-107767380D01*
X139408571Y-107100714D01*
X139027619Y-107100714D02*
X139027619Y-107767380D01*
X139027619Y-107195952D02*
X138980000Y-107148333D01*
X138884761Y-107100714D01*
X138741904Y-107100714D01*
X138646666Y-107148333D01*
X138599047Y-107243571D01*
X138599047Y-107767380D01*
X137360952Y-107767380D02*
X137360952Y-107100714D01*
X137360952Y-107291190D02*
X137313333Y-107195952D01*
X137265714Y-107148333D01*
X137170476Y-107100714D01*
X137075238Y-107100714D01*
X136741904Y-107767380D02*
X136741904Y-107100714D01*
X136741904Y-106767380D02*
X136789523Y-106815000D01*
X136741904Y-106862619D01*
X136694285Y-106815000D01*
X136741904Y-106767380D01*
X136741904Y-106862619D01*
X136313333Y-107719761D02*
X136218095Y-107767380D01*
X136027619Y-107767380D01*
X135932380Y-107719761D01*
X135884761Y-107624523D01*
X135884761Y-107576904D01*
X135932380Y-107481666D01*
X136027619Y-107434047D01*
X136170476Y-107434047D01*
X136265714Y-107386428D01*
X136313333Y-107291190D01*
X136313333Y-107243571D01*
X136265714Y-107148333D01*
X136170476Y-107100714D01*
X136027619Y-107100714D01*
X135932380Y-107148333D01*
X135456190Y-107767380D02*
X135456190Y-106767380D01*
X135360952Y-107386428D02*
X135075238Y-107767380D01*
X135075238Y-107100714D02*
X135456190Y-107481666D01*
X180360952Y-109417380D02*
X180360952Y-108417380D01*
X180027619Y-108750714D02*
X179646666Y-108750714D01*
X179884761Y-108417380D02*
X179884761Y-109274523D01*
X179837142Y-109369761D01*
X179741904Y-109417380D01*
X179646666Y-109417380D01*
X178551428Y-108750714D02*
X178551428Y-109750714D01*
X178551428Y-108798333D02*
X178456190Y-108750714D01*
X178265714Y-108750714D01*
X178170476Y-108798333D01*
X178122857Y-108845952D01*
X178075238Y-108941190D01*
X178075238Y-109226904D01*
X178122857Y-109322142D01*
X178170476Y-109369761D01*
X178265714Y-109417380D01*
X178456190Y-109417380D01*
X178551428Y-109369761D01*
X177646666Y-109417380D02*
X177646666Y-108750714D01*
X177646666Y-108941190D02*
X177599047Y-108845952D01*
X177551428Y-108798333D01*
X177456190Y-108750714D01*
X177360952Y-108750714D01*
X176884761Y-109417380D02*
X176980000Y-109369761D01*
X177027619Y-109322142D01*
X177075238Y-109226904D01*
X177075238Y-108941190D01*
X177027619Y-108845952D01*
X176980000Y-108798333D01*
X176884761Y-108750714D01*
X176741904Y-108750714D01*
X176646666Y-108798333D01*
X176599047Y-108845952D01*
X176551428Y-108941190D01*
X176551428Y-109226904D01*
X176599047Y-109322142D01*
X176646666Y-109369761D01*
X176741904Y-109417380D01*
X176884761Y-109417380D01*
X176122857Y-109417380D02*
X176122857Y-108417380D01*
X176122857Y-108798333D02*
X176027619Y-108750714D01*
X175837142Y-108750714D01*
X175741904Y-108798333D01*
X175694285Y-108845952D01*
X175646666Y-108941190D01*
X175646666Y-109226904D01*
X175694285Y-109322142D01*
X175741904Y-109369761D01*
X175837142Y-109417380D01*
X176027619Y-109417380D01*
X176122857Y-109369761D01*
X174789523Y-109417380D02*
X174789523Y-108893571D01*
X174837142Y-108798333D01*
X174932380Y-108750714D01*
X175122857Y-108750714D01*
X175218095Y-108798333D01*
X174789523Y-109369761D02*
X174884761Y-109417380D01*
X175122857Y-109417380D01*
X175218095Y-109369761D01*
X175265714Y-109274523D01*
X175265714Y-109179285D01*
X175218095Y-109084047D01*
X175122857Y-109036428D01*
X174884761Y-109036428D01*
X174789523Y-108988809D01*
X174313333Y-109417380D02*
X174313333Y-108417380D01*
X174313333Y-108798333D02*
X174218095Y-108750714D01*
X174027619Y-108750714D01*
X173932380Y-108798333D01*
X173884761Y-108845952D01*
X173837142Y-108941190D01*
X173837142Y-109226904D01*
X173884761Y-109322142D01*
X173932380Y-109369761D01*
X174027619Y-109417380D01*
X174218095Y-109417380D01*
X174313333Y-109369761D01*
X173265714Y-109417380D02*
X173360952Y-109369761D01*
X173408571Y-109274523D01*
X173408571Y-108417380D01*
X172980000Y-108750714D02*
X172741904Y-109417380D01*
X172503809Y-108750714D02*
X172741904Y-109417380D01*
X172837142Y-109655476D01*
X172884761Y-109703095D01*
X172980000Y-109750714D01*
X171456190Y-108750714D02*
X171265714Y-109417380D01*
X171075238Y-108941190D01*
X170884761Y-109417380D01*
X170694285Y-108750714D01*
X170170476Y-109417380D02*
X170265714Y-109369761D01*
X170313333Y-109322142D01*
X170360952Y-109226904D01*
X170360952Y-108941190D01*
X170313333Y-108845952D01*
X170265714Y-108798333D01*
X170170476Y-108750714D01*
X170027619Y-108750714D01*
X169932380Y-108798333D01*
X169884761Y-108845952D01*
X169837142Y-108941190D01*
X169837142Y-109226904D01*
X169884761Y-109322142D01*
X169932380Y-109369761D01*
X170027619Y-109417380D01*
X170170476Y-109417380D01*
X169408571Y-108750714D02*
X169408571Y-109417380D01*
X169408571Y-108845952D02*
X169360952Y-108798333D01*
X169265714Y-108750714D01*
X169122857Y-108750714D01*
X169027619Y-108798333D01*
X168980000Y-108893571D01*
X168980000Y-109417380D01*
X168456190Y-108417380D02*
X168551428Y-108607857D01*
X168170476Y-108750714D02*
X167789523Y-108750714D01*
X168027619Y-108417380D02*
X168027619Y-109274523D01*
X167980000Y-109369761D01*
X167884761Y-109417380D01*
X167789523Y-109417380D01*
X166837142Y-108750714D02*
X166456190Y-108750714D01*
X166694285Y-109417380D02*
X166694285Y-108560238D01*
X166646666Y-108465000D01*
X166551428Y-108417380D01*
X166456190Y-108417380D01*
X166122857Y-109417380D02*
X166122857Y-108750714D01*
X166122857Y-108941190D02*
X166075238Y-108845952D01*
X166027619Y-108798333D01*
X165932380Y-108750714D01*
X165837142Y-108750714D01*
X165599047Y-108750714D02*
X165360952Y-109417380D01*
X165122857Y-108750714D02*
X165360952Y-109417380D01*
X165456190Y-109655476D01*
X165503809Y-109703095D01*
X165599047Y-109750714D01*
X164027619Y-109369761D02*
X163932380Y-109417380D01*
X163741904Y-109417380D01*
X163646666Y-109369761D01*
X163599047Y-109274523D01*
X163599047Y-109226904D01*
X163646666Y-109131666D01*
X163741904Y-109084047D01*
X163884761Y-109084047D01*
X163980000Y-109036428D01*
X164027619Y-108941190D01*
X164027619Y-108893571D01*
X163980000Y-108798333D01*
X163884761Y-108750714D01*
X163741904Y-108750714D01*
X163646666Y-108798333D01*
X163027619Y-109417380D02*
X163122857Y-109369761D01*
X163170476Y-109322142D01*
X163218095Y-109226904D01*
X163218095Y-108941190D01*
X163170476Y-108845952D01*
X163122857Y-108798333D01*
X163027619Y-108750714D01*
X162884761Y-108750714D01*
X162789523Y-108798333D01*
X162741904Y-108845952D01*
X162694285Y-108941190D01*
X162694285Y-109226904D01*
X162741904Y-109322142D01*
X162789523Y-109369761D01*
X162884761Y-109417380D01*
X163027619Y-109417380D01*
X162265714Y-109417380D02*
X162265714Y-108750714D01*
X162265714Y-108845952D02*
X162218095Y-108798333D01*
X162122857Y-108750714D01*
X161980000Y-108750714D01*
X161884761Y-108798333D01*
X161837142Y-108893571D01*
X161837142Y-109417380D01*
X161837142Y-108893571D02*
X161789523Y-108798333D01*
X161694285Y-108750714D01*
X161551428Y-108750714D01*
X161456190Y-108798333D01*
X161408571Y-108893571D01*
X161408571Y-109417380D01*
X160551428Y-109369761D02*
X160646666Y-109417380D01*
X160837142Y-109417380D01*
X160932380Y-109369761D01*
X160980000Y-109274523D01*
X160980000Y-108893571D01*
X160932380Y-108798333D01*
X160837142Y-108750714D01*
X160646666Y-108750714D01*
X160551428Y-108798333D01*
X160503809Y-108893571D01*
X160503809Y-108988809D01*
X160980000Y-109084047D01*
X160218095Y-108750714D02*
X159837142Y-108750714D01*
X160075238Y-108417380D02*
X160075238Y-109274523D01*
X160027619Y-109369761D01*
X159932380Y-109417380D01*
X159837142Y-109417380D01*
X159503809Y-109417380D02*
X159503809Y-108417380D01*
X159075238Y-109417380D02*
X159075238Y-108893571D01*
X159122857Y-108798333D01*
X159218095Y-108750714D01*
X159360952Y-108750714D01*
X159456190Y-108798333D01*
X159503809Y-108845952D01*
X158599047Y-109417380D02*
X158599047Y-108750714D01*
X158599047Y-108417380D02*
X158646666Y-108465000D01*
X158599047Y-108512619D01*
X158551428Y-108465000D01*
X158599047Y-108417380D01*
X158599047Y-108512619D01*
X158122857Y-108750714D02*
X158122857Y-109417380D01*
X158122857Y-108845952D02*
X158075238Y-108798333D01*
X157980000Y-108750714D01*
X157837142Y-108750714D01*
X157741904Y-108798333D01*
X157694285Y-108893571D01*
X157694285Y-109417380D01*
X156789523Y-108750714D02*
X156789523Y-109560238D01*
X156837142Y-109655476D01*
X156884761Y-109703095D01*
X156980000Y-109750714D01*
X157122857Y-109750714D01*
X157218095Y-109703095D01*
X156789523Y-109369761D02*
X156884761Y-109417380D01*
X157075238Y-109417380D01*
X157170476Y-109369761D01*
X157218095Y-109322142D01*
X157265714Y-109226904D01*
X157265714Y-108941190D01*
X157218095Y-108845952D01*
X157170476Y-108798333D01*
X157075238Y-108750714D01*
X156884761Y-108750714D01*
X156789523Y-108798333D01*
X155599047Y-109369761D02*
X155503809Y-109417380D01*
X155313333Y-109417380D01*
X155218095Y-109369761D01*
X155170476Y-109274523D01*
X155170476Y-109226904D01*
X155218095Y-109131666D01*
X155313333Y-109084047D01*
X155456190Y-109084047D01*
X155551428Y-109036428D01*
X155599047Y-108941190D01*
X155599047Y-108893571D01*
X155551428Y-108798333D01*
X155456190Y-108750714D01*
X155313333Y-108750714D01*
X155218095Y-108798333D01*
X154741904Y-108750714D02*
X154741904Y-109750714D01*
X154741904Y-108798333D02*
X154646666Y-108750714D01*
X154456190Y-108750714D01*
X154360952Y-108798333D01*
X154313333Y-108845952D01*
X154265714Y-108941190D01*
X154265714Y-109226904D01*
X154313333Y-109322142D01*
X154360952Y-109369761D01*
X154456190Y-109417380D01*
X154646666Y-109417380D01*
X154741904Y-109369761D01*
X153456190Y-109369761D02*
X153551428Y-109417380D01*
X153741904Y-109417380D01*
X153837142Y-109369761D01*
X153884761Y-109274523D01*
X153884761Y-108893571D01*
X153837142Y-108798333D01*
X153741904Y-108750714D01*
X153551428Y-108750714D01*
X153456190Y-108798333D01*
X153408571Y-108893571D01*
X153408571Y-108988809D01*
X153884761Y-109084047D01*
X152551428Y-109369761D02*
X152646666Y-109417380D01*
X152837142Y-109417380D01*
X152932380Y-109369761D01*
X152980000Y-109322142D01*
X153027619Y-109226904D01*
X153027619Y-108941190D01*
X152980000Y-108845952D01*
X152932380Y-108798333D01*
X152837142Y-108750714D01*
X152646666Y-108750714D01*
X152551428Y-108798333D01*
X152122857Y-109417380D02*
X152122857Y-108750714D01*
X152122857Y-108417380D02*
X152170476Y-108465000D01*
X152122857Y-108512619D01*
X152075238Y-108465000D01*
X152122857Y-108417380D01*
X152122857Y-108512619D01*
X151218095Y-109417380D02*
X151218095Y-108893571D01*
X151265714Y-108798333D01*
X151360952Y-108750714D01*
X151551428Y-108750714D01*
X151646666Y-108798333D01*
X151218095Y-109369761D02*
X151313333Y-109417380D01*
X151551428Y-109417380D01*
X151646666Y-109369761D01*
X151694285Y-109274523D01*
X151694285Y-109179285D01*
X151646666Y-109084047D01*
X151551428Y-109036428D01*
X151313333Y-109036428D01*
X151218095Y-108988809D01*
X150599047Y-109417380D02*
X150694285Y-109369761D01*
X150741904Y-109274523D01*
X150741904Y-108417380D01*
X150218095Y-109322142D02*
X150170476Y-109369761D01*
X150218095Y-109417380D01*
X150265714Y-109369761D01*
X150218095Y-109322142D01*
X150218095Y-109417380D01*
X148980000Y-109417380D02*
X148980000Y-108417380D01*
X148646666Y-109131666D01*
X148313333Y-108417380D01*
X148313333Y-109417380D01*
X147408571Y-109417380D02*
X147408571Y-108893571D01*
X147456190Y-108798333D01*
X147551428Y-108750714D01*
X147741904Y-108750714D01*
X147837142Y-108798333D01*
X147408571Y-109369761D02*
X147503809Y-109417380D01*
X147741904Y-109417380D01*
X147837142Y-109369761D01*
X147884761Y-109274523D01*
X147884761Y-109179285D01*
X147837142Y-109084047D01*
X147741904Y-109036428D01*
X147503809Y-109036428D01*
X147408571Y-108988809D01*
X147027619Y-108750714D02*
X146789523Y-109417380D01*
X146551428Y-108750714D02*
X146789523Y-109417380D01*
X146884761Y-109655476D01*
X146932380Y-109703095D01*
X147027619Y-109750714D01*
X146170476Y-109417380D02*
X146170476Y-108417380D01*
X146170476Y-108798333D02*
X146075238Y-108750714D01*
X145884761Y-108750714D01*
X145789523Y-108798333D01*
X145741904Y-108845952D01*
X145694285Y-108941190D01*
X145694285Y-109226904D01*
X145741904Y-109322142D01*
X145789523Y-109369761D01*
X145884761Y-109417380D01*
X146075238Y-109417380D01*
X146170476Y-109369761D01*
X144884761Y-109369761D02*
X144980000Y-109417380D01*
X145170476Y-109417380D01*
X145265714Y-109369761D01*
X145313333Y-109274523D01*
X145313333Y-108893571D01*
X145265714Y-108798333D01*
X145170476Y-108750714D01*
X144980000Y-108750714D01*
X144884761Y-108798333D01*
X144837142Y-108893571D01*
X144837142Y-108988809D01*
X145313333Y-109084047D01*
X144408571Y-109322142D02*
X144360952Y-109369761D01*
X144408571Y-109417380D01*
X144456190Y-109369761D01*
X144408571Y-109322142D01*
X144408571Y-109417380D01*
X143265714Y-108417380D02*
X143027619Y-109417380D01*
X142837142Y-108703095D01*
X142646666Y-109417380D01*
X142408571Y-108417380D01*
X142027619Y-109417380D02*
X142027619Y-108417380D01*
X141599047Y-109417380D02*
X141599047Y-108893571D01*
X141646666Y-108798333D01*
X141741904Y-108750714D01*
X141884761Y-108750714D01*
X141980000Y-108798333D01*
X142027619Y-108845952D01*
X140980000Y-109417380D02*
X141075238Y-109369761D01*
X141122857Y-109322142D01*
X141170476Y-109226904D01*
X141170476Y-108941190D01*
X141122857Y-108845952D01*
X141075238Y-108798333D01*
X140980000Y-108750714D01*
X140837142Y-108750714D01*
X140741904Y-108798333D01*
X140694285Y-108845952D01*
X140646666Y-108941190D01*
X140646666Y-109226904D01*
X140694285Y-109322142D01*
X140741904Y-109369761D01*
X140837142Y-109417380D01*
X140980000Y-109417380D01*
X139456190Y-109417380D02*
X139456190Y-108417380D01*
X139360952Y-109036428D02*
X139075238Y-109417380D01*
X139075238Y-108750714D02*
X139456190Y-109131666D01*
X138646666Y-108750714D02*
X138646666Y-109417380D01*
X138646666Y-108845952D02*
X138599047Y-108798333D01*
X138503809Y-108750714D01*
X138360952Y-108750714D01*
X138265714Y-108798333D01*
X138218095Y-108893571D01*
X138218095Y-109417380D01*
X137599047Y-109417380D02*
X137694285Y-109369761D01*
X137741904Y-109322142D01*
X137789523Y-109226904D01*
X137789523Y-108941190D01*
X137741904Y-108845952D01*
X137694285Y-108798333D01*
X137599047Y-108750714D01*
X137456190Y-108750714D01*
X137360952Y-108798333D01*
X137313333Y-108845952D01*
X137265714Y-108941190D01*
X137265714Y-109226904D01*
X137313333Y-109322142D01*
X137360952Y-109369761D01*
X137456190Y-109417380D01*
X137599047Y-109417380D01*
X136932380Y-108750714D02*
X136741904Y-109417380D01*
X136551428Y-108941190D01*
X136360952Y-109417380D01*
X136170476Y-108750714D01*
X135837142Y-109369761D02*
X135741904Y-109417380D01*
X135551428Y-109417380D01*
X135456190Y-109369761D01*
X135408571Y-109274523D01*
X135408571Y-109226904D01*
X135456190Y-109131666D01*
X135551428Y-109084047D01*
X135694285Y-109084047D01*
X135789523Y-109036428D01*
X135837142Y-108941190D01*
X135837142Y-108893571D01*
X135789523Y-108798333D01*
X135694285Y-108750714D01*
X135551428Y-108750714D01*
X135456190Y-108798333D01*
X134837142Y-109322142D02*
X134789523Y-109369761D01*
X134837142Y-109417380D01*
X134884761Y-109369761D01*
X134837142Y-109322142D01*
X134837142Y-109417380D01*
X135027619Y-108465000D02*
X134932380Y-108417380D01*
X134694285Y-108417380D01*
X134599047Y-108465000D01*
X134551428Y-108560238D01*
X134551428Y-108655476D01*
X134599047Y-108750714D01*
X134646666Y-108798333D01*
X134741904Y-108845952D01*
X134789523Y-108893571D01*
X134837142Y-108988809D01*
X134837142Y-109036428D01*
D11*
X169194285Y-48317142D02*
X169194285Y-50317142D01*
X169908571Y-47174285D02*
X170622857Y-49317142D01*
X168765714Y-49317142D01*
X167194285Y-48602857D02*
X167480000Y-48460000D01*
X167622857Y-48317142D01*
X167765714Y-48031428D01*
X167765714Y-47888571D01*
X167622857Y-47602857D01*
X167480000Y-47460000D01*
X167194285Y-47317142D01*
X166622857Y-47317142D01*
X166337142Y-47460000D01*
X166194285Y-47602857D01*
X166051428Y-47888571D01*
X166051428Y-48031428D01*
X166194285Y-48317142D01*
X166337142Y-48460000D01*
X166622857Y-48602857D01*
X167194285Y-48602857D01*
X167480000Y-48745714D01*
X167622857Y-48888571D01*
X167765714Y-49174285D01*
X167765714Y-49745714D01*
X167622857Y-50031428D01*
X167480000Y-50174285D01*
X167194285Y-50317142D01*
X166622857Y-50317142D01*
X166337142Y-50174285D01*
X166194285Y-50031428D01*
X166051428Y-49745714D01*
X166051428Y-49174285D01*
X166194285Y-48888571D01*
X166337142Y-48745714D01*
X166622857Y-48602857D01*
X163480000Y-47317142D02*
X164051428Y-47317142D01*
X164337142Y-47460000D01*
X164480000Y-47602857D01*
X164765714Y-48031428D01*
X164908571Y-48602857D01*
X164908571Y-49745714D01*
X164765714Y-50031428D01*
X164622857Y-50174285D01*
X164337142Y-50317142D01*
X163765714Y-50317142D01*
X163480000Y-50174285D01*
X163337142Y-50031428D01*
X163194285Y-49745714D01*
X163194285Y-49031428D01*
X163337142Y-48745714D01*
X163480000Y-48602857D01*
X163765714Y-48460000D01*
X164337142Y-48460000D01*
X164622857Y-48602857D01*
X164765714Y-48745714D01*
X164908571Y-49031428D01*
X159908571Y-47317142D02*
X158051428Y-47317142D01*
X159051428Y-48460000D01*
X158622857Y-48460000D01*
X158337142Y-48602857D01*
X158194285Y-48745714D01*
X158051428Y-49031428D01*
X158051428Y-49745714D01*
X158194285Y-50031428D01*
X158337142Y-50174285D01*
X158622857Y-50317142D01*
X159480000Y-50317142D01*
X159765714Y-50174285D01*
X159908571Y-50031428D01*
X157051428Y-48317142D02*
X156337142Y-50317142D01*
X155622857Y-48317142D01*
X150480000Y-50031428D02*
X150622857Y-50174285D01*
X151051428Y-50317142D01*
X151337142Y-50317142D01*
X151765714Y-50174285D01*
X152051428Y-49888571D01*
X152194285Y-49602857D01*
X152337142Y-49031428D01*
X152337142Y-48602857D01*
X152194285Y-48031428D01*
X152051428Y-47745714D01*
X151765714Y-47460000D01*
X151337142Y-47317142D01*
X151051428Y-47317142D01*
X150622857Y-47460000D01*
X150480000Y-47602857D01*
X149194285Y-50317142D02*
X149194285Y-47317142D01*
X148051428Y-47317142D01*
X147765714Y-47460000D01*
X147622857Y-47602857D01*
X147480000Y-47888571D01*
X147480000Y-48317142D01*
X147622857Y-48602857D01*
X147765714Y-48745714D01*
X148051428Y-48888571D01*
X149194285Y-48888571D01*
X146194285Y-47317142D02*
X146194285Y-49745714D01*
X146051428Y-50031428D01*
X145908571Y-50174285D01*
X145622857Y-50317142D01*
X145051428Y-50317142D01*
X144765714Y-50174285D01*
X144622857Y-50031428D01*
X144480000Y-49745714D01*
X144480000Y-47317142D01*
X168051428Y-55267142D02*
X168051428Y-52267142D01*
X166622857Y-53267142D02*
X166622857Y-55267142D01*
X166622857Y-53552857D02*
X166480000Y-53410000D01*
X166194285Y-53267142D01*
X165765714Y-53267142D01*
X165480000Y-53410000D01*
X165337142Y-53695714D01*
X165337142Y-55267142D01*
X164337142Y-53267142D02*
X163194285Y-53267142D01*
X163908571Y-52267142D02*
X163908571Y-54838571D01*
X163765714Y-55124285D01*
X163480000Y-55267142D01*
X163194285Y-55267142D01*
X161051428Y-55124285D02*
X161337142Y-55267142D01*
X161908571Y-55267142D01*
X162194285Y-55124285D01*
X162337142Y-54838571D01*
X162337142Y-53695714D01*
X162194285Y-53410000D01*
X161908571Y-53267142D01*
X161337142Y-53267142D01*
X161051428Y-53410000D01*
X160908571Y-53695714D01*
X160908571Y-53981428D01*
X162337142Y-54267142D01*
X159622857Y-55267142D02*
X159622857Y-53267142D01*
X159622857Y-53838571D02*
X159480000Y-53552857D01*
X159337142Y-53410000D01*
X159051428Y-53267142D01*
X158765714Y-53267142D01*
X157765714Y-53267142D02*
X157765714Y-56267142D01*
X157765714Y-53410000D02*
X157480000Y-53267142D01*
X156908571Y-53267142D01*
X156622857Y-53410000D01*
X156480000Y-53552857D01*
X156337142Y-53838571D01*
X156337142Y-54695714D01*
X156480000Y-54981428D01*
X156622857Y-55124285D01*
X156908571Y-55267142D01*
X157480000Y-55267142D01*
X157765714Y-55124285D01*
X154622857Y-55267142D02*
X154908571Y-55124285D01*
X155051428Y-54981428D01*
X155194285Y-54695714D01*
X155194285Y-53838571D01*
X155051428Y-53552857D01*
X154908571Y-53410000D01*
X154622857Y-53267142D01*
X154194285Y-53267142D01*
X153908571Y-53410000D01*
X153765714Y-53552857D01*
X153622857Y-53838571D01*
X153622857Y-54695714D01*
X153765714Y-54981428D01*
X153908571Y-55124285D01*
X154194285Y-55267142D01*
X154622857Y-55267142D01*
X152480000Y-55124285D02*
X152194285Y-55267142D01*
X151622857Y-55267142D01*
X151337142Y-55124285D01*
X151194285Y-54838571D01*
X151194285Y-54695714D01*
X151337142Y-54410000D01*
X151622857Y-54267142D01*
X152051428Y-54267142D01*
X152337142Y-54124285D01*
X152480000Y-53838571D01*
X152480000Y-53695714D01*
X152337142Y-53410000D01*
X152051428Y-53267142D01*
X151622857Y-53267142D01*
X151337142Y-53410000D01*
X148765714Y-55124285D02*
X149051428Y-55267142D01*
X149622857Y-55267142D01*
X149908571Y-55124285D01*
X150051428Y-54838571D01*
X150051428Y-53695714D01*
X149908571Y-53410000D01*
X149622857Y-53267142D01*
X149051428Y-53267142D01*
X148765714Y-53410000D01*
X148622857Y-53695714D01*
X148622857Y-53981428D01*
X150051428Y-54267142D01*
X147337142Y-55267142D02*
X147337142Y-53267142D01*
X147337142Y-53838571D02*
X147194285Y-53552857D01*
X147051428Y-53410000D01*
X146765714Y-53267142D01*
X146480000Y-53267142D01*
D12*
X149225000Y-89535000D02*
X161925000Y-89535000D01*
X149225000Y-73025000D02*
X149225000Y-89535000D01*
X161925000Y-73025000D02*
X149225000Y-73025000D01*
X165735000Y-73025000D02*
X161925000Y-73025000D01*
X165735000Y-89535000D02*
X165735000Y-73025000D01*
X161925000Y-89535000D02*
X165735000Y-89535000D01*
X161798000Y-73025000D02*
X161798000Y-89535000D01*
D10*
X160760785Y-74307380D02*
X161275071Y-74307380D01*
X161017928Y-74307380D02*
X161017928Y-73307380D01*
X161103642Y-73450238D01*
X161189357Y-73545476D01*
X161275071Y-73593095D01*
X160417928Y-73402619D02*
X160375071Y-73355000D01*
X160289357Y-73307380D01*
X160075071Y-73307380D01*
X159989357Y-73355000D01*
X159946500Y-73402619D01*
X159903642Y-73497857D01*
X159903642Y-73593095D01*
X159946500Y-73735952D01*
X160460785Y-74307380D01*
X159903642Y-74307380D01*
X159046500Y-74307380D02*
X159560785Y-74307380D01*
X159303642Y-74307380D02*
X159303642Y-73307380D01*
X159389357Y-73450238D01*
X159475071Y-73545476D01*
X159560785Y-73593095D01*
X158146500Y-74307380D02*
X158446500Y-73831190D01*
X158660785Y-74307380D02*
X158660785Y-73307380D01*
X158317928Y-73307380D01*
X158232214Y-73355000D01*
X158189357Y-73402619D01*
X158146500Y-73497857D01*
X158146500Y-73640714D01*
X158189357Y-73735952D01*
X158232214Y-73783571D01*
X158317928Y-73831190D01*
X158660785Y-73831190D01*
X156603642Y-74307380D02*
X157117928Y-74307380D01*
X156860785Y-74307380D02*
X156860785Y-73307380D01*
X156946500Y-73450238D01*
X157032214Y-73545476D01*
X157117928Y-73593095D01*
X156260785Y-73402619D02*
X156217928Y-73355000D01*
X156132214Y-73307380D01*
X155917928Y-73307380D01*
X155832214Y-73355000D01*
X155789357Y-73402619D01*
X155746500Y-73497857D01*
X155746500Y-73593095D01*
X155789357Y-73735952D01*
X156303642Y-74307380D01*
X155746500Y-74307380D01*
X155189357Y-73307380D02*
X155103642Y-73307380D01*
X155017928Y-73355000D01*
X154975071Y-73402619D01*
X154932214Y-73497857D01*
X154889357Y-73688333D01*
X154889357Y-73926428D01*
X154932214Y-74116904D01*
X154975071Y-74212142D01*
X155017928Y-74259761D01*
X155103642Y-74307380D01*
X155189357Y-74307380D01*
X155275071Y-74259761D01*
X155317928Y-74212142D01*
X155360785Y-74116904D01*
X155403642Y-73926428D01*
X155403642Y-73688333D01*
X155360785Y-73497857D01*
X155317928Y-73402619D01*
X155275071Y-73355000D01*
X155189357Y-73307380D01*
X154117928Y-73307380D02*
X154289357Y-73307380D01*
X154375071Y-73355000D01*
X154417928Y-73402619D01*
X154503642Y-73545476D01*
X154546500Y-73735952D01*
X154546500Y-74116904D01*
X154503642Y-74212142D01*
X154460785Y-74259761D01*
X154375071Y-74307380D01*
X154203642Y-74307380D01*
X154117928Y-74259761D01*
X154075071Y-74212142D01*
X154032214Y-74116904D01*
X154032214Y-73878809D01*
X154075071Y-73783571D01*
X154117928Y-73735952D01*
X154203642Y-73688333D01*
X154375071Y-73688333D01*
X154460785Y-73735952D01*
X154503642Y-73783571D01*
X154546500Y-73878809D01*
X161275071Y-75052619D02*
X161232214Y-75005000D01*
X161146500Y-74957380D01*
X160932214Y-74957380D01*
X160846500Y-75005000D01*
X160803642Y-75052619D01*
X160760785Y-75147857D01*
X160760785Y-75243095D01*
X160803642Y-75385952D01*
X161317928Y-75957380D01*
X160760785Y-75957380D01*
X160203642Y-74957380D02*
X160117928Y-74957380D01*
X160032214Y-75005000D01*
X159989357Y-75052619D01*
X159946500Y-75147857D01*
X159903642Y-75338333D01*
X159903642Y-75576428D01*
X159946500Y-75766904D01*
X159989357Y-75862142D01*
X160032214Y-75909761D01*
X160117928Y-75957380D01*
X160203642Y-75957380D01*
X160289357Y-75909761D01*
X160332214Y-75862142D01*
X160375071Y-75766904D01*
X160417928Y-75576428D01*
X160417928Y-75338333D01*
X160375071Y-75147857D01*
X160332214Y-75052619D01*
X160289357Y-75005000D01*
X160203642Y-74957380D01*
X159346500Y-74957380D02*
X159260785Y-74957380D01*
X159175071Y-75005000D01*
X159132214Y-75052619D01*
X159089357Y-75147857D01*
X159046500Y-75338333D01*
X159046500Y-75576428D01*
X159089357Y-75766904D01*
X159132214Y-75862142D01*
X159175071Y-75909761D01*
X159260785Y-75957380D01*
X159346500Y-75957380D01*
X159432214Y-75909761D01*
X159475071Y-75862142D01*
X159517928Y-75766904D01*
X159560785Y-75576428D01*
X159560785Y-75338333D01*
X159517928Y-75147857D01*
X159475071Y-75052619D01*
X159432214Y-75005000D01*
X159346500Y-74957380D01*
X158146500Y-75957380D02*
X158446500Y-75481190D01*
X158660785Y-75957380D02*
X158660785Y-74957380D01*
X158317928Y-74957380D01*
X158232214Y-75005000D01*
X158189357Y-75052619D01*
X158146500Y-75147857D01*
X158146500Y-75290714D01*
X158189357Y-75385952D01*
X158232214Y-75433571D01*
X158317928Y-75481190D01*
X158660785Y-75481190D01*
X156603642Y-75957380D02*
X157117928Y-75957380D01*
X156860785Y-75957380D02*
X156860785Y-74957380D01*
X156946500Y-75100238D01*
X157032214Y-75195476D01*
X157117928Y-75243095D01*
X156260785Y-75052619D02*
X156217928Y-75005000D01*
X156132214Y-74957380D01*
X155917928Y-74957380D01*
X155832214Y-75005000D01*
X155789357Y-75052619D01*
X155746500Y-75147857D01*
X155746500Y-75243095D01*
X155789357Y-75385952D01*
X156303642Y-75957380D01*
X155746500Y-75957380D01*
X155189357Y-74957380D02*
X155103642Y-74957380D01*
X155017928Y-75005000D01*
X154975071Y-75052619D01*
X154932214Y-75147857D01*
X154889357Y-75338333D01*
X154889357Y-75576428D01*
X154932214Y-75766904D01*
X154975071Y-75862142D01*
X155017928Y-75909761D01*
X155103642Y-75957380D01*
X155189357Y-75957380D01*
X155275071Y-75909761D01*
X155317928Y-75862142D01*
X155360785Y-75766904D01*
X155403642Y-75576428D01*
X155403642Y-75338333D01*
X155360785Y-75147857D01*
X155317928Y-75052619D01*
X155275071Y-75005000D01*
X155189357Y-74957380D01*
X154117928Y-74957380D02*
X154289357Y-74957380D01*
X154375071Y-75005000D01*
X154417928Y-75052619D01*
X154503642Y-75195476D01*
X154546500Y-75385952D01*
X154546500Y-75766904D01*
X154503642Y-75862142D01*
X154460785Y-75909761D01*
X154375071Y-75957380D01*
X154203642Y-75957380D01*
X154117928Y-75909761D01*
X154075071Y-75862142D01*
X154032214Y-75766904D01*
X154032214Y-75528809D01*
X154075071Y-75433571D01*
X154117928Y-75385952D01*
X154203642Y-75338333D01*
X154375071Y-75338333D01*
X154460785Y-75385952D01*
X154503642Y-75433571D01*
X154546500Y-75528809D01*
X161275071Y-76702619D02*
X161232214Y-76655000D01*
X161146500Y-76607380D01*
X160932214Y-76607380D01*
X160846500Y-76655000D01*
X160803642Y-76702619D01*
X160760785Y-76797857D01*
X160760785Y-76893095D01*
X160803642Y-77035952D01*
X161317928Y-77607380D01*
X160760785Y-77607380D01*
X160203642Y-76607380D02*
X160117928Y-76607380D01*
X160032214Y-76655000D01*
X159989357Y-76702619D01*
X159946500Y-76797857D01*
X159903642Y-76988333D01*
X159903642Y-77226428D01*
X159946500Y-77416904D01*
X159989357Y-77512142D01*
X160032214Y-77559761D01*
X160117928Y-77607380D01*
X160203642Y-77607380D01*
X160289357Y-77559761D01*
X160332214Y-77512142D01*
X160375071Y-77416904D01*
X160417928Y-77226428D01*
X160417928Y-76988333D01*
X160375071Y-76797857D01*
X160332214Y-76702619D01*
X160289357Y-76655000D01*
X160203642Y-76607380D01*
X159003642Y-77607380D02*
X159303642Y-77131190D01*
X159517928Y-77607380D02*
X159517928Y-76607380D01*
X159175071Y-76607380D01*
X159089357Y-76655000D01*
X159046500Y-76702619D01*
X159003642Y-76797857D01*
X159003642Y-76940714D01*
X159046500Y-77035952D01*
X159089357Y-77083571D01*
X159175071Y-77131190D01*
X159517928Y-77131190D01*
X157460785Y-77607380D02*
X157975071Y-77607380D01*
X157717928Y-77607380D02*
X157717928Y-76607380D01*
X157803642Y-76750238D01*
X157889357Y-76845476D01*
X157975071Y-76893095D01*
X157117928Y-76702619D02*
X157075071Y-76655000D01*
X156989357Y-76607380D01*
X156775071Y-76607380D01*
X156689357Y-76655000D01*
X156646500Y-76702619D01*
X156603642Y-76797857D01*
X156603642Y-76893095D01*
X156646500Y-77035952D01*
X157160785Y-77607380D01*
X156603642Y-77607380D01*
X156046500Y-76607380D02*
X155960785Y-76607380D01*
X155875071Y-76655000D01*
X155832214Y-76702619D01*
X155789357Y-76797857D01*
X155746500Y-76988333D01*
X155746500Y-77226428D01*
X155789357Y-77416904D01*
X155832214Y-77512142D01*
X155875071Y-77559761D01*
X155960785Y-77607380D01*
X156046500Y-77607380D01*
X156132214Y-77559761D01*
X156175071Y-77512142D01*
X156217928Y-77416904D01*
X156260785Y-77226428D01*
X156260785Y-76988333D01*
X156217928Y-76797857D01*
X156175071Y-76702619D01*
X156132214Y-76655000D01*
X156046500Y-76607380D01*
X154975071Y-76607380D02*
X155146500Y-76607380D01*
X155232214Y-76655000D01*
X155275071Y-76702619D01*
X155360785Y-76845476D01*
X155403642Y-77035952D01*
X155403642Y-77416904D01*
X155360785Y-77512142D01*
X155317928Y-77559761D01*
X155232214Y-77607380D01*
X155060785Y-77607380D01*
X154975071Y-77559761D01*
X154932214Y-77512142D01*
X154889357Y-77416904D01*
X154889357Y-77178809D01*
X154932214Y-77083571D01*
X154975071Y-77035952D01*
X155060785Y-76988333D01*
X155232214Y-76988333D01*
X155317928Y-77035952D01*
X155360785Y-77083571D01*
X155403642Y-77178809D01*
X161060785Y-78257380D02*
X160975071Y-78257380D01*
X160889357Y-78305000D01*
X160846500Y-78352619D01*
X160803642Y-78447857D01*
X160760785Y-78638333D01*
X160760785Y-78876428D01*
X160803642Y-79066904D01*
X160846500Y-79162142D01*
X160889357Y-79209761D01*
X160975071Y-79257380D01*
X161060785Y-79257380D01*
X161146500Y-79209761D01*
X161189357Y-79162142D01*
X161232214Y-79066904D01*
X161275071Y-78876428D01*
X161275071Y-78638333D01*
X161232214Y-78447857D01*
X161189357Y-78352619D01*
X161146500Y-78305000D01*
X161060785Y-78257380D01*
X160375071Y-79162142D02*
X160332214Y-79209761D01*
X160375071Y-79257380D01*
X160417928Y-79209761D01*
X160375071Y-79162142D01*
X160375071Y-79257380D01*
X159475071Y-79257380D02*
X159989357Y-79257380D01*
X159732214Y-79257380D02*
X159732214Y-78257380D01*
X159817928Y-78400238D01*
X159903642Y-78495476D01*
X159989357Y-78543095D01*
X158703642Y-78590714D02*
X158703642Y-79257380D01*
X159089357Y-78590714D02*
X159089357Y-79114523D01*
X159046500Y-79209761D01*
X158960785Y-79257380D01*
X158832214Y-79257380D01*
X158746500Y-79209761D01*
X158703642Y-79162142D01*
X157975071Y-78733571D02*
X158275071Y-78733571D01*
X158275071Y-79257380D02*
X158275071Y-78257380D01*
X157846500Y-78257380D01*
X156817928Y-79257380D02*
X156817928Y-78257380D01*
X156517928Y-78971666D01*
X156217928Y-78257380D01*
X156217928Y-79257380D01*
X155360785Y-79257380D02*
X155789357Y-79257380D01*
X155789357Y-78257380D01*
X154546500Y-79162142D02*
X154589357Y-79209761D01*
X154717928Y-79257380D01*
X154803642Y-79257380D01*
X154932214Y-79209761D01*
X155017928Y-79114523D01*
X155060785Y-79019285D01*
X155103642Y-78828809D01*
X155103642Y-78685952D01*
X155060785Y-78495476D01*
X155017928Y-78400238D01*
X154932214Y-78305000D01*
X154803642Y-78257380D01*
X154717928Y-78257380D01*
X154589357Y-78305000D01*
X154546500Y-78352619D01*
X153646500Y-79162142D02*
X153689357Y-79209761D01*
X153817928Y-79257380D01*
X153903642Y-79257380D01*
X154032214Y-79209761D01*
X154117928Y-79114523D01*
X154160785Y-79019285D01*
X154203642Y-78828809D01*
X154203642Y-78685952D01*
X154160785Y-78495476D01*
X154117928Y-78400238D01*
X154032214Y-78305000D01*
X153903642Y-78257380D01*
X153817928Y-78257380D01*
X153689357Y-78305000D01*
X153646500Y-78352619D01*
X152103642Y-79257380D02*
X152617928Y-79257380D01*
X152360785Y-79257380D02*
X152360785Y-78257380D01*
X152446500Y-78400238D01*
X152532214Y-78495476D01*
X152617928Y-78543095D01*
X151760785Y-78352619D02*
X151717928Y-78305000D01*
X151632214Y-78257380D01*
X151417928Y-78257380D01*
X151332214Y-78305000D01*
X151289357Y-78352619D01*
X151246500Y-78447857D01*
X151246500Y-78543095D01*
X151289357Y-78685952D01*
X151803642Y-79257380D01*
X151246500Y-79257380D01*
X150689357Y-78257380D02*
X150603642Y-78257380D01*
X150517928Y-78305000D01*
X150475071Y-78352619D01*
X150432214Y-78447857D01*
X150389357Y-78638333D01*
X150389357Y-78876428D01*
X150432214Y-79066904D01*
X150475071Y-79162142D01*
X150517928Y-79209761D01*
X150603642Y-79257380D01*
X150689357Y-79257380D01*
X150775071Y-79209761D01*
X150817928Y-79162142D01*
X150860785Y-79066904D01*
X150903642Y-78876428D01*
X150903642Y-78638333D01*
X150860785Y-78447857D01*
X150817928Y-78352619D01*
X150775071Y-78305000D01*
X150689357Y-78257380D01*
X149617928Y-78257380D02*
X149789357Y-78257380D01*
X149875071Y-78305000D01*
X149917928Y-78352619D01*
X150003642Y-78495476D01*
X150046500Y-78685952D01*
X150046500Y-79066904D01*
X150003642Y-79162142D01*
X149960785Y-79209761D01*
X149875071Y-79257380D01*
X149703642Y-79257380D01*
X149617928Y-79209761D01*
X149575071Y-79162142D01*
X149532214Y-79066904D01*
X149532214Y-78828809D01*
X149575071Y-78733571D01*
X149617928Y-78685952D01*
X149703642Y-78638333D01*
X149875071Y-78638333D01*
X149960785Y-78685952D01*
X150003642Y-78733571D01*
X150046500Y-78828809D01*
X160760785Y-82557380D02*
X161275071Y-82557380D01*
X161017928Y-82557380D02*
X161017928Y-81557380D01*
X161103642Y-81700238D01*
X161189357Y-81795476D01*
X161275071Y-81843095D01*
X160203642Y-81557380D02*
X160117928Y-81557380D01*
X160032214Y-81605000D01*
X159989357Y-81652619D01*
X159946500Y-81747857D01*
X159903642Y-81938333D01*
X159903642Y-82176428D01*
X159946500Y-82366904D01*
X159989357Y-82462142D01*
X160032214Y-82509761D01*
X160117928Y-82557380D01*
X160203642Y-82557380D01*
X160289357Y-82509761D01*
X160332214Y-82462142D01*
X160375071Y-82366904D01*
X160417928Y-82176428D01*
X160417928Y-81938333D01*
X160375071Y-81747857D01*
X160332214Y-81652619D01*
X160289357Y-81605000D01*
X160203642Y-81557380D01*
X159132214Y-81890714D02*
X159132214Y-82557380D01*
X159517928Y-81890714D02*
X159517928Y-82414523D01*
X159475071Y-82509761D01*
X159389357Y-82557380D01*
X159260785Y-82557380D01*
X159175071Y-82509761D01*
X159132214Y-82462142D01*
X158403642Y-82033571D02*
X158703642Y-82033571D01*
X158703642Y-82557380D02*
X158703642Y-81557380D01*
X158275071Y-81557380D01*
X156775071Y-82557380D02*
X157289357Y-82557380D01*
X157032214Y-82557380D02*
X157032214Y-81557380D01*
X157117928Y-81700238D01*
X157203642Y-81795476D01*
X157289357Y-81843095D01*
X156003642Y-81557380D02*
X156175071Y-81557380D01*
X156260785Y-81605000D01*
X156303642Y-81652619D01*
X156389357Y-81795476D01*
X156432214Y-81985952D01*
X156432214Y-82366904D01*
X156389357Y-82462142D01*
X156346500Y-82509761D01*
X156260785Y-82557380D01*
X156089357Y-82557380D01*
X156003642Y-82509761D01*
X155960785Y-82462142D01*
X155917928Y-82366904D01*
X155917928Y-82128809D01*
X155960785Y-82033571D01*
X156003642Y-81985952D01*
X156089357Y-81938333D01*
X156260785Y-81938333D01*
X156346500Y-81985952D01*
X156389357Y-82033571D01*
X156432214Y-82128809D01*
X155617928Y-81890714D02*
X155403642Y-82557380D01*
X155189357Y-81890714D01*
X161360785Y-83207380D02*
X160846500Y-83207380D01*
X161103642Y-84207380D02*
X161103642Y-83207380D01*
X160160785Y-84207380D02*
X160160785Y-83683571D01*
X160203642Y-83588333D01*
X160289357Y-83540714D01*
X160460785Y-83540714D01*
X160546500Y-83588333D01*
X160160785Y-84159761D02*
X160246500Y-84207380D01*
X160460785Y-84207380D01*
X160546500Y-84159761D01*
X160589357Y-84064523D01*
X160589357Y-83969285D01*
X160546500Y-83874047D01*
X160460785Y-83826428D01*
X160246500Y-83826428D01*
X160160785Y-83778809D01*
X159732214Y-83540714D02*
X159732214Y-84207380D01*
X159732214Y-83635952D02*
X159689357Y-83588333D01*
X159603642Y-83540714D01*
X159475071Y-83540714D01*
X159389357Y-83588333D01*
X159346500Y-83683571D01*
X159346500Y-84207380D01*
X159046500Y-83540714D02*
X158703642Y-83540714D01*
X158917928Y-83207380D02*
X158917928Y-84064523D01*
X158875071Y-84159761D01*
X158789357Y-84207380D01*
X158703642Y-84207380D01*
X158017928Y-84207380D02*
X158017928Y-83683571D01*
X158060785Y-83588333D01*
X158146500Y-83540714D01*
X158317928Y-83540714D01*
X158403642Y-83588333D01*
X158017928Y-84159761D02*
X158103642Y-84207380D01*
X158317928Y-84207380D01*
X158403642Y-84159761D01*
X158446500Y-84064523D01*
X158446500Y-83969285D01*
X158403642Y-83874047D01*
X158317928Y-83826428D01*
X158103642Y-83826428D01*
X158017928Y-83778809D01*
X157460785Y-84207380D02*
X157546500Y-84159761D01*
X157589357Y-84064523D01*
X157589357Y-83207380D01*
X156732214Y-83540714D02*
X156732214Y-84207380D01*
X157117928Y-83540714D02*
X157117928Y-84064523D01*
X157075071Y-84159761D01*
X156989357Y-84207380D01*
X156860785Y-84207380D01*
X156775071Y-84159761D01*
X156732214Y-84112142D01*
X156303642Y-84207380D02*
X156303642Y-83540714D01*
X156303642Y-83635952D02*
X156260785Y-83588333D01*
X156175071Y-83540714D01*
X156046500Y-83540714D01*
X155960785Y-83588333D01*
X155917928Y-83683571D01*
X155917928Y-84207380D01*
X155917928Y-83683571D02*
X155875071Y-83588333D01*
X155789357Y-83540714D01*
X155660785Y-83540714D01*
X155575071Y-83588333D01*
X155532214Y-83683571D01*
X155532214Y-84207380D01*
X154503642Y-83207380D02*
X153946500Y-83207380D01*
X154246500Y-83588333D01*
X154117928Y-83588333D01*
X154032214Y-83635952D01*
X153989357Y-83683571D01*
X153946500Y-83778809D01*
X153946500Y-84016904D01*
X153989357Y-84112142D01*
X154032214Y-84159761D01*
X154117928Y-84207380D01*
X154375071Y-84207380D01*
X154460785Y-84159761D01*
X154503642Y-84112142D01*
X153603642Y-83302619D02*
X153560785Y-83255000D01*
X153475071Y-83207380D01*
X153260785Y-83207380D01*
X153175071Y-83255000D01*
X153132214Y-83302619D01*
X153089357Y-83397857D01*
X153089357Y-83493095D01*
X153132214Y-83635952D01*
X153646500Y-84207380D01*
X153089357Y-84207380D01*
X152232214Y-84207380D02*
X152746500Y-84207380D01*
X152489357Y-84207380D02*
X152489357Y-83207380D01*
X152575071Y-83350238D01*
X152660785Y-83445476D01*
X152746500Y-83493095D01*
X151460785Y-83207380D02*
X151632214Y-83207380D01*
X151717928Y-83255000D01*
X151760785Y-83302619D01*
X151846500Y-83445476D01*
X151889357Y-83635952D01*
X151889357Y-84016904D01*
X151846500Y-84112142D01*
X151803642Y-84159761D01*
X151717928Y-84207380D01*
X151546500Y-84207380D01*
X151460785Y-84159761D01*
X151417928Y-84112142D01*
X151375071Y-84016904D01*
X151375071Y-83778809D01*
X151417928Y-83683571D01*
X151460785Y-83635952D01*
X151546500Y-83588333D01*
X151717928Y-83588333D01*
X151803642Y-83635952D01*
X151846500Y-83683571D01*
X151889357Y-83778809D01*
X160803642Y-85857380D02*
X161232214Y-85857380D01*
X161232214Y-84857380D01*
X160632214Y-84857380D02*
X160117928Y-84857380D01*
X160375071Y-85857380D02*
X160375071Y-84857380D01*
X159346500Y-85857380D02*
X159860785Y-85857380D01*
X159603642Y-85857380D02*
X159603642Y-84857380D01*
X159689357Y-85000238D01*
X159775071Y-85095476D01*
X159860785Y-85143095D01*
X158789357Y-84857380D02*
X158703642Y-84857380D01*
X158617928Y-84905000D01*
X158575071Y-84952619D01*
X158532214Y-85047857D01*
X158489357Y-85238333D01*
X158489357Y-85476428D01*
X158532214Y-85666904D01*
X158575071Y-85762142D01*
X158617928Y-85809761D01*
X158703642Y-85857380D01*
X158789357Y-85857380D01*
X158875071Y-85809761D01*
X158917928Y-85762142D01*
X158960785Y-85666904D01*
X159003642Y-85476428D01*
X159003642Y-85238333D01*
X158960785Y-85047857D01*
X158917928Y-84952619D01*
X158875071Y-84905000D01*
X158789357Y-84857380D01*
X157975071Y-85285952D02*
X158060785Y-85238333D01*
X158103642Y-85190714D01*
X158146500Y-85095476D01*
X158146500Y-85047857D01*
X158103642Y-84952619D01*
X158060785Y-84905000D01*
X157975071Y-84857380D01*
X157803642Y-84857380D01*
X157717928Y-84905000D01*
X157675071Y-84952619D01*
X157632214Y-85047857D01*
X157632214Y-85095476D01*
X157675071Y-85190714D01*
X157717928Y-85238333D01*
X157803642Y-85285952D01*
X157975071Y-85285952D01*
X158060785Y-85333571D01*
X158103642Y-85381190D01*
X158146500Y-85476428D01*
X158146500Y-85666904D01*
X158103642Y-85762142D01*
X158060785Y-85809761D01*
X157975071Y-85857380D01*
X157803642Y-85857380D01*
X157717928Y-85809761D01*
X157675071Y-85762142D01*
X157632214Y-85666904D01*
X157632214Y-85476428D01*
X157675071Y-85381190D01*
X157717928Y-85333571D01*
X157803642Y-85285952D01*
X156817928Y-84857380D02*
X157246500Y-84857380D01*
X157289357Y-85333571D01*
X157246500Y-85285952D01*
X157160785Y-85238333D01*
X156946500Y-85238333D01*
X156860785Y-85285952D01*
X156817928Y-85333571D01*
X156775071Y-85428809D01*
X156775071Y-85666904D01*
X156817928Y-85762142D01*
X156860785Y-85809761D01*
X156946500Y-85857380D01*
X157160785Y-85857380D01*
X157246500Y-85809761D01*
X157289357Y-85762142D01*
X156346500Y-85809761D02*
X156346500Y-85857380D01*
X156389357Y-85952619D01*
X156432214Y-86000238D01*
X154846500Y-85857380D02*
X155275071Y-85857380D01*
X155275071Y-84857380D01*
X154546500Y-85857380D02*
X154546500Y-84857380D01*
X154332214Y-84857380D01*
X154203642Y-84905000D01*
X154117928Y-85000238D01*
X154075071Y-85095476D01*
X154032214Y-85285952D01*
X154032214Y-85428809D01*
X154075071Y-85619285D01*
X154117928Y-85714523D01*
X154203642Y-85809761D01*
X154332214Y-85857380D01*
X154546500Y-85857380D01*
X153175071Y-85857380D02*
X153689357Y-85857380D01*
X153432214Y-85857380D02*
X153432214Y-84857380D01*
X153517928Y-85000238D01*
X153603642Y-85095476D01*
X153689357Y-85143095D01*
X152617928Y-84857380D02*
X152532214Y-84857380D01*
X152446500Y-84905000D01*
X152403642Y-84952619D01*
X152360785Y-85047857D01*
X152317928Y-85238333D01*
X152317928Y-85476428D01*
X152360785Y-85666904D01*
X152403642Y-85762142D01*
X152446500Y-85809761D01*
X152532214Y-85857380D01*
X152617928Y-85857380D01*
X152703642Y-85809761D01*
X152746500Y-85762142D01*
X152789357Y-85666904D01*
X152832214Y-85476428D01*
X152832214Y-85238333D01*
X152789357Y-85047857D01*
X152746500Y-84952619D01*
X152703642Y-84905000D01*
X152617928Y-84857380D01*
X151803642Y-85285952D02*
X151889357Y-85238333D01*
X151932214Y-85190714D01*
X151975071Y-85095476D01*
X151975071Y-85047857D01*
X151932214Y-84952619D01*
X151889357Y-84905000D01*
X151803642Y-84857380D01*
X151632214Y-84857380D01*
X151546500Y-84905000D01*
X151503642Y-84952619D01*
X151460785Y-85047857D01*
X151460785Y-85095476D01*
X151503642Y-85190714D01*
X151546500Y-85238333D01*
X151632214Y-85285952D01*
X151803642Y-85285952D01*
X151889357Y-85333571D01*
X151932214Y-85381190D01*
X151975071Y-85476428D01*
X151975071Y-85666904D01*
X151932214Y-85762142D01*
X151889357Y-85809761D01*
X151803642Y-85857380D01*
X151632214Y-85857380D01*
X151546500Y-85809761D01*
X151503642Y-85762142D01*
X151460785Y-85666904D01*
X151460785Y-85476428D01*
X151503642Y-85381190D01*
X151546500Y-85333571D01*
X151632214Y-85285952D01*
X150646500Y-84857380D02*
X151075071Y-84857380D01*
X151117928Y-85333571D01*
X151075071Y-85285952D01*
X150989357Y-85238333D01*
X150775071Y-85238333D01*
X150689357Y-85285952D01*
X150646500Y-85333571D01*
X150603642Y-85428809D01*
X150603642Y-85666904D01*
X150646500Y-85762142D01*
X150689357Y-85809761D01*
X150775071Y-85857380D01*
X150989357Y-85857380D01*
X151075071Y-85809761D01*
X151117928Y-85762142D01*
X161103642Y-87507380D02*
X161189357Y-87459761D01*
X161232214Y-87412142D01*
X161275071Y-87316904D01*
X161275071Y-87031190D01*
X161232214Y-86935952D01*
X161189357Y-86888333D01*
X161103642Y-86840714D01*
X160975071Y-86840714D01*
X160889357Y-86888333D01*
X160846500Y-86935952D01*
X160803642Y-87031190D01*
X160803642Y-87316904D01*
X160846500Y-87412142D01*
X160889357Y-87459761D01*
X160975071Y-87507380D01*
X161103642Y-87507380D01*
X160417928Y-87507380D02*
X160417928Y-86840714D01*
X160417928Y-87031190D02*
X160375071Y-86935952D01*
X160332214Y-86888333D01*
X160246500Y-86840714D01*
X160160785Y-86840714D01*
X158746500Y-87507380D02*
X159175071Y-87507380D01*
X159175071Y-86507380D01*
X158446500Y-87507380D02*
X158446500Y-86507380D01*
X158146500Y-87221666D01*
X157846500Y-86507380D01*
X157846500Y-87507380D01*
X156946500Y-87507380D02*
X157460785Y-87507380D01*
X157203642Y-87507380D02*
X157203642Y-86507380D01*
X157289357Y-86650238D01*
X157375071Y-86745476D01*
X157460785Y-86793095D01*
X156389357Y-86507380D02*
X156303642Y-86507380D01*
X156217928Y-86555000D01*
X156175071Y-86602619D01*
X156132214Y-86697857D01*
X156089357Y-86888333D01*
X156089357Y-87126428D01*
X156132214Y-87316904D01*
X156175071Y-87412142D01*
X156217928Y-87459761D01*
X156303642Y-87507380D01*
X156389357Y-87507380D01*
X156475071Y-87459761D01*
X156517928Y-87412142D01*
X156560785Y-87316904D01*
X156603642Y-87126428D01*
X156603642Y-86888333D01*
X156560785Y-86697857D01*
X156517928Y-86602619D01*
X156475071Y-86555000D01*
X156389357Y-86507380D01*
X155575071Y-86935952D02*
X155660785Y-86888333D01*
X155703642Y-86840714D01*
X155746500Y-86745476D01*
X155746500Y-86697857D01*
X155703642Y-86602619D01*
X155660785Y-86555000D01*
X155575071Y-86507380D01*
X155403642Y-86507380D01*
X155317928Y-86555000D01*
X155275071Y-86602619D01*
X155232214Y-86697857D01*
X155232214Y-86745476D01*
X155275071Y-86840714D01*
X155317928Y-86888333D01*
X155403642Y-86935952D01*
X155575071Y-86935952D01*
X155660785Y-86983571D01*
X155703642Y-87031190D01*
X155746500Y-87126428D01*
X155746500Y-87316904D01*
X155703642Y-87412142D01*
X155660785Y-87459761D01*
X155575071Y-87507380D01*
X155403642Y-87507380D01*
X155317928Y-87459761D01*
X155275071Y-87412142D01*
X155232214Y-87316904D01*
X155232214Y-87126428D01*
X155275071Y-87031190D01*
X155317928Y-86983571D01*
X155403642Y-86935952D01*
X154417928Y-86507380D02*
X154846500Y-86507380D01*
X154889357Y-86983571D01*
X154846500Y-86935952D01*
X154760785Y-86888333D01*
X154546500Y-86888333D01*
X154460785Y-86935952D01*
X154417928Y-86983571D01*
X154375071Y-87078809D01*
X154375071Y-87316904D01*
X154417928Y-87412142D01*
X154460785Y-87459761D01*
X154546500Y-87507380D01*
X154760785Y-87507380D01*
X154846500Y-87459761D01*
X154889357Y-87412142D01*
X153346500Y-87221666D02*
X152917928Y-87221666D01*
X153432214Y-87507380D02*
X153132214Y-86507380D01*
X152832214Y-87507380D01*
X152532214Y-87507380D02*
X152532214Y-86507380D01*
X152317928Y-86507380D01*
X152189357Y-86555000D01*
X152103642Y-86650238D01*
X152060785Y-86745476D01*
X152017928Y-86935952D01*
X152017928Y-87078809D01*
X152060785Y-87269285D01*
X152103642Y-87364523D01*
X152189357Y-87459761D01*
X152317928Y-87507380D01*
X152532214Y-87507380D01*
X151375071Y-86507380D02*
X151375071Y-87221666D01*
X151417928Y-87364523D01*
X151503642Y-87459761D01*
X151632214Y-87507380D01*
X151717928Y-87507380D01*
X161232214Y-89157380D02*
X161232214Y-88157380D01*
X161017928Y-88157380D01*
X160889357Y-88205000D01*
X160803642Y-88300238D01*
X160760785Y-88395476D01*
X160717928Y-88585952D01*
X160717928Y-88728809D01*
X160760785Y-88919285D01*
X160803642Y-89014523D01*
X160889357Y-89109761D01*
X161017928Y-89157380D01*
X161232214Y-89157380D01*
X160332214Y-88776428D02*
X159646500Y-88776428D01*
X159217928Y-89157380D02*
X159217928Y-88157380D01*
X158875071Y-88157380D01*
X158789357Y-88205000D01*
X158746500Y-88252619D01*
X158703642Y-88347857D01*
X158703642Y-88490714D01*
X158746500Y-88585952D01*
X158789357Y-88633571D01*
X158875071Y-88681190D01*
X159217928Y-88681190D01*
X158360785Y-88871666D02*
X157932214Y-88871666D01*
X158446500Y-89157380D02*
X158146500Y-88157380D01*
X157846500Y-89157380D01*
X157546500Y-89157380D02*
X157546500Y-88157380D01*
X157032214Y-89157380D02*
X157417928Y-88585952D01*
X157032214Y-88157380D02*
X157546500Y-88728809D01*
X164781928Y-74307380D02*
X165081928Y-73831190D01*
X165296214Y-74307380D02*
X165296214Y-73307380D01*
X164953357Y-73307380D01*
X164867642Y-73355000D01*
X164824785Y-73402619D01*
X164781928Y-73497857D01*
X164781928Y-73640714D01*
X164824785Y-73735952D01*
X164867642Y-73783571D01*
X164953357Y-73831190D01*
X165296214Y-73831190D01*
X163924785Y-74307380D02*
X164439071Y-74307380D01*
X164181928Y-74307380D02*
X164181928Y-73307380D01*
X164267642Y-73450238D01*
X164353357Y-73545476D01*
X164439071Y-73593095D01*
X164781928Y-75957380D02*
X165081928Y-75481190D01*
X165296214Y-75957380D02*
X165296214Y-74957380D01*
X164953357Y-74957380D01*
X164867642Y-75005000D01*
X164824785Y-75052619D01*
X164781928Y-75147857D01*
X164781928Y-75290714D01*
X164824785Y-75385952D01*
X164867642Y-75433571D01*
X164953357Y-75481190D01*
X165296214Y-75481190D01*
X164439071Y-75052619D02*
X164396214Y-75005000D01*
X164310500Y-74957380D01*
X164096214Y-74957380D01*
X164010500Y-75005000D01*
X163967642Y-75052619D01*
X163924785Y-75147857D01*
X163924785Y-75243095D01*
X163967642Y-75385952D01*
X164481928Y-75957380D01*
X163924785Y-75957380D01*
X164781928Y-77607380D02*
X165081928Y-77131190D01*
X165296214Y-77607380D02*
X165296214Y-76607380D01*
X164953357Y-76607380D01*
X164867642Y-76655000D01*
X164824785Y-76702619D01*
X164781928Y-76797857D01*
X164781928Y-76940714D01*
X164824785Y-77035952D01*
X164867642Y-77083571D01*
X164953357Y-77131190D01*
X165296214Y-77131190D01*
X164481928Y-76607380D02*
X163924785Y-76607380D01*
X164224785Y-76988333D01*
X164096214Y-76988333D01*
X164010500Y-77035952D01*
X163967642Y-77083571D01*
X163924785Y-77178809D01*
X163924785Y-77416904D01*
X163967642Y-77512142D01*
X164010500Y-77559761D01*
X164096214Y-77607380D01*
X164353357Y-77607380D01*
X164439071Y-77559761D01*
X164481928Y-77512142D01*
X164781928Y-79162142D02*
X164824785Y-79209761D01*
X164953357Y-79257380D01*
X165039071Y-79257380D01*
X165167642Y-79209761D01*
X165253357Y-79114523D01*
X165296214Y-79019285D01*
X165339071Y-78828809D01*
X165339071Y-78685952D01*
X165296214Y-78495476D01*
X165253357Y-78400238D01*
X165167642Y-78305000D01*
X165039071Y-78257380D01*
X164953357Y-78257380D01*
X164824785Y-78305000D01*
X164781928Y-78352619D01*
X163924785Y-79257380D02*
X164439071Y-79257380D01*
X164181928Y-79257380D02*
X164181928Y-78257380D01*
X164267642Y-78400238D01*
X164353357Y-78495476D01*
X164439071Y-78543095D01*
X163539071Y-78876428D02*
X162853357Y-78876428D01*
X164781928Y-80812142D02*
X164824785Y-80859761D01*
X164953357Y-80907380D01*
X165039071Y-80907380D01*
X165167642Y-80859761D01*
X165253357Y-80764523D01*
X165296214Y-80669285D01*
X165339071Y-80478809D01*
X165339071Y-80335952D01*
X165296214Y-80145476D01*
X165253357Y-80050238D01*
X165167642Y-79955000D01*
X165039071Y-79907380D01*
X164953357Y-79907380D01*
X164824785Y-79955000D01*
X164781928Y-80002619D01*
X163924785Y-80907380D02*
X164439071Y-80907380D01*
X164181928Y-80907380D02*
X164181928Y-79907380D01*
X164267642Y-80050238D01*
X164353357Y-80145476D01*
X164439071Y-80193095D01*
X163153357Y-79907380D02*
X163324785Y-79907380D01*
X163410500Y-79955000D01*
X163453357Y-80002619D01*
X163539071Y-80145476D01*
X163581928Y-80335952D01*
X163581928Y-80716904D01*
X163539071Y-80812142D01*
X163496214Y-80859761D01*
X163410500Y-80907380D01*
X163239071Y-80907380D01*
X163153357Y-80859761D01*
X163110500Y-80812142D01*
X163067642Y-80716904D01*
X163067642Y-80478809D01*
X163110500Y-80383571D01*
X163153357Y-80335952D01*
X163239071Y-80288333D01*
X163410500Y-80288333D01*
X163496214Y-80335952D01*
X163539071Y-80383571D01*
X163581928Y-80478809D01*
X164781928Y-82462142D02*
X164824785Y-82509761D01*
X164953357Y-82557380D01*
X165039071Y-82557380D01*
X165167642Y-82509761D01*
X165253357Y-82414523D01*
X165296214Y-82319285D01*
X165339071Y-82128809D01*
X165339071Y-81985952D01*
X165296214Y-81795476D01*
X165253357Y-81700238D01*
X165167642Y-81605000D01*
X165039071Y-81557380D01*
X164953357Y-81557380D01*
X164824785Y-81605000D01*
X164781928Y-81652619D01*
X163924785Y-82557380D02*
X164439071Y-82557380D01*
X164181928Y-82557380D02*
X164181928Y-81557380D01*
X164267642Y-81700238D01*
X164353357Y-81795476D01*
X164439071Y-81843095D01*
X163624785Y-81557380D02*
X163024785Y-81557380D01*
X163410500Y-82557380D01*
X162681928Y-82176428D02*
X161996214Y-82176428D01*
X164781928Y-84112142D02*
X164824785Y-84159761D01*
X164953357Y-84207380D01*
X165039071Y-84207380D01*
X165167642Y-84159761D01*
X165253357Y-84064523D01*
X165296214Y-83969285D01*
X165339071Y-83778809D01*
X165339071Y-83635952D01*
X165296214Y-83445476D01*
X165253357Y-83350238D01*
X165167642Y-83255000D01*
X165039071Y-83207380D01*
X164953357Y-83207380D01*
X164824785Y-83255000D01*
X164781928Y-83302619D01*
X164439071Y-83302619D02*
X164396214Y-83255000D01*
X164310500Y-83207380D01*
X164096214Y-83207380D01*
X164010500Y-83255000D01*
X163967642Y-83302619D01*
X163924785Y-83397857D01*
X163924785Y-83493095D01*
X163967642Y-83635952D01*
X164481928Y-84207380D01*
X163924785Y-84207380D01*
X163367642Y-83207380D02*
X163281928Y-83207380D01*
X163196214Y-83255000D01*
X163153357Y-83302619D01*
X163110500Y-83397857D01*
X163067642Y-83588333D01*
X163067642Y-83826428D01*
X163110500Y-84016904D01*
X163153357Y-84112142D01*
X163196214Y-84159761D01*
X163281928Y-84207380D01*
X163367642Y-84207380D01*
X163453357Y-84159761D01*
X163496214Y-84112142D01*
X163539071Y-84016904D01*
X163581928Y-83826428D01*
X163581928Y-83588333D01*
X163539071Y-83397857D01*
X163496214Y-83302619D01*
X163453357Y-83255000D01*
X163367642Y-83207380D01*
X165296214Y-84857380D02*
X165296214Y-85666904D01*
X165253357Y-85762142D01*
X165210500Y-85809761D01*
X165124785Y-85857380D01*
X164953357Y-85857380D01*
X164867642Y-85809761D01*
X164824785Y-85762142D01*
X164781928Y-85666904D01*
X164781928Y-84857380D01*
X163881928Y-85857380D02*
X164396214Y-85857380D01*
X164139071Y-85857380D02*
X164139071Y-84857380D01*
X164224785Y-85000238D01*
X164310500Y-85095476D01*
X164396214Y-85143095D01*
D12*
%TO.C,C11*%
X156570000Y-93421252D02*
X156570000Y-91998748D01*
X158390000Y-93421252D02*
X158390000Y-91998748D01*
%TO.C,C10*%
X161650000Y-93421252D02*
X161650000Y-91998748D01*
X163470000Y-93421252D02*
X163470000Y-91998748D01*
%TO.C,C12*%
X153310000Y-93421252D02*
X153310000Y-91998748D01*
X151490000Y-93421252D02*
X151490000Y-91998748D01*
%TO.C,C2*%
X151490000Y-69138748D02*
X151490000Y-70561252D01*
X153310000Y-69138748D02*
X153310000Y-70561252D01*
%TO.C,C3*%
X158390000Y-69138748D02*
X158390000Y-70561252D01*
X156570000Y-69138748D02*
X156570000Y-70561252D01*
%TO.C,C4*%
X161650000Y-69138748D02*
X161650000Y-70561252D01*
X163470000Y-69138748D02*
X163470000Y-70561252D01*
%TO.C,C7*%
X169621252Y-82190000D02*
X168198748Y-82190000D01*
X169621252Y-80370000D02*
X168198748Y-80370000D01*
%TO.C,C6*%
X169621252Y-77110000D02*
X168198748Y-77110000D01*
X169621252Y-75290000D02*
X168198748Y-75290000D01*
%TO.C,C8*%
X169621252Y-85450000D02*
X168198748Y-85450000D01*
X169621252Y-87270000D02*
X168198748Y-87270000D01*
%TO.C,C14*%
X145338748Y-87270000D02*
X146761252Y-87270000D01*
X145338748Y-85450000D02*
X146761252Y-85450000D01*
%TO.C,C16*%
X145338748Y-75290000D02*
X146761252Y-75290000D01*
X145338748Y-77110000D02*
X146761252Y-77110000D01*
%TO.C,C15*%
X145338748Y-82190000D02*
X146761252Y-82190000D01*
X145338748Y-80370000D02*
X146761252Y-80370000D01*
%TO.C,C5*%
X170056398Y-69990536D02*
X169050536Y-70996398D01*
X168769464Y-68703602D02*
X167763602Y-69709464D01*
%TO.C,C9*%
X170056398Y-92569464D02*
X169050536Y-91563602D01*
X168769464Y-93856398D02*
X167763602Y-92850536D01*
%TO.C,C13*%
X144903602Y-92569464D02*
X145909464Y-91563602D01*
X146190536Y-93856398D02*
X147196398Y-92850536D01*
%TO.C,C1*%
X144903602Y-69990536D02*
X145909464Y-70996398D01*
X146190536Y-68703602D02*
X147196398Y-69709464D01*
D13*
%TO.C,HR17*%
X140900000Y-101600000D02*
G75*
G03*
X140900000Y-101600000I-1200000J0D01*
G01*
%TO.C,HR14*%
X140900000Y-93980000D02*
G75*
G03*
X140900000Y-93980000I-1200000J0D01*
G01*
%TO.C,HR11*%
X140900000Y-86360000D02*
G75*
G03*
X140900000Y-86360000I-1200000J0D01*
G01*
%TO.C,HR10*%
X140900000Y-83820000D02*
G75*
G03*
X140900000Y-83820000I-1200000J0D01*
G01*
%TO.C,HR9*%
X140900000Y-81280000D02*
G75*
G03*
X140900000Y-81280000I-1200000J0D01*
G01*
%TO.C,HR8*%
X140900000Y-78740000D02*
G75*
G03*
X140900000Y-78740000I-1200000J0D01*
G01*
%TO.C,HR6*%
X140900000Y-73660000D02*
G75*
G03*
X140900000Y-73660000I-1200000J0D01*
G01*
%TO.C,HR3*%
X140900000Y-66040000D02*
G75*
G03*
X140900000Y-66040000I-1200000J0D01*
G01*
%TO.C,HP16*%
X145980000Y-99060000D02*
G75*
G03*
X145980000Y-99060000I-1200000J0D01*
G01*
%TO.C,HM16*%
X151060000Y-99060000D02*
G75*
G03*
X151060000Y-99060000I-1200000J0D01*
G01*
%TO.C,HM2*%
X151060000Y-63500000D02*
G75*
G03*
X151060000Y-63500000I-1200000J0D01*
G01*
%TO.C,HL16*%
X153600000Y-99060000D02*
G75*
G03*
X153600000Y-99060000I-1200000J0D01*
G01*
%TO.C,HK16*%
X156140000Y-99060000D02*
G75*
G03*
X156140000Y-99060000I-1200000J0D01*
G01*
%TO.C,HK2*%
X156140000Y-63500000D02*
G75*
G03*
X156140000Y-63500000I-1200000J0D01*
G01*
%TO.C,HH16*%
X161220000Y-99060000D02*
G75*
G03*
X161220000Y-99060000I-1200000J0D01*
G01*
%TO.C,HG16*%
X163760000Y-99060000D02*
G75*
G03*
X163760000Y-99060000I-1200000J0D01*
G01*
%TO.C,HG2*%
X163760000Y-63500000D02*
G75*
G03*
X163760000Y-63500000I-1200000J0D01*
G01*
%TO.C,HE16*%
X168840000Y-99060000D02*
G75*
G03*
X168840000Y-99060000I-1200000J0D01*
G01*
%TO.C,HE2*%
X168840000Y-63500000D02*
G75*
G03*
X168840000Y-63500000I-1200000J0D01*
G01*
%TO.C,HC5*%
X173920000Y-71120000D02*
G75*
G03*
X173920000Y-71120000I-1200000J0D01*
G01*
%TO.C,HC4*%
X173920000Y-68580000D02*
G75*
G03*
X173920000Y-68580000I-1200000J0D01*
G01*
%TO.C,HB13*%
X176460000Y-91440000D02*
G75*
G03*
X176460000Y-91440000I-1200000J0D01*
G01*
%TO.C,HB11*%
X176460000Y-86360000D02*
G75*
G03*
X176460000Y-86360000I-1200000J0D01*
G01*
%TO.C,HB9*%
X176460000Y-81280000D02*
G75*
G03*
X176460000Y-81280000I-1200000J0D01*
G01*
%TO.C,HB7*%
X176460000Y-76200000D02*
G75*
G03*
X176460000Y-76200000I-1200000J0D01*
G01*
%TO.C,C11*%
D10*
X159687142Y-92067142D02*
X159734761Y-92019523D01*
X159782380Y-91876666D01*
X159782380Y-91781428D01*
X159734761Y-91638571D01*
X159639523Y-91543333D01*
X159544285Y-91495714D01*
X159353809Y-91448095D01*
X159210952Y-91448095D01*
X159020476Y-91495714D01*
X158925238Y-91543333D01*
X158830000Y-91638571D01*
X158782380Y-91781428D01*
X158782380Y-91876666D01*
X158830000Y-92019523D01*
X158877619Y-92067142D01*
X159782380Y-93019523D02*
X159782380Y-92448095D01*
X159782380Y-92733809D02*
X158782380Y-92733809D01*
X158925238Y-92638571D01*
X159020476Y-92543333D01*
X159068095Y-92448095D01*
X159782380Y-93971904D02*
X159782380Y-93400476D01*
X159782380Y-93686190D02*
X158782380Y-93686190D01*
X158925238Y-93590952D01*
X159020476Y-93495714D01*
X159068095Y-93400476D01*
%TO.C,C10*%
X164767142Y-92067142D02*
X164814761Y-92019523D01*
X164862380Y-91876666D01*
X164862380Y-91781428D01*
X164814761Y-91638571D01*
X164719523Y-91543333D01*
X164624285Y-91495714D01*
X164433809Y-91448095D01*
X164290952Y-91448095D01*
X164100476Y-91495714D01*
X164005238Y-91543333D01*
X163910000Y-91638571D01*
X163862380Y-91781428D01*
X163862380Y-91876666D01*
X163910000Y-92019523D01*
X163957619Y-92067142D01*
X164862380Y-93019523D02*
X164862380Y-92448095D01*
X164862380Y-92733809D02*
X163862380Y-92733809D01*
X164005238Y-92638571D01*
X164100476Y-92543333D01*
X164148095Y-92448095D01*
X163862380Y-93638571D02*
X163862380Y-93733809D01*
X163910000Y-93829047D01*
X163957619Y-93876666D01*
X164052857Y-93924285D01*
X164243333Y-93971904D01*
X164481428Y-93971904D01*
X164671904Y-93924285D01*
X164767142Y-93876666D01*
X164814761Y-93829047D01*
X164862380Y-93733809D01*
X164862380Y-93638571D01*
X164814761Y-93543333D01*
X164767142Y-93495714D01*
X164671904Y-93448095D01*
X164481428Y-93400476D01*
X164243333Y-93400476D01*
X164052857Y-93448095D01*
X163957619Y-93495714D01*
X163910000Y-93543333D01*
X163862380Y-93638571D01*
%TO.C,C12*%
X154607142Y-92067142D02*
X154654761Y-92019523D01*
X154702380Y-91876666D01*
X154702380Y-91781428D01*
X154654761Y-91638571D01*
X154559523Y-91543333D01*
X154464285Y-91495714D01*
X154273809Y-91448095D01*
X154130952Y-91448095D01*
X153940476Y-91495714D01*
X153845238Y-91543333D01*
X153750000Y-91638571D01*
X153702380Y-91781428D01*
X153702380Y-91876666D01*
X153750000Y-92019523D01*
X153797619Y-92067142D01*
X154702380Y-93019523D02*
X154702380Y-92448095D01*
X154702380Y-92733809D02*
X153702380Y-92733809D01*
X153845238Y-92638571D01*
X153940476Y-92543333D01*
X153988095Y-92448095D01*
X153797619Y-93400476D02*
X153750000Y-93448095D01*
X153702380Y-93543333D01*
X153702380Y-93781428D01*
X153750000Y-93876666D01*
X153797619Y-93924285D01*
X153892857Y-93971904D01*
X153988095Y-93971904D01*
X154130952Y-93924285D01*
X154702380Y-93352857D01*
X154702380Y-93971904D01*
%TO.C,C2*%
X150907142Y-69683333D02*
X150954761Y-69635714D01*
X151002380Y-69492857D01*
X151002380Y-69397619D01*
X150954761Y-69254761D01*
X150859523Y-69159523D01*
X150764285Y-69111904D01*
X150573809Y-69064285D01*
X150430952Y-69064285D01*
X150240476Y-69111904D01*
X150145238Y-69159523D01*
X150050000Y-69254761D01*
X150002380Y-69397619D01*
X150002380Y-69492857D01*
X150050000Y-69635714D01*
X150097619Y-69683333D01*
X150097619Y-70064285D02*
X150050000Y-70111904D01*
X150002380Y-70207142D01*
X150002380Y-70445238D01*
X150050000Y-70540476D01*
X150097619Y-70588095D01*
X150192857Y-70635714D01*
X150288095Y-70635714D01*
X150430952Y-70588095D01*
X151002380Y-70016666D01*
X151002380Y-70635714D01*
%TO.C,C3*%
X155987142Y-69683333D02*
X156034761Y-69635714D01*
X156082380Y-69492857D01*
X156082380Y-69397619D01*
X156034761Y-69254761D01*
X155939523Y-69159523D01*
X155844285Y-69111904D01*
X155653809Y-69064285D01*
X155510952Y-69064285D01*
X155320476Y-69111904D01*
X155225238Y-69159523D01*
X155130000Y-69254761D01*
X155082380Y-69397619D01*
X155082380Y-69492857D01*
X155130000Y-69635714D01*
X155177619Y-69683333D01*
X155082380Y-70016666D02*
X155082380Y-70635714D01*
X155463333Y-70302380D01*
X155463333Y-70445238D01*
X155510952Y-70540476D01*
X155558571Y-70588095D01*
X155653809Y-70635714D01*
X155891904Y-70635714D01*
X155987142Y-70588095D01*
X156034761Y-70540476D01*
X156082380Y-70445238D01*
X156082380Y-70159523D01*
X156034761Y-70064285D01*
X155987142Y-70016666D01*
%TO.C,C4*%
X161067142Y-69683333D02*
X161114761Y-69635714D01*
X161162380Y-69492857D01*
X161162380Y-69397619D01*
X161114761Y-69254761D01*
X161019523Y-69159523D01*
X160924285Y-69111904D01*
X160733809Y-69064285D01*
X160590952Y-69064285D01*
X160400476Y-69111904D01*
X160305238Y-69159523D01*
X160210000Y-69254761D01*
X160162380Y-69397619D01*
X160162380Y-69492857D01*
X160210000Y-69635714D01*
X160257619Y-69683333D01*
X160495714Y-70540476D02*
X161162380Y-70540476D01*
X160114761Y-70302380D02*
X160829047Y-70064285D01*
X160829047Y-70683333D01*
%TO.C,C7*%
X169076666Y-79787142D02*
X169124285Y-79834761D01*
X169267142Y-79882380D01*
X169362380Y-79882380D01*
X169505238Y-79834761D01*
X169600476Y-79739523D01*
X169648095Y-79644285D01*
X169695714Y-79453809D01*
X169695714Y-79310952D01*
X169648095Y-79120476D01*
X169600476Y-79025238D01*
X169505238Y-78930000D01*
X169362380Y-78882380D01*
X169267142Y-78882380D01*
X169124285Y-78930000D01*
X169076666Y-78977619D01*
X168743333Y-78882380D02*
X168076666Y-78882380D01*
X168505238Y-79882380D01*
%TO.C,C6*%
X169076666Y-74707142D02*
X169124285Y-74754761D01*
X169267142Y-74802380D01*
X169362380Y-74802380D01*
X169505238Y-74754761D01*
X169600476Y-74659523D01*
X169648095Y-74564285D01*
X169695714Y-74373809D01*
X169695714Y-74230952D01*
X169648095Y-74040476D01*
X169600476Y-73945238D01*
X169505238Y-73850000D01*
X169362380Y-73802380D01*
X169267142Y-73802380D01*
X169124285Y-73850000D01*
X169076666Y-73897619D01*
X168219523Y-73802380D02*
X168410000Y-73802380D01*
X168505238Y-73850000D01*
X168552857Y-73897619D01*
X168648095Y-74040476D01*
X168695714Y-74230952D01*
X168695714Y-74611904D01*
X168648095Y-74707142D01*
X168600476Y-74754761D01*
X168505238Y-74802380D01*
X168314761Y-74802380D01*
X168219523Y-74754761D01*
X168171904Y-74707142D01*
X168124285Y-74611904D01*
X168124285Y-74373809D01*
X168171904Y-74278571D01*
X168219523Y-74230952D01*
X168314761Y-74183333D01*
X168505238Y-74183333D01*
X168600476Y-74230952D01*
X168648095Y-74278571D01*
X168695714Y-74373809D01*
%TO.C,C8*%
X169076666Y-84867142D02*
X169124285Y-84914761D01*
X169267142Y-84962380D01*
X169362380Y-84962380D01*
X169505238Y-84914761D01*
X169600476Y-84819523D01*
X169648095Y-84724285D01*
X169695714Y-84533809D01*
X169695714Y-84390952D01*
X169648095Y-84200476D01*
X169600476Y-84105238D01*
X169505238Y-84010000D01*
X169362380Y-83962380D01*
X169267142Y-83962380D01*
X169124285Y-84010000D01*
X169076666Y-84057619D01*
X168505238Y-84390952D02*
X168600476Y-84343333D01*
X168648095Y-84295714D01*
X168695714Y-84200476D01*
X168695714Y-84152857D01*
X168648095Y-84057619D01*
X168600476Y-84010000D01*
X168505238Y-83962380D01*
X168314761Y-83962380D01*
X168219523Y-84010000D01*
X168171904Y-84057619D01*
X168124285Y-84152857D01*
X168124285Y-84200476D01*
X168171904Y-84295714D01*
X168219523Y-84343333D01*
X168314761Y-84390952D01*
X168505238Y-84390952D01*
X168600476Y-84438571D01*
X168648095Y-84486190D01*
X168695714Y-84581428D01*
X168695714Y-84771904D01*
X168648095Y-84867142D01*
X168600476Y-84914761D01*
X168505238Y-84962380D01*
X168314761Y-84962380D01*
X168219523Y-84914761D01*
X168171904Y-84867142D01*
X168124285Y-84771904D01*
X168124285Y-84581428D01*
X168171904Y-84486190D01*
X168219523Y-84438571D01*
X168314761Y-84390952D01*
%TO.C,C14*%
X146692857Y-88567142D02*
X146740476Y-88614761D01*
X146883333Y-88662380D01*
X146978571Y-88662380D01*
X147121428Y-88614761D01*
X147216666Y-88519523D01*
X147264285Y-88424285D01*
X147311904Y-88233809D01*
X147311904Y-88090952D01*
X147264285Y-87900476D01*
X147216666Y-87805238D01*
X147121428Y-87710000D01*
X146978571Y-87662380D01*
X146883333Y-87662380D01*
X146740476Y-87710000D01*
X146692857Y-87757619D01*
X145740476Y-88662380D02*
X146311904Y-88662380D01*
X146026190Y-88662380D02*
X146026190Y-87662380D01*
X146121428Y-87805238D01*
X146216666Y-87900476D01*
X146311904Y-87948095D01*
X144883333Y-87995714D02*
X144883333Y-88662380D01*
X145121428Y-87614761D02*
X145359523Y-88329047D01*
X144740476Y-88329047D01*
%TO.C,C16*%
X146692857Y-78407142D02*
X146740476Y-78454761D01*
X146883333Y-78502380D01*
X146978571Y-78502380D01*
X147121428Y-78454761D01*
X147216666Y-78359523D01*
X147264285Y-78264285D01*
X147311904Y-78073809D01*
X147311904Y-77930952D01*
X147264285Y-77740476D01*
X147216666Y-77645238D01*
X147121428Y-77550000D01*
X146978571Y-77502380D01*
X146883333Y-77502380D01*
X146740476Y-77550000D01*
X146692857Y-77597619D01*
X145740476Y-78502380D02*
X146311904Y-78502380D01*
X146026190Y-78502380D02*
X146026190Y-77502380D01*
X146121428Y-77645238D01*
X146216666Y-77740476D01*
X146311904Y-77788095D01*
X144883333Y-77502380D02*
X145073809Y-77502380D01*
X145169047Y-77550000D01*
X145216666Y-77597619D01*
X145311904Y-77740476D01*
X145359523Y-77930952D01*
X145359523Y-78311904D01*
X145311904Y-78407142D01*
X145264285Y-78454761D01*
X145169047Y-78502380D01*
X144978571Y-78502380D01*
X144883333Y-78454761D01*
X144835714Y-78407142D01*
X144788095Y-78311904D01*
X144788095Y-78073809D01*
X144835714Y-77978571D01*
X144883333Y-77930952D01*
X144978571Y-77883333D01*
X145169047Y-77883333D01*
X145264285Y-77930952D01*
X145311904Y-77978571D01*
X145359523Y-78073809D01*
%TO.C,C15*%
X146692857Y-83487142D02*
X146740476Y-83534761D01*
X146883333Y-83582380D01*
X146978571Y-83582380D01*
X147121428Y-83534761D01*
X147216666Y-83439523D01*
X147264285Y-83344285D01*
X147311904Y-83153809D01*
X147311904Y-83010952D01*
X147264285Y-82820476D01*
X147216666Y-82725238D01*
X147121428Y-82630000D01*
X146978571Y-82582380D01*
X146883333Y-82582380D01*
X146740476Y-82630000D01*
X146692857Y-82677619D01*
X145740476Y-83582380D02*
X146311904Y-83582380D01*
X146026190Y-83582380D02*
X146026190Y-82582380D01*
X146121428Y-82725238D01*
X146216666Y-82820476D01*
X146311904Y-82868095D01*
X144835714Y-82582380D02*
X145311904Y-82582380D01*
X145359523Y-83058571D01*
X145311904Y-83010952D01*
X145216666Y-82963333D01*
X144978571Y-82963333D01*
X144883333Y-83010952D01*
X144835714Y-83058571D01*
X144788095Y-83153809D01*
X144788095Y-83391904D01*
X144835714Y-83487142D01*
X144883333Y-83534761D01*
X144978571Y-83582380D01*
X145216666Y-83582380D01*
X145311904Y-83534761D01*
X145359523Y-83487142D01*
%TO.C,C5*%
X167972241Y-68676539D02*
X168039584Y-68676539D01*
X168174271Y-68609195D01*
X168241615Y-68541852D01*
X168308958Y-68407164D01*
X168308958Y-68272477D01*
X168275287Y-68171462D01*
X168174271Y-68003103D01*
X168073256Y-67902088D01*
X167904897Y-67801073D01*
X167803882Y-67767401D01*
X167669195Y-67767401D01*
X167534508Y-67834745D01*
X167467164Y-67902088D01*
X167399821Y-68036775D01*
X167399821Y-68104119D01*
X166692714Y-68676539D02*
X167029432Y-68339821D01*
X167399821Y-68642867D01*
X167332477Y-68642867D01*
X167231462Y-68676539D01*
X167063103Y-68844897D01*
X167029432Y-68945913D01*
X167029432Y-69013256D01*
X167063103Y-69114271D01*
X167231462Y-69282630D01*
X167332477Y-69316302D01*
X167399821Y-69316302D01*
X167500836Y-69282630D01*
X167669195Y-69114271D01*
X167702867Y-69013256D01*
X167702867Y-68945913D01*
%TO.C,C9*%
X170083460Y-91772241D02*
X170083460Y-91839584D01*
X170150804Y-91974271D01*
X170218148Y-92041615D01*
X170352835Y-92108958D01*
X170487522Y-92108958D01*
X170588537Y-92075287D01*
X170756896Y-91974271D01*
X170857911Y-91873256D01*
X170958926Y-91704897D01*
X170992598Y-91603882D01*
X170992598Y-91469195D01*
X170925254Y-91334508D01*
X170857911Y-91267164D01*
X170723224Y-91199821D01*
X170655880Y-91199821D01*
X169679399Y-91502867D02*
X169544712Y-91368180D01*
X169511041Y-91267164D01*
X169511041Y-91199821D01*
X169544712Y-91031462D01*
X169645728Y-90863103D01*
X169915102Y-90593729D01*
X170016117Y-90560058D01*
X170083460Y-90560058D01*
X170184476Y-90593729D01*
X170319163Y-90728416D01*
X170352835Y-90829432D01*
X170352835Y-90896775D01*
X170319163Y-90997790D01*
X170150804Y-91166149D01*
X170049789Y-91199821D01*
X169982445Y-91199821D01*
X169881430Y-91166149D01*
X169746743Y-91031462D01*
X169713071Y-90930447D01*
X169713071Y-90863103D01*
X169746743Y-90762088D01*
%TO.C,C13*%
X148065254Y-93816117D02*
X148132598Y-93816117D01*
X148267285Y-93748773D01*
X148334628Y-93681430D01*
X148401972Y-93546743D01*
X148401972Y-93412056D01*
X148368300Y-93311041D01*
X148267285Y-93142682D01*
X148166270Y-93041667D01*
X147997911Y-92940651D01*
X147896896Y-92906980D01*
X147762209Y-92906980D01*
X147627522Y-92974323D01*
X147560178Y-93041667D01*
X147492835Y-93176354D01*
X147492835Y-93243697D01*
X147459163Y-94556896D02*
X147863224Y-94152835D01*
X147661193Y-94354865D02*
X146954086Y-93647758D01*
X147122445Y-93681430D01*
X147257132Y-93681430D01*
X147358148Y-93647758D01*
X146516354Y-94085491D02*
X146078621Y-94523224D01*
X146583697Y-94556896D01*
X146482682Y-94657911D01*
X146449010Y-94758926D01*
X146449010Y-94826270D01*
X146482682Y-94927285D01*
X146651041Y-95095644D01*
X146752056Y-95129315D01*
X146819399Y-95129315D01*
X146920415Y-95095644D01*
X147122445Y-94893613D01*
X147156117Y-94792598D01*
X147156117Y-94725254D01*
%TO.C,C1*%
X144607164Y-71528537D02*
X144607164Y-71595880D01*
X144674508Y-71730567D01*
X144741852Y-71797911D01*
X144876539Y-71865254D01*
X145011226Y-71865254D01*
X145112241Y-71831583D01*
X145280600Y-71730567D01*
X145381615Y-71629552D01*
X145482630Y-71461193D01*
X145516302Y-71360178D01*
X145516302Y-71225491D01*
X145448958Y-71090804D01*
X145381615Y-71023460D01*
X145246928Y-70956117D01*
X145179584Y-70956117D01*
X143866386Y-70922445D02*
X144270447Y-71326506D01*
X144068416Y-71124476D02*
X144775523Y-70417369D01*
X144741852Y-70585728D01*
X144741852Y-70720415D01*
X144775523Y-70821430D01*
%TD*%
M02*
