%TF.GenerationSoftware,KiCad,Pcbnew,(5.1.9)-1*%
%TF.CreationDate,2021-07-26T22:25:13+08:00*%
%TF.ProjectId,BR-2slash3A,42522d32-736c-4617-9368-33412e6b6963,rev?*%
%TF.SameCoordinates,Original*%
%TF.FileFunction,Legend,Top*%
%TF.FilePolarity,Positive*%
%FSLAX46Y46*%
G04 Gerber Fmt 4.6, Leading zero omitted, Abs format (unit mm)*
G04 Created by KiCad (PCBNEW (5.1.9)-1) date 2021-07-26 22:25:13*
%MOMM*%
%LPD*%
G01*
G04 APERTURE LIST*
%ADD10C,0.150000*%
%ADD11C,0.120000*%
G04 APERTURE END LIST*
D10*
X127945619Y-88337380D02*
X127945619Y-87337380D01*
X128183714Y-87337380D01*
X128326571Y-87385000D01*
X128421809Y-87480238D01*
X128469428Y-87575476D01*
X128517047Y-87765952D01*
X128517047Y-87908809D01*
X128469428Y-88099285D01*
X128421809Y-88194523D01*
X128326571Y-88289761D01*
X128183714Y-88337380D01*
X127945619Y-88337380D01*
X129326571Y-88289761D02*
X129231333Y-88337380D01*
X129040857Y-88337380D01*
X128945619Y-88289761D01*
X128898000Y-88194523D01*
X128898000Y-87813571D01*
X128945619Y-87718333D01*
X129040857Y-87670714D01*
X129231333Y-87670714D01*
X129326571Y-87718333D01*
X129374190Y-87813571D01*
X129374190Y-87908809D01*
X128898000Y-88004047D01*
X129755142Y-88289761D02*
X129850380Y-88337380D01*
X130040857Y-88337380D01*
X130136095Y-88289761D01*
X130183714Y-88194523D01*
X130183714Y-88146904D01*
X130136095Y-88051666D01*
X130040857Y-88004047D01*
X129898000Y-88004047D01*
X129802761Y-87956428D01*
X129755142Y-87861190D01*
X129755142Y-87813571D01*
X129802761Y-87718333D01*
X129898000Y-87670714D01*
X130040857Y-87670714D01*
X130136095Y-87718333D01*
X130612285Y-88337380D02*
X130612285Y-87670714D01*
X130612285Y-87337380D02*
X130564666Y-87385000D01*
X130612285Y-87432619D01*
X130659904Y-87385000D01*
X130612285Y-87337380D01*
X130612285Y-87432619D01*
X131517047Y-87670714D02*
X131517047Y-88480238D01*
X131469428Y-88575476D01*
X131421809Y-88623095D01*
X131326571Y-88670714D01*
X131183714Y-88670714D01*
X131088476Y-88623095D01*
X131517047Y-88289761D02*
X131421809Y-88337380D01*
X131231333Y-88337380D01*
X131136095Y-88289761D01*
X131088476Y-88242142D01*
X131040857Y-88146904D01*
X131040857Y-87861190D01*
X131088476Y-87765952D01*
X131136095Y-87718333D01*
X131231333Y-87670714D01*
X131421809Y-87670714D01*
X131517047Y-87718333D01*
X131993238Y-87670714D02*
X131993238Y-88337380D01*
X131993238Y-87765952D02*
X132040857Y-87718333D01*
X132136095Y-87670714D01*
X132278952Y-87670714D01*
X132374190Y-87718333D01*
X132421809Y-87813571D01*
X132421809Y-88337380D01*
X133659904Y-87670714D02*
X133659904Y-88670714D01*
X133659904Y-87718333D02*
X133755142Y-87670714D01*
X133945619Y-87670714D01*
X134040857Y-87718333D01*
X134088476Y-87765952D01*
X134136095Y-87861190D01*
X134136095Y-88146904D01*
X134088476Y-88242142D01*
X134040857Y-88289761D01*
X133945619Y-88337380D01*
X133755142Y-88337380D01*
X133659904Y-88289761D01*
X134707523Y-88337380D02*
X134612285Y-88289761D01*
X134564666Y-88194523D01*
X134564666Y-87337380D01*
X135517047Y-88337380D02*
X135517047Y-87813571D01*
X135469428Y-87718333D01*
X135374190Y-87670714D01*
X135183714Y-87670714D01*
X135088476Y-87718333D01*
X135517047Y-88289761D02*
X135421809Y-88337380D01*
X135183714Y-88337380D01*
X135088476Y-88289761D01*
X135040857Y-88194523D01*
X135040857Y-88099285D01*
X135088476Y-88004047D01*
X135183714Y-87956428D01*
X135421809Y-87956428D01*
X135517047Y-87908809D01*
X136421809Y-88289761D02*
X136326571Y-88337380D01*
X136136095Y-88337380D01*
X136040857Y-88289761D01*
X135993238Y-88242142D01*
X135945619Y-88146904D01*
X135945619Y-87861190D01*
X135993238Y-87765952D01*
X136040857Y-87718333D01*
X136136095Y-87670714D01*
X136326571Y-87670714D01*
X136421809Y-87718333D01*
X137231333Y-88289761D02*
X137136095Y-88337380D01*
X136945619Y-88337380D01*
X136850380Y-88289761D01*
X136802761Y-88194523D01*
X136802761Y-87813571D01*
X136850380Y-87718333D01*
X136945619Y-87670714D01*
X137136095Y-87670714D01*
X137231333Y-87718333D01*
X137278952Y-87813571D01*
X137278952Y-87908809D01*
X136802761Y-88004047D01*
X138136095Y-88337380D02*
X138136095Y-87337380D01*
X138136095Y-88289761D02*
X138040857Y-88337380D01*
X137850380Y-88337380D01*
X137755142Y-88289761D01*
X137707523Y-88242142D01*
X137659904Y-88146904D01*
X137659904Y-87861190D01*
X137707523Y-87765952D01*
X137755142Y-87718333D01*
X137850380Y-87670714D01*
X138040857Y-87670714D01*
X138136095Y-87718333D01*
X139374190Y-88337380D02*
X139374190Y-87670714D01*
X139374190Y-87337380D02*
X139326571Y-87385000D01*
X139374190Y-87432619D01*
X139421809Y-87385000D01*
X139374190Y-87337380D01*
X139374190Y-87432619D01*
X139850380Y-87670714D02*
X139850380Y-88337380D01*
X139850380Y-87765952D02*
X139898000Y-87718333D01*
X139993238Y-87670714D01*
X140136095Y-87670714D01*
X140231333Y-87718333D01*
X140278952Y-87813571D01*
X140278952Y-88337380D01*
X140612285Y-87670714D02*
X140993238Y-87670714D01*
X140755142Y-87337380D02*
X140755142Y-88194523D01*
X140802761Y-88289761D01*
X140898000Y-88337380D01*
X140993238Y-88337380D01*
X141469428Y-88337380D02*
X141374190Y-88289761D01*
X141326571Y-88242142D01*
X141278952Y-88146904D01*
X141278952Y-87861190D01*
X141326571Y-87765952D01*
X141374190Y-87718333D01*
X141469428Y-87670714D01*
X141612285Y-87670714D01*
X141707523Y-87718333D01*
X141755142Y-87765952D01*
X141802761Y-87861190D01*
X141802761Y-88146904D01*
X141755142Y-88242142D01*
X141707523Y-88289761D01*
X141612285Y-88337380D01*
X141469428Y-88337380D01*
X142850380Y-87670714D02*
X143231333Y-87670714D01*
X142993238Y-87337380D02*
X142993238Y-88194523D01*
X143040857Y-88289761D01*
X143136095Y-88337380D01*
X143231333Y-88337380D01*
X143564666Y-88337380D02*
X143564666Y-87337380D01*
X143993238Y-88337380D02*
X143993238Y-87813571D01*
X143945619Y-87718333D01*
X143850380Y-87670714D01*
X143707523Y-87670714D01*
X143612285Y-87718333D01*
X143564666Y-87765952D01*
X144850380Y-88289761D02*
X144755142Y-88337380D01*
X144564666Y-88337380D01*
X144469428Y-88289761D01*
X144421809Y-88194523D01*
X144421809Y-87813571D01*
X144469428Y-87718333D01*
X144564666Y-87670714D01*
X144755142Y-87670714D01*
X144850380Y-87718333D01*
X144898000Y-87813571D01*
X144898000Y-87908809D01*
X144421809Y-88004047D01*
X128898000Y-89320714D02*
X128898000Y-90320714D01*
X128898000Y-89368333D02*
X128993238Y-89320714D01*
X129183714Y-89320714D01*
X129278952Y-89368333D01*
X129326571Y-89415952D01*
X129374190Y-89511190D01*
X129374190Y-89796904D01*
X129326571Y-89892142D01*
X129278952Y-89939761D01*
X129183714Y-89987380D01*
X128993238Y-89987380D01*
X128898000Y-89939761D01*
X130231333Y-89320714D02*
X130231333Y-89987380D01*
X129802761Y-89320714D02*
X129802761Y-89844523D01*
X129850380Y-89939761D01*
X129945619Y-89987380D01*
X130088476Y-89987380D01*
X130183714Y-89939761D01*
X130231333Y-89892142D01*
X130707523Y-89987380D02*
X130707523Y-88987380D01*
X130707523Y-89368333D02*
X130802761Y-89320714D01*
X130993238Y-89320714D01*
X131088476Y-89368333D01*
X131136095Y-89415952D01*
X131183714Y-89511190D01*
X131183714Y-89796904D01*
X131136095Y-89892142D01*
X131088476Y-89939761D01*
X130993238Y-89987380D01*
X130802761Y-89987380D01*
X130707523Y-89939761D01*
X131755142Y-89987380D02*
X131659904Y-89939761D01*
X131612285Y-89844523D01*
X131612285Y-88987380D01*
X132136095Y-89987380D02*
X132136095Y-89320714D01*
X132136095Y-88987380D02*
X132088476Y-89035000D01*
X132136095Y-89082619D01*
X132183714Y-89035000D01*
X132136095Y-88987380D01*
X132136095Y-89082619D01*
X133040857Y-89939761D02*
X132945619Y-89987380D01*
X132755142Y-89987380D01*
X132659904Y-89939761D01*
X132612285Y-89892142D01*
X132564666Y-89796904D01*
X132564666Y-89511190D01*
X132612285Y-89415952D01*
X132659904Y-89368333D01*
X132755142Y-89320714D01*
X132945619Y-89320714D01*
X133040857Y-89368333D01*
X134659904Y-89987380D02*
X134659904Y-88987380D01*
X134659904Y-89939761D02*
X134564666Y-89987380D01*
X134374190Y-89987380D01*
X134278952Y-89939761D01*
X134231333Y-89892142D01*
X134183714Y-89796904D01*
X134183714Y-89511190D01*
X134231333Y-89415952D01*
X134278952Y-89368333D01*
X134374190Y-89320714D01*
X134564666Y-89320714D01*
X134659904Y-89368333D01*
X135278952Y-89987380D02*
X135183714Y-89939761D01*
X135136095Y-89892142D01*
X135088476Y-89796904D01*
X135088476Y-89511190D01*
X135136095Y-89415952D01*
X135183714Y-89368333D01*
X135278952Y-89320714D01*
X135421809Y-89320714D01*
X135517047Y-89368333D01*
X135564666Y-89415952D01*
X135612285Y-89511190D01*
X135612285Y-89796904D01*
X135564666Y-89892142D01*
X135517047Y-89939761D01*
X135421809Y-89987380D01*
X135278952Y-89987380D01*
X136040857Y-89987380D02*
X136040857Y-89320714D01*
X136040857Y-89415952D02*
X136088476Y-89368333D01*
X136183714Y-89320714D01*
X136326571Y-89320714D01*
X136421809Y-89368333D01*
X136469428Y-89463571D01*
X136469428Y-89987380D01*
X136469428Y-89463571D02*
X136517047Y-89368333D01*
X136612285Y-89320714D01*
X136755142Y-89320714D01*
X136850380Y-89368333D01*
X136898000Y-89463571D01*
X136898000Y-89987380D01*
X137802761Y-89987380D02*
X137802761Y-89463571D01*
X137755142Y-89368333D01*
X137659904Y-89320714D01*
X137469428Y-89320714D01*
X137374190Y-89368333D01*
X137802761Y-89939761D02*
X137707523Y-89987380D01*
X137469428Y-89987380D01*
X137374190Y-89939761D01*
X137326571Y-89844523D01*
X137326571Y-89749285D01*
X137374190Y-89654047D01*
X137469428Y-89606428D01*
X137707523Y-89606428D01*
X137802761Y-89558809D01*
X138278952Y-89987380D02*
X138278952Y-89320714D01*
X138278952Y-88987380D02*
X138231333Y-89035000D01*
X138278952Y-89082619D01*
X138326571Y-89035000D01*
X138278952Y-88987380D01*
X138278952Y-89082619D01*
X138755142Y-89320714D02*
X138755142Y-89987380D01*
X138755142Y-89415952D02*
X138802761Y-89368333D01*
X138898000Y-89320714D01*
X139040857Y-89320714D01*
X139136095Y-89368333D01*
X139183714Y-89463571D01*
X139183714Y-89987380D01*
X139659904Y-89892142D02*
X139707523Y-89939761D01*
X139659904Y-89987380D01*
X139612285Y-89939761D01*
X139659904Y-89892142D01*
X139659904Y-89987380D01*
X140898000Y-88987380D02*
X140898000Y-89796904D01*
X140945619Y-89892142D01*
X140993238Y-89939761D01*
X141088476Y-89987380D01*
X141278952Y-89987380D01*
X141374190Y-89939761D01*
X141421809Y-89892142D01*
X141469428Y-89796904D01*
X141469428Y-88987380D01*
X141898000Y-89939761D02*
X141993238Y-89987380D01*
X142183714Y-89987380D01*
X142278952Y-89939761D01*
X142326571Y-89844523D01*
X142326571Y-89796904D01*
X142278952Y-89701666D01*
X142183714Y-89654047D01*
X142040857Y-89654047D01*
X141945619Y-89606428D01*
X141898000Y-89511190D01*
X141898000Y-89463571D01*
X141945619Y-89368333D01*
X142040857Y-89320714D01*
X142183714Y-89320714D01*
X142278952Y-89368333D01*
X143136095Y-89939761D02*
X143040857Y-89987380D01*
X142850380Y-89987380D01*
X142755142Y-89939761D01*
X142707523Y-89844523D01*
X142707523Y-89463571D01*
X142755142Y-89368333D01*
X142850380Y-89320714D01*
X143040857Y-89320714D01*
X143136095Y-89368333D01*
X143183714Y-89463571D01*
X143183714Y-89558809D01*
X142707523Y-89654047D01*
X127755142Y-90970714D02*
X128136095Y-90970714D01*
X127898000Y-91637380D02*
X127898000Y-90780238D01*
X127945619Y-90685000D01*
X128040857Y-90637380D01*
X128136095Y-90637380D01*
X128469428Y-91637380D02*
X128469428Y-90970714D01*
X128469428Y-91161190D02*
X128517047Y-91065952D01*
X128564666Y-91018333D01*
X128659904Y-90970714D01*
X128755142Y-90970714D01*
X129469428Y-91589761D02*
X129374190Y-91637380D01*
X129183714Y-91637380D01*
X129088476Y-91589761D01*
X129040857Y-91494523D01*
X129040857Y-91113571D01*
X129088476Y-91018333D01*
X129183714Y-90970714D01*
X129374190Y-90970714D01*
X129469428Y-91018333D01*
X129517047Y-91113571D01*
X129517047Y-91208809D01*
X129040857Y-91304047D01*
X130326571Y-91589761D02*
X130231333Y-91637380D01*
X130040857Y-91637380D01*
X129945619Y-91589761D01*
X129898000Y-91494523D01*
X129898000Y-91113571D01*
X129945619Y-91018333D01*
X130040857Y-90970714D01*
X130231333Y-90970714D01*
X130326571Y-91018333D01*
X130374190Y-91113571D01*
X130374190Y-91208809D01*
X129898000Y-91304047D01*
X130945619Y-91637380D02*
X130850380Y-91589761D01*
X130802761Y-91494523D01*
X130802761Y-90637380D01*
X131231333Y-90970714D02*
X131469428Y-91637380D01*
X131707523Y-90970714D02*
X131469428Y-91637380D01*
X131374190Y-91875476D01*
X131326571Y-91923095D01*
X131231333Y-91970714D01*
X133278952Y-91637380D02*
X133278952Y-91113571D01*
X133231333Y-91018333D01*
X133136095Y-90970714D01*
X132945619Y-90970714D01*
X132850380Y-91018333D01*
X133278952Y-91589761D02*
X133183714Y-91637380D01*
X132945619Y-91637380D01*
X132850380Y-91589761D01*
X132802761Y-91494523D01*
X132802761Y-91399285D01*
X132850380Y-91304047D01*
X132945619Y-91256428D01*
X133183714Y-91256428D01*
X133278952Y-91208809D01*
X133755142Y-90970714D02*
X133755142Y-91637380D01*
X133755142Y-91065952D02*
X133802761Y-91018333D01*
X133898000Y-90970714D01*
X134040857Y-90970714D01*
X134136095Y-91018333D01*
X134183714Y-91113571D01*
X134183714Y-91637380D01*
X135088476Y-91637380D02*
X135088476Y-90637380D01*
X135088476Y-91589761D02*
X134993238Y-91637380D01*
X134802761Y-91637380D01*
X134707523Y-91589761D01*
X134659904Y-91542142D01*
X134612285Y-91446904D01*
X134612285Y-91161190D01*
X134659904Y-91065952D01*
X134707523Y-91018333D01*
X134802761Y-90970714D01*
X134993238Y-90970714D01*
X135088476Y-91018333D01*
X136755142Y-91637380D02*
X136755142Y-91113571D01*
X136707523Y-91018333D01*
X136612285Y-90970714D01*
X136421809Y-90970714D01*
X136326571Y-91018333D01*
X136755142Y-91589761D02*
X136659904Y-91637380D01*
X136421809Y-91637380D01*
X136326571Y-91589761D01*
X136278952Y-91494523D01*
X136278952Y-91399285D01*
X136326571Y-91304047D01*
X136421809Y-91256428D01*
X136659904Y-91256428D01*
X136755142Y-91208809D01*
X137088476Y-90970714D02*
X137469428Y-90970714D01*
X137231333Y-90637380D02*
X137231333Y-91494523D01*
X137278952Y-91589761D01*
X137374190Y-91637380D01*
X137469428Y-91637380D01*
X138707523Y-91637380D02*
X138612285Y-91589761D01*
X138564666Y-91542142D01*
X138517047Y-91446904D01*
X138517047Y-91161190D01*
X138564666Y-91065952D01*
X138612285Y-91018333D01*
X138707523Y-90970714D01*
X138850380Y-90970714D01*
X138945619Y-91018333D01*
X138993238Y-91065952D01*
X139040857Y-91161190D01*
X139040857Y-91446904D01*
X138993238Y-91542142D01*
X138945619Y-91589761D01*
X138850380Y-91637380D01*
X138707523Y-91637380D01*
X139374190Y-90970714D02*
X139564666Y-91637380D01*
X139755142Y-91161190D01*
X139945619Y-91637380D01*
X140136095Y-90970714D01*
X140517047Y-90970714D02*
X140517047Y-91637380D01*
X140517047Y-91065952D02*
X140564666Y-91018333D01*
X140659904Y-90970714D01*
X140802761Y-90970714D01*
X140898000Y-91018333D01*
X140945619Y-91113571D01*
X140945619Y-91637380D01*
X142183714Y-91637380D02*
X142183714Y-90970714D01*
X142183714Y-91161190D02*
X142231333Y-91065952D01*
X142278952Y-91018333D01*
X142374190Y-90970714D01*
X142469428Y-90970714D01*
X142802761Y-91637380D02*
X142802761Y-90970714D01*
X142802761Y-90637380D02*
X142755142Y-90685000D01*
X142802761Y-90732619D01*
X142850380Y-90685000D01*
X142802761Y-90637380D01*
X142802761Y-90732619D01*
X143231333Y-91589761D02*
X143326571Y-91637380D01*
X143517047Y-91637380D01*
X143612285Y-91589761D01*
X143659904Y-91494523D01*
X143659904Y-91446904D01*
X143612285Y-91351666D01*
X143517047Y-91304047D01*
X143374190Y-91304047D01*
X143278952Y-91256428D01*
X143231333Y-91161190D01*
X143231333Y-91113571D01*
X143278952Y-91018333D01*
X143374190Y-90970714D01*
X143517047Y-90970714D01*
X143612285Y-91018333D01*
X144088476Y-91637380D02*
X144088476Y-90637380D01*
X144183714Y-91256428D02*
X144469428Y-91637380D01*
X144469428Y-90970714D02*
X144088476Y-91351666D01*
X144898000Y-91542142D02*
X144945619Y-91589761D01*
X144898000Y-91637380D01*
X144850380Y-91589761D01*
X144898000Y-91542142D01*
X144898000Y-91637380D01*
X117000928Y-77780571D02*
X117143785Y-77828190D01*
X117191404Y-77875809D01*
X117239023Y-77971047D01*
X117239023Y-78113904D01*
X117191404Y-78209142D01*
X117143785Y-78256761D01*
X117048547Y-78304380D01*
X116667595Y-78304380D01*
X116667595Y-77304380D01*
X117000928Y-77304380D01*
X117096166Y-77352000D01*
X117143785Y-77399619D01*
X117191404Y-77494857D01*
X117191404Y-77590095D01*
X117143785Y-77685333D01*
X117096166Y-77732952D01*
X117000928Y-77780571D01*
X116667595Y-77780571D01*
X118239023Y-78304380D02*
X117905690Y-77828190D01*
X117667595Y-78304380D02*
X117667595Y-77304380D01*
X118048547Y-77304380D01*
X118143785Y-77352000D01*
X118191404Y-77399619D01*
X118239023Y-77494857D01*
X118239023Y-77637714D01*
X118191404Y-77732952D01*
X118143785Y-77780571D01*
X118048547Y-77828190D01*
X117667595Y-77828190D01*
X118667595Y-77923428D02*
X119429500Y-77923428D01*
X119858071Y-77399619D02*
X119905690Y-77352000D01*
X120000928Y-77304380D01*
X120239023Y-77304380D01*
X120334261Y-77352000D01*
X120381880Y-77399619D01*
X120429500Y-77494857D01*
X120429500Y-77590095D01*
X120381880Y-77732952D01*
X119810452Y-78304380D01*
X120429500Y-78304380D01*
X121572357Y-77256761D02*
X120715214Y-78542476D01*
X121810452Y-77304380D02*
X122429500Y-77304380D01*
X122096166Y-77685333D01*
X122239023Y-77685333D01*
X122334261Y-77732952D01*
X122381880Y-77780571D01*
X122429500Y-77875809D01*
X122429500Y-78113904D01*
X122381880Y-78209142D01*
X122334261Y-78256761D01*
X122239023Y-78304380D01*
X121953309Y-78304380D01*
X121858071Y-78256761D01*
X121810452Y-78209142D01*
X122810452Y-78018666D02*
X123286642Y-78018666D01*
X122715214Y-78304380D02*
X123048547Y-77304380D01*
X123381880Y-78304380D01*
X116524738Y-79287714D02*
X116905690Y-79287714D01*
X116667595Y-78954380D02*
X116667595Y-79811523D01*
X116715214Y-79906761D01*
X116810452Y-79954380D01*
X116905690Y-79954380D01*
X117381880Y-79954380D02*
X117286642Y-79906761D01*
X117239023Y-79859142D01*
X117191404Y-79763904D01*
X117191404Y-79478190D01*
X117239023Y-79382952D01*
X117286642Y-79335333D01*
X117381880Y-79287714D01*
X117524738Y-79287714D01*
X117619976Y-79335333D01*
X117667595Y-79382952D01*
X117715214Y-79478190D01*
X117715214Y-79763904D01*
X117667595Y-79859142D01*
X117619976Y-79906761D01*
X117524738Y-79954380D01*
X117381880Y-79954380D01*
X119477119Y-79859142D02*
X119429500Y-79906761D01*
X119286642Y-79954380D01*
X119191404Y-79954380D01*
X119048547Y-79906761D01*
X118953309Y-79811523D01*
X118905690Y-79716285D01*
X118858071Y-79525809D01*
X118858071Y-79382952D01*
X118905690Y-79192476D01*
X118953309Y-79097238D01*
X119048547Y-79002000D01*
X119191404Y-78954380D01*
X119286642Y-78954380D01*
X119429500Y-79002000D01*
X119477119Y-79049619D01*
X120477119Y-79954380D02*
X120143785Y-79478190D01*
X119905690Y-79954380D02*
X119905690Y-78954380D01*
X120286642Y-78954380D01*
X120381880Y-79002000D01*
X120429500Y-79049619D01*
X120477119Y-79144857D01*
X120477119Y-79287714D01*
X120429500Y-79382952D01*
X120381880Y-79430571D01*
X120286642Y-79478190D01*
X119905690Y-79478190D01*
X120858071Y-79049619D02*
X120905690Y-79002000D01*
X121000928Y-78954380D01*
X121239023Y-78954380D01*
X121334261Y-79002000D01*
X121381880Y-79049619D01*
X121429500Y-79144857D01*
X121429500Y-79240095D01*
X121381880Y-79382952D01*
X120810452Y-79954380D01*
X121429500Y-79954380D01*
X122048547Y-78954380D02*
X122143785Y-78954380D01*
X122239023Y-79002000D01*
X122286642Y-79049619D01*
X122334261Y-79144857D01*
X122381880Y-79335333D01*
X122381880Y-79573428D01*
X122334261Y-79763904D01*
X122286642Y-79859142D01*
X122239023Y-79906761D01*
X122143785Y-79954380D01*
X122048547Y-79954380D01*
X121953309Y-79906761D01*
X121905690Y-79859142D01*
X121858071Y-79763904D01*
X121810452Y-79573428D01*
X121810452Y-79335333D01*
X121858071Y-79144857D01*
X121905690Y-79049619D01*
X121953309Y-79002000D01*
X122048547Y-78954380D01*
X122715214Y-78954380D02*
X123334261Y-78954380D01*
X123000928Y-79335333D01*
X123143785Y-79335333D01*
X123239023Y-79382952D01*
X123286642Y-79430571D01*
X123334261Y-79525809D01*
X123334261Y-79763904D01*
X123286642Y-79859142D01*
X123239023Y-79906761D01*
X123143785Y-79954380D01*
X122858071Y-79954380D01*
X122762833Y-79906761D01*
X122715214Y-79859142D01*
X123715214Y-79049619D02*
X123762833Y-79002000D01*
X123858071Y-78954380D01*
X124096166Y-78954380D01*
X124191404Y-79002000D01*
X124239023Y-79049619D01*
X124286642Y-79144857D01*
X124286642Y-79240095D01*
X124239023Y-79382952D01*
X123667595Y-79954380D01*
X124286642Y-79954380D01*
X116619976Y-81318666D02*
X117096166Y-81318666D01*
X116524738Y-81604380D02*
X116858071Y-80604380D01*
X117191404Y-81604380D01*
X117953309Y-81604380D02*
X117953309Y-80604380D01*
X117953309Y-81556761D02*
X117858071Y-81604380D01*
X117667595Y-81604380D01*
X117572357Y-81556761D01*
X117524738Y-81509142D01*
X117477119Y-81413904D01*
X117477119Y-81128190D01*
X117524738Y-81032952D01*
X117572357Y-80985333D01*
X117667595Y-80937714D01*
X117858071Y-80937714D01*
X117953309Y-80985333D01*
X118858071Y-81604380D02*
X118858071Y-81080571D01*
X118810452Y-80985333D01*
X118715214Y-80937714D01*
X118524738Y-80937714D01*
X118429500Y-80985333D01*
X118858071Y-81556761D02*
X118762833Y-81604380D01*
X118524738Y-81604380D01*
X118429500Y-81556761D01*
X118381880Y-81461523D01*
X118381880Y-81366285D01*
X118429500Y-81271047D01*
X118524738Y-81223428D01*
X118762833Y-81223428D01*
X118858071Y-81175809D01*
X119334261Y-80937714D02*
X119334261Y-81937714D01*
X119334261Y-80985333D02*
X119429500Y-80937714D01*
X119619976Y-80937714D01*
X119715214Y-80985333D01*
X119762833Y-81032952D01*
X119810452Y-81128190D01*
X119810452Y-81413904D01*
X119762833Y-81509142D01*
X119715214Y-81556761D01*
X119619976Y-81604380D01*
X119429500Y-81604380D01*
X119334261Y-81556761D01*
X120096166Y-80937714D02*
X120477119Y-80937714D01*
X120239023Y-80604380D02*
X120239023Y-81461523D01*
X120286642Y-81556761D01*
X120381880Y-81604380D01*
X120477119Y-81604380D01*
X121191404Y-81556761D02*
X121096166Y-81604380D01*
X120905690Y-81604380D01*
X120810452Y-81556761D01*
X120762833Y-81461523D01*
X120762833Y-81080571D01*
X120810452Y-80985333D01*
X120905690Y-80937714D01*
X121096166Y-80937714D01*
X121191404Y-80985333D01*
X121239023Y-81080571D01*
X121239023Y-81175809D01*
X120762833Y-81271047D01*
X121667595Y-81604380D02*
X121667595Y-80937714D01*
X121667595Y-81128190D02*
X121715214Y-81032952D01*
X121762833Y-80985333D01*
X121858071Y-80937714D01*
X121953309Y-80937714D01*
X130739285Y-79447380D02*
X130739285Y-78447380D01*
X131310714Y-79447380D02*
X130882142Y-78875952D01*
X131310714Y-78447380D02*
X130739285Y-79018809D01*
X131739285Y-78923571D02*
X132072619Y-78923571D01*
X132215476Y-79447380D02*
X131739285Y-79447380D01*
X131739285Y-78447380D01*
X132215476Y-78447380D01*
X132834523Y-78971190D02*
X132834523Y-79447380D01*
X132501190Y-78447380D02*
X132834523Y-78971190D01*
X133167857Y-78447380D01*
X133453571Y-79399761D02*
X133596428Y-79447380D01*
X133834523Y-79447380D01*
X133929761Y-79399761D01*
X133977380Y-79352142D01*
X134025000Y-79256904D01*
X134025000Y-79161666D01*
X133977380Y-79066428D01*
X133929761Y-79018809D01*
X133834523Y-78971190D01*
X133644047Y-78923571D01*
X133548809Y-78875952D01*
X133501190Y-78828333D01*
X133453571Y-78733095D01*
X133453571Y-78637857D01*
X133501190Y-78542619D01*
X133548809Y-78495000D01*
X133644047Y-78447380D01*
X133882142Y-78447380D01*
X134025000Y-78495000D01*
X134310714Y-78447380D02*
X134882142Y-78447380D01*
X134596428Y-79447380D02*
X134596428Y-78447380D01*
X135405952Y-78447380D02*
X135596428Y-78447380D01*
X135691666Y-78495000D01*
X135786904Y-78590238D01*
X135834523Y-78780714D01*
X135834523Y-79114047D01*
X135786904Y-79304523D01*
X135691666Y-79399761D01*
X135596428Y-79447380D01*
X135405952Y-79447380D01*
X135310714Y-79399761D01*
X135215476Y-79304523D01*
X135167857Y-79114047D01*
X135167857Y-78780714D01*
X135215476Y-78590238D01*
X135310714Y-78495000D01*
X135405952Y-78447380D01*
X136263095Y-79447380D02*
X136263095Y-78447380D01*
X136834523Y-79447380D01*
X136834523Y-78447380D01*
X137310714Y-78923571D02*
X137644047Y-78923571D01*
X137786904Y-79447380D02*
X137310714Y-79447380D01*
X137310714Y-78447380D01*
X137786904Y-78447380D01*
X139501190Y-79447380D02*
X138929761Y-79447380D01*
X139215476Y-79447380D02*
X139215476Y-78447380D01*
X139120238Y-78590238D01*
X139025000Y-78685476D01*
X138929761Y-78733095D01*
X140120238Y-78447380D02*
X140215476Y-78447380D01*
X140310714Y-78495000D01*
X140358333Y-78542619D01*
X140405952Y-78637857D01*
X140453571Y-78828333D01*
X140453571Y-79066428D01*
X140405952Y-79256904D01*
X140358333Y-79352142D01*
X140310714Y-79399761D01*
X140215476Y-79447380D01*
X140120238Y-79447380D01*
X140025000Y-79399761D01*
X139977380Y-79352142D01*
X139929761Y-79256904D01*
X139882142Y-79066428D01*
X139882142Y-78828333D01*
X139929761Y-78637857D01*
X139977380Y-78542619D01*
X140025000Y-78495000D01*
X140120238Y-78447380D01*
X141310714Y-78447380D02*
X141120238Y-78447380D01*
X141025000Y-78495000D01*
X140977380Y-78542619D01*
X140882142Y-78685476D01*
X140834523Y-78875952D01*
X140834523Y-79256904D01*
X140882142Y-79352142D01*
X140929761Y-79399761D01*
X141025000Y-79447380D01*
X141215476Y-79447380D01*
X141310714Y-79399761D01*
X141358333Y-79352142D01*
X141405952Y-79256904D01*
X141405952Y-79018809D01*
X141358333Y-78923571D01*
X141310714Y-78875952D01*
X141215476Y-78828333D01*
X141025000Y-78828333D01*
X140929761Y-78875952D01*
X140882142Y-78923571D01*
X140834523Y-79018809D01*
X142025000Y-78447380D02*
X142120238Y-78447380D01*
X142215476Y-78495000D01*
X142263095Y-78542619D01*
X142310714Y-78637857D01*
X142358333Y-78828333D01*
X142358333Y-79066428D01*
X142310714Y-79256904D01*
X142263095Y-79352142D01*
X142215476Y-79399761D01*
X142120238Y-79447380D01*
X142025000Y-79447380D01*
X141929761Y-79399761D01*
X141882142Y-79352142D01*
X141834523Y-79256904D01*
X141786904Y-79066428D01*
X141786904Y-78828333D01*
X141834523Y-78637857D01*
X141882142Y-78542619D01*
X141929761Y-78495000D01*
X142025000Y-78447380D01*
X130739285Y-80573571D02*
X130882142Y-80621190D01*
X130929761Y-80668809D01*
X130977380Y-80764047D01*
X130977380Y-80906904D01*
X130929761Y-81002142D01*
X130882142Y-81049761D01*
X130786904Y-81097380D01*
X130405952Y-81097380D01*
X130405952Y-80097380D01*
X130739285Y-80097380D01*
X130834523Y-80145000D01*
X130882142Y-80192619D01*
X130929761Y-80287857D01*
X130929761Y-80383095D01*
X130882142Y-80478333D01*
X130834523Y-80525952D01*
X130739285Y-80573571D01*
X130405952Y-80573571D01*
X131358333Y-80811666D02*
X131834523Y-80811666D01*
X131263095Y-81097380D02*
X131596428Y-80097380D01*
X131929761Y-81097380D01*
X132120238Y-80097380D02*
X132691666Y-80097380D01*
X132405952Y-81097380D02*
X132405952Y-80097380D01*
X132882142Y-80097380D02*
X133453571Y-80097380D01*
X133167857Y-81097380D02*
X133167857Y-80097380D01*
X133786904Y-80573571D02*
X134120238Y-80573571D01*
X134263095Y-81097380D02*
X133786904Y-81097380D01*
X133786904Y-80097380D01*
X134263095Y-80097380D01*
X135263095Y-81097380D02*
X134929761Y-80621190D01*
X134691666Y-81097380D02*
X134691666Y-80097380D01*
X135072619Y-80097380D01*
X135167857Y-80145000D01*
X135215476Y-80192619D01*
X135263095Y-80287857D01*
X135263095Y-80430714D01*
X135215476Y-80525952D01*
X135167857Y-80573571D01*
X135072619Y-80621190D01*
X134691666Y-80621190D01*
X135882142Y-80621190D02*
X135882142Y-81097380D01*
X135548809Y-80097380D02*
X135882142Y-80621190D01*
X136215476Y-80097380D01*
X137310714Y-81097380D02*
X137310714Y-80097380D01*
X137310714Y-80573571D02*
X137882142Y-80573571D01*
X137882142Y-81097380D02*
X137882142Y-80097380D01*
X138548809Y-80097380D02*
X138739285Y-80097380D01*
X138834523Y-80145000D01*
X138929761Y-80240238D01*
X138977380Y-80430714D01*
X138977380Y-80764047D01*
X138929761Y-80954523D01*
X138834523Y-81049761D01*
X138739285Y-81097380D01*
X138548809Y-81097380D01*
X138453571Y-81049761D01*
X138358333Y-80954523D01*
X138310714Y-80764047D01*
X138310714Y-80430714D01*
X138358333Y-80240238D01*
X138453571Y-80145000D01*
X138548809Y-80097380D01*
X139882142Y-81097380D02*
X139405952Y-81097380D01*
X139405952Y-80097380D01*
X140215476Y-81097380D02*
X140215476Y-80097380D01*
X140453571Y-80097380D01*
X140596428Y-80145000D01*
X140691666Y-80240238D01*
X140739285Y-80335476D01*
X140786904Y-80525952D01*
X140786904Y-80668809D01*
X140739285Y-80859285D01*
X140691666Y-80954523D01*
X140596428Y-81049761D01*
X140453571Y-81097380D01*
X140215476Y-81097380D01*
X141215476Y-80573571D02*
X141548809Y-80573571D01*
X141691666Y-81097380D02*
X141215476Y-81097380D01*
X141215476Y-80097380D01*
X141691666Y-80097380D01*
X142691666Y-81097380D02*
X142358333Y-80621190D01*
X142120238Y-81097380D02*
X142120238Y-80097380D01*
X142501190Y-80097380D01*
X142596428Y-80145000D01*
X142644047Y-80192619D01*
X142691666Y-80287857D01*
X142691666Y-80430714D01*
X142644047Y-80525952D01*
X142596428Y-80573571D01*
X142501190Y-80621190D01*
X142120238Y-80621190D01*
X132691666Y-81747380D02*
X132882142Y-81747380D01*
X132977380Y-81795000D01*
X133072619Y-81890238D01*
X133120238Y-82080714D01*
X133120238Y-82414047D01*
X133072619Y-82604523D01*
X132977380Y-82699761D01*
X132882142Y-82747380D01*
X132691666Y-82747380D01*
X132596428Y-82699761D01*
X132501190Y-82604523D01*
X132453571Y-82414047D01*
X132453571Y-82080714D01*
X132501190Y-81890238D01*
X132596428Y-81795000D01*
X132691666Y-81747380D01*
X134120238Y-82747380D02*
X133786904Y-82271190D01*
X133548809Y-82747380D02*
X133548809Y-81747380D01*
X133929761Y-81747380D01*
X134025000Y-81795000D01*
X134072619Y-81842619D01*
X134120238Y-81937857D01*
X134120238Y-82080714D01*
X134072619Y-82175952D01*
X134025000Y-82223571D01*
X133929761Y-82271190D01*
X133548809Y-82271190D01*
X135263095Y-82699761D02*
X135405952Y-82747380D01*
X135644047Y-82747380D01*
X135739285Y-82699761D01*
X135786904Y-82652142D01*
X135834523Y-82556904D01*
X135834523Y-82461666D01*
X135786904Y-82366428D01*
X135739285Y-82318809D01*
X135644047Y-82271190D01*
X135453571Y-82223571D01*
X135358333Y-82175952D01*
X135310714Y-82128333D01*
X135263095Y-82033095D01*
X135263095Y-81937857D01*
X135310714Y-81842619D01*
X135358333Y-81795000D01*
X135453571Y-81747380D01*
X135691666Y-81747380D01*
X135834523Y-81795000D01*
X136263095Y-82747380D02*
X136263095Y-81747380D01*
X136739285Y-82747380D02*
X136739285Y-81747380D01*
X137072619Y-82461666D01*
X137405952Y-81747380D01*
X137405952Y-82747380D01*
X137882142Y-82747380D02*
X137882142Y-81747380D01*
X138834523Y-82747380D02*
X138358333Y-82747380D01*
X138358333Y-81747380D01*
X139120238Y-82461666D02*
X139596428Y-82461666D01*
X139025000Y-82747380D02*
X139358333Y-81747380D01*
X139691666Y-82747380D01*
X140596428Y-82747380D02*
X140263095Y-82271190D01*
X140025000Y-82747380D02*
X140025000Y-81747380D01*
X140405952Y-81747380D01*
X140501190Y-81795000D01*
X140548809Y-81842619D01*
X140596428Y-81937857D01*
X140596428Y-82080714D01*
X140548809Y-82175952D01*
X140501190Y-82223571D01*
X140405952Y-82271190D01*
X140025000Y-82271190D01*
D11*
%TO.C,BT1*%
X125175000Y-81240000D02*
X121975000Y-81240000D01*
X121975000Y-81240000D02*
X121975000Y-82790000D01*
X125175000Y-76740000D02*
X125175000Y-81240000D01*
X125175000Y-76740000D02*
X146075000Y-76740000D01*
X147875000Y-78540000D02*
X147875000Y-81240000D01*
X146075000Y-76740000D02*
X147875000Y-78540000D01*
X147875000Y-81240000D02*
X151075000Y-81240000D01*
X151075000Y-81240000D02*
X151075000Y-82790000D01*
X147875000Y-88940000D02*
X151075000Y-88940000D01*
X151075000Y-88940000D02*
X151075000Y-87390000D01*
X125175000Y-88940000D02*
X121975000Y-88940000D01*
X121975000Y-88940000D02*
X121975000Y-87390000D01*
X147875000Y-93440000D02*
X125175000Y-93440000D01*
X147875000Y-93440000D02*
X147875000Y-88940000D01*
X125175000Y-93440000D02*
X125175000Y-88940000D01*
X149525000Y-80090000D02*
X149525000Y-78090000D01*
X148525000Y-79090000D02*
X150525000Y-79090000D01*
%TD*%
M02*
